SplineFontDB: 3.0
FontName: EmblemaOne-Regular
FullName: Emblema One
FamilyName: Emblema One
Weight: Book
Copyright: Copyright (c) 2011 by Sorkin Type Co with Reserved Font Names "Emblema" and "Emblema One"
Version: 1.002
ItalicAngle: 0
UnderlinePosition: -123
UnderlineWidth: 93
Ascent: 1638
Descent: 410
sfntRevision: 0x00010083
LayerCount: 2
Layer: 0 1 "Back"  1
Layer: 1 1 "Fore"  0
XUID: [1021 862 114214574 6780044]
FSType: 0
OS2Version: 2
OS2_WeightWidthSlopeOnly: 0
OS2_UseTypoMetrics: 1
CreationTime: 1326312514
ModificationTime: 1326313176
PfmFamily: 17
TTFWeight: 400
TTFWidth: 5
LineGap: 0
VLineGap: 0
Panose: 2 10 8 3 7 7 0 13 7 4
OS2TypoAscent: 260
OS2TypoAOffset: 1
OS2TypoDescent: -136
OS2TypoDOffset: 1
OS2TypoLinegap: 0
OS2WinAscent: 0
OS2WinAOffset: 1
OS2WinDescent: 0
OS2WinDOffset: 1
HheadAscent: 0
HheadAOffset: 1
HheadDescent: 0
HheadDOffset: 1
OS2SubXSize: 1434
OS2SubYSize: 1331
OS2SubXOff: 0
OS2SubYOff: 287
OS2SupXSize: 1434
OS2SupYSize: 1331
OS2SupXOff: 0
OS2SupYOff: 977
OS2StrikeYSize: 102
OS2StrikeYPos: 512
OS2Vendor: 'STC '
OS2CodePages: 20000093.00000000
OS2UnicodeRanges: a00000af.4000204a.00000000.00000000
MarkAttachClasses: 1
DEI: 91125
TtTable: prep
PUSHW_1
 511
SCANCTRL
PUSHB_1
 4
SCANTYPE
EndTTInstrs
ShortTable: maxp 16
  1
  0
  407
  96
  7
  70
  4
  2
  0
  1
  1
  0
  64
  0
  2
  1
EndShort

StartChar: exclam
Encoding: 33 33 4
Width: 856
GlyphClass: 2
Flags: W
LayerCount: 2
Fore
SplineSet
486 417 m 2,0,-1
 263 406 l 1,1,2
 296 652 296 652 296 1161 c 0,3,4
 296 1232 296 1232 301 1283 c 1,5,6
 301 1296 301 1296 333.5 1321.5 c 128,-1,7
 366 1347 366 1347 388 1348 c 2,8,-1
 797 1363 l 1,9,10
 647 826 647 826 573 483 c 1,11,12
 573 469 573 469 541.5 443.5 c 128,-1,13
 510 418 510 418 486 417 c 2,0,-1
188.5 22 m 128,-1,15
 129 64 129 64 129 125 c 128,-1,16
 129 186 129 186 174 230 c 0,17,18
 259 313 259 313 400 313 c 0,19,20
 501 313 501 313 560 270.5 c 128,-1,21
 619 228 619 228 619 157 c 128,-1,22
 619 86 619 86 539.5 33 c 128,-1,23
 460 -20 460 -20 354 -20 c 128,-1,14
 248 -20 248 -20 188.5 22 c 128,-1,15
EndSplineSet
EndChar

StartChar: quotedbl
Encoding: 34 34 5
Width: 853
GlyphClass: 2
Flags: W
LayerCount: 2
Fore
SplineSet
324 932 m 2,0,-1
 174 932 l 1,1,2
 193 1086 193 1086 198 1314 c 0,3,4
 198 1328 198 1328 230 1354.5 c 128,-1,5
 262 1381 262 1381 285 1381 c 2,6,-1
 502 1381 l 1,7,8
 455 1199 455 1199 411 998 c 0,9,10
 406 977 406 977 377.5 954.5 c 128,-1,11
 349 932 349 932 324 932 c 2,0,-1
694 932 m 2,12,-1
 544 932 l 1,13,14
 563 1086 563 1086 568 1314 c 0,15,16
 568 1328 568 1328 600 1354.5 c 128,-1,17
 632 1381 632 1381 655 1381 c 2,18,-1
 872 1381 l 1,19,20
 825 1199 825 1199 781 998 c 0,21,22
 776 977 776 977 747.5 954.5 c 128,-1,23
 719 932 719 932 694 932 c 2,12,-1
EndSplineSet
EndChar

StartChar: numbersign
Encoding: 35 35 6
Width: 1365
GlyphClass: 2
Flags: W
LayerCount: 2
Fore
SplineSet
740 1289 m 1,0,1
 551 693 551 693 391 59 c 1,2,3
 391 46 391 46 359.5 23.5 c 128,-1,4
 328 1 328 1 303 1 c 2,5,-1
 228 1 l 1,6,7
 417 597 417 597 577 1231 c 1,8,9
 577 1244 577 1244 608.5 1266.5 c 128,-1,10
 640 1289 640 1289 665 1289 c 2,11,-1
 740 1289 l 1,0,1
1113 1289 m 1,12,13
 924 693 924 693 764 59 c 1,14,15
 764 46 764 46 732.5 23.5 c 128,-1,16
 701 1 701 1 676 1 c 2,17,-1
 601 1 l 1,18,19
 790 597 790 597 950 1231 c 1,20,21
 950 1244 950 1244 981.5 1266.5 c 128,-1,22
 1013 1289 1013 1289 1038 1289 c 2,23,-1
 1113 1289 l 1,12,13
1070 402 m 0,24,25
 645 402 645 402 178 387 c 1,26,-1
 178 451 l 2,27,28
 178 476 178 476 200.5 507 c 128,-1,29
 223 538 223 538 236 539 c 1,30,31
 710 539 710 539 1128 554 c 1,32,-1
 1128 490 l 2,33,34
 1128 465 1128 465 1105.5 433.5 c 128,-1,35
 1083 402 1083 402 1070 402 c 0,24,25
1129 797 m 0,36,37
 704 797 704 797 237 782 c 1,38,-1
 237 846 l 2,39,40
 237 871 237 871 259.5 902 c 128,-1,41
 282 933 282 933 295 934 c 1,42,43
 769 934 769 934 1187 949 c 1,44,-1
 1187 885 l 2,45,46
 1187 860 1187 860 1164.5 828.5 c 128,-1,47
 1142 797 1142 797 1129 797 c 0,36,37
EndSplineSet
EndChar

StartChar: dollar
Encoding: 36 36 7
Width: 1365
GlyphClass: 2
Flags: W
LayerCount: 2
Fore
SplineSet
227 953 m 0,0,1
 227 1118 227 1118 354 1240.5 c 128,-1,2
 481 1363 481 1363 674 1392 c 1,3,4
 687 1508 687 1508 698 1623 c 1,5,6
 698 1636 698 1636 729.5 1657.5 c 128,-1,7
 761 1679 761 1679 785 1679 c 2,8,-1
 826 1679 l 1,9,10
 802 1584 802 1584 770 1399 c 1,11,12
 691 1332 691 1332 691 1236.5 c 128,-1,13
 691 1141 691 1141 743.5 1045.5 c 128,-1,14
 796 950 796 950 866 883 c 128,-1,15
 936 816 936 816 974.5 776.5 c 128,-1,16
 1013 737 1013 737 1061.5 681.5 c 128,-1,17
 1110 626 1110 626 1138 582 c 0,18,19
 1207 475 1207 475 1207 387 c 0,20,21
 1207 250 1207 250 1097 137 c 128,-1,22
 987 24 987 24 798 -7 c 1,23,24
 777 -183 777 -183 769 -274 c 1,25,26
 769 -287 769 -287 737.5 -309.5 c 128,-1,27
 706 -332 706 -332 681 -332 c 2,28,-1
 649 -332 l 1,29,30
 681 -199 681 -199 711 -16 c 1,31,32
 743 30 743 30 743 80.5 c 128,-1,33
 743 131 743 131 722 183.5 c 128,-1,34
 701 236 701 236 658 296 c 0,35,36
 589 393 589 393 503.5 486 c 128,-1,37
 418 579 418 579 384.5 619 c 128,-1,38
 351 659 351 659 309 720 c 0,39,40
 227 838 227 838 227 953 c 0,0,1
264 574 m 1,41,42
 287 464 287 464 346.5 353 c 128,-1,43
 406 242 406 242 481.5 165.5 c 128,-1,44
 557 89 557 89 624 71 c 1,45,46
 612 3 612 3 587 -20 c 1,47,48
 564 -219 564 -219 559 -280 c 1,49,50
 559 -293 559 -293 527.5 -315.5 c 128,-1,51
 496 -338 496 -338 471 -338 c 2,52,-1
 439 -338 l 1,53,54
 469 -214 469 -214 501 -18 c 1,55,-1
 499 -16 l 1,56,57
 392 -7 392 -7 287.5 17.5 c 128,-1,58
 183 42 183 42 131 76 c 1,59,60
 130 98 130 98 130 139 c 0,61,62
 130 334 130 334 176 509 c 0,63,64
 180 525 180 525 210 549.5 c 128,-1,65
 240 574 240 574 264 574 c 1,41,42
1103 795 m 1,66,67
 1103 892 1103 892 1068 995 c 0,68,69
 999 1196 999 1196 838 1319 c 1,70,71
 839 1332 839 1332 859.5 1351.5 c 128,-1,72
 880 1371 880 1371 902 1381 c 1,73,74
 919 1524 919 1524 929 1639 c 1,75,76
 929 1652 929 1652 960.5 1673.5 c 128,-1,77
 992 1695 992 1695 1016 1695 c 2,78,-1
 1057 1695 l 1,79,80
 1030 1586 1030 1586 994 1381 c 1,81,82
 1125 1360 1125 1360 1250 1302 c 1,83,84
 1255 1272 1255 1272 1255 1197.5 c 128,-1,85
 1255 1123 1255 1123 1241 1011.5 c 128,-1,86
 1227 900 1227 900 1207 835 c 1,87,88
 1201 820 1201 820 1164.5 807.5 c 128,-1,89
 1128 795 1128 795 1103 795 c 1,66,67
EndSplineSet
EndChar

StartChar: percent
Encoding: 37 37 8
Width: 1365
GlyphClass: 2
Flags: W
LayerCount: 2
Fore
SplineSet
288 41 m 0,0,1
 274 23 274 23 248.5 3 c 128,-1,2
 223 -17 223 -17 200 -17 c 2,3,-1
 88 -17 l 1,4,5
 634 688 634 688 1077 1304 c 0,6,7
 1091 1323 1091 1323 1116.5 1342.5 c 128,-1,8
 1142 1362 1142 1362 1165 1362 c 2,9,-1
 1277 1362 l 1,10,11
 839 790 839 790 288 41 c 0,0,1
228 856.5 m 128,-1,13
 172 923 172 923 172 1016 c 128,-1,14
 172 1109 172 1109 207 1186 c 128,-1,15
 242 1263 242 1263 308.5 1312 c 128,-1,16
 375 1361 375 1361 459 1361 c 128,-1,17
 543 1361 543 1361 599 1294.5 c 128,-1,18
 655 1228 655 1228 655 1111 c 128,-1,19
 655 994 655 994 574.5 892 c 128,-1,20
 494 790 494 790 370 790 c 0,21,12
 284 790 284 790 228 856.5 c 128,-1,13
334.5 1176.5 m 128,-1,23
 294 1119 294 1119 294 1053.5 c 128,-1,24
 294 988 294 988 321.5 952.5 c 128,-1,25
 349 917 349 917 400.5 917 c 128,-1,26
 452 917 452 917 492.5 974 c 128,-1,27
 533 1031 533 1031 533 1096.5 c 128,-1,28
 533 1162 533 1162 506 1198 c 128,-1,29
 479 1234 479 1234 427 1234 c 128,-1,22
 375 1234 375 1234 334.5 1176.5 c 128,-1,23
758 56.5 m 128,-1,31
 702 123 702 123 702 216 c 128,-1,32
 702 309 702 309 737 386 c 128,-1,33
 772 463 772 463 838.5 512 c 128,-1,34
 905 561 905 561 989 561 c 128,-1,35
 1073 561 1073 561 1129 494.5 c 128,-1,36
 1185 428 1185 428 1185 311 c 128,-1,37
 1185 194 1185 194 1104.5 92 c 128,-1,38
 1024 -10 1024 -10 900 -10 c 0,39,30
 814 -10 814 -10 758 56.5 c 128,-1,31
864.5 376.5 m 128,-1,41
 824 319 824 319 824 253.5 c 128,-1,42
 824 188 824 188 851.5 152.5 c 128,-1,43
 879 117 879 117 930.5 117 c 128,-1,44
 982 117 982 117 1022.5 174 c 128,-1,45
 1063 231 1063 231 1063 296.5 c 128,-1,46
 1063 362 1063 362 1036 398 c 128,-1,47
 1009 434 1009 434 957 434 c 128,-1,40
 905 434 905 434 864.5 376.5 c 128,-1,41
EndSplineSet
EndChar

StartChar: ampersand
Encoding: 38 38 9
Width: 1535
GlyphClass: 2
Flags: W
LayerCount: 2
Fore
SplineSet
502 -14 m 0,0,1
 297 -14 297 -14 182 52 c 128,-1,2
 67 118 67 118 67 243 c 0,3,4
 67 411 67 411 254 509 c 0,5,6
 351 560 351 560 460 575 c 1,7,8
 393 436 393 436 393 330 c 0,9,10
 393 134 393 134 589 54 c 1,11,12
 589 39 589 39 557 12.5 c 128,-1,13
 525 -14 525 -14 502 -14 c 0,0,1
1458 69 m 1,14,15
 1458 56 1458 56 1426 30 c 128,-1,16
 1394 4 1394 4 1371 4 c 2,17,-1
 813 4 l 1,18,19
 706 256 706 256 553 504 c 0,20,21
 412 733 412 733 382 817.5 c 128,-1,22
 352 902 352 902 352 972 c 0,23,24
 352 1124 352 1124 473 1238.5 c 128,-1,25
 594 1353 594 1353 790 1374 c 1,26,27
 765 1323 765 1323 765 1235.5 c 128,-1,28
 765 1148 765 1148 818 1010.5 c 128,-1,29
 871 873 871 873 947.5 745.5 c 128,-1,30
 1024 618 1024 618 1124 480 c 0,31,32
 1289 253 1289 253 1458 69 c 1,14,15
1102 772 m 1,33,34
 1102 871 1102 871 1071 973 c 0,35,36
 1012 1167 1012 1167 849 1292 c 1,37,38
 852 1311 852 1311 883.5 1335 c 128,-1,39
 915 1359 915 1359 938 1359 c 0,40,41
 1010 1359 1010 1359 1107 1330.5 c 128,-1,42
 1204 1302 1204 1302 1262 1276 c 1,43,44
 1267 1244 1267 1244 1267 1169.5 c 128,-1,45
 1267 1095 1267 1095 1253 985 c 128,-1,46
 1239 875 1239 875 1218 812 c 0,47,48
 1214 799 1214 799 1171.5 785.5 c 128,-1,49
 1129 772 1129 772 1102 772 c 1,33,34
EndSplineSet
EndChar

StartChar: quotesingle
Encoding: 39 39 10
Width: 453
GlyphClass: 2
Flags: W
LayerCount: 2
Fore
SplineSet
313 932 m 2,0,-1
 163 932 l 1,1,2
 182 1086 182 1086 187 1314 c 0,3,4
 187 1328 187 1328 219 1354.5 c 128,-1,5
 251 1381 251 1381 274 1381 c 2,6,-1
 491 1381 l 1,7,8
 444 1199 444 1199 400 998 c 0,9,10
 395 977 395 977 366.5 954.5 c 128,-1,11
 338 932 338 932 313 932 c 2,0,-1
EndSplineSet
EndChar

StartChar: parenleft
Encoding: 40 40 11
Width: 539
GlyphClass: 2
Flags: W
LayerCount: 2
Fore
SplineSet
548 1528 m 1,0,-1
 597 1512 l 1,1,2
 390 978 390 978 390 411 c 0,3,4
 390 82 390 82 465 -196 c 1,5,-1
 411 -217 l 1,6,7
 271 -68 271 -68 190 132.5 c 128,-1,8
 109 333 109 333 109 533 c 0,9,10
 109 842 109 842 219.5 1086 c 128,-1,11
 330 1330 330 1330 548 1528 c 1,0,-1
EndSplineSet
EndChar

StartChar: parenright
Encoding: 41 41 12
Width: 539
GlyphClass: 2
Flags: W
LayerCount: 2
Fore
SplineSet
21 -219 m 1,0,-1
 -28 -203 l 1,1,2
 179 331 179 331 179 898 c 0,3,4
 179 1227 179 1227 104 1505 c 1,5,-1
 158 1526 l 1,6,7
 298 1377 298 1377 379 1176.5 c 128,-1,8
 460 976 460 976 460 776 c 0,9,10
 460 467 460 467 349.5 223 c 128,-1,11
 239 -21 239 -21 21 -219 c 1,0,-1
EndSplineSet
EndChar

StartChar: asterisk
Encoding: 42 42 13
Width: 1089
GlyphClass: 2
Flags: W
LayerCount: 2
Fore
SplineSet
617 983 m 1,0,-1
 561 998 l 1,1,2
 547 1189 547 1189 513 1306 c 1,3,4
 515 1317 515 1317 550.5 1333.5 c 128,-1,5
 586 1350 586 1350 603 1350 c 128,-1,6
 620 1350 620 1350 624 1349 c 2,7,-1
 737 1319 l 2,8,9
 761 1312 761 1312 786 1276.5 c 128,-1,10
 811 1241 811 1241 811 1226 c 1,11,12
 727 1147 727 1147 617 983 c 1,0,-1
332 1240 m 1,13,-1
 339 1239 l 1,14,15
 391 1131 391 1131 510 979 c 1,16,-1
 479 930 l 1,17,18
 295 975 295 975 171 979 c 1,19,20
 155 990 155 990 155 1037 c 128,-1,21
 155 1084 155 1084 165 1098 c 2,22,-1
 228 1196 l 2,23,24
 240 1215 240 1215 274 1227 c 128,-1,25
 308 1239 308 1239 332 1240 c 1,13,-1
481 876 m 1,26,-1
 518 831 l 1,27,28
 419 671 419 671 376 554 c 1,29,30
 371 550 371 550 350.5 550 c 128,-1,31
 330 550 330 550 301.5 559.5 c 128,-1,32
 273 569 273 569 261 584 c 2,33,-1
 187 675 l 2,34,35
 172 693 172 693 172 740.5 c 128,-1,36
 172 788 172 788 181 794 c 1,37,38
 300 809 300 809 481 876 c 1,26,-1
845 618 m 1,39,-1
 846 612 l 1,40,41
 846 594 846 594 824 560 c 128,-1,42
 802 526 802 526 781 518 c 2,43,-1
 671 476 l 2,44,45
 662 473 662 473 642.5 473 c 128,-1,46
 623 473 623 473 591.5 485 c 128,-1,47
 560 497 560 497 556 508 c 1,48,49
 574 602 574 602 574 673.5 c 128,-1,50
 574 745 574 745 572 817 c 1,51,-1
 624 838 l 1,52,53
 749 693 749 693 845 618 c 1,39,-1
654 884 m 1,54,-1
 650 942 l 1,55,56
 824 1012 824 1012 928 1083 c 1,57,58
 944 1078 944 1078 973 1048 c 128,-1,59
 1002 1018 1002 1018 1004 991 c 2,60,-1
 1011 873 l 1,61,62
 1011 849 1011 849 985 811.5 c 128,-1,63
 959 774 959 774 946 774 c 1,64,65
 842 831 842 831 654 884 c 1,54,-1
EndSplineSet
EndChar

StartChar: plus
Encoding: 43 43 14
Width: 1365
GlyphClass: 2
Flags: W
LayerCount: 2
Fore
SplineSet
1099 442 m 0,0,1
 867 454 867 454 735 455 c 1,2,3
 717 323 717 323 687 38 c 1,4,5
 687 25 687 25 655.5 2.5 c 128,-1,6
 624 -20 624 -20 599 -20 c 2,7,-1
 527 -20 l 1,8,9
 591 386 591 386 600 455 c 1,10,11
 470 451 470 451 207 427 c 1,12,-1
 207 499 l 2,13,14
 207 524 207 524 229.5 555 c 128,-1,15
 252 586 252 586 265 587 c 1,16,17
 471 576 471 576 616 573 c 1,18,19
 624 636 624 636 662 972 c 1,20,21
 662 985 662 985 693.5 1007.5 c 128,-1,22
 725 1030 725 1030 750 1030 c 2,23,-1
 822 1030 l 1,24,25
 781 777 781 777 751 573 c 1,26,27
 866 576 866 576 1157 602 c 1,28,-1
 1157 530 l 2,29,30
 1157 505 1157 505 1134.5 473.5 c 128,-1,31
 1112 442 1112 442 1099 442 c 0,0,1
EndSplineSet
EndChar

StartChar: comma
Encoding: 44 44 15
Width: 682
GlyphClass: 2
Flags: W
LayerCount: 2
Fore
SplineSet
92 11 m 128,-1,1
 33 53 33 53 33 114 c 128,-1,2
 33 175 33 175 74 219 c 0,3,4
 151 303 151 303 280 303 c 128,-1,5
 409 303 409 303 467.5 245 c 128,-1,6
 526 187 526 187 526 105.5 c 128,-1,7
 526 24 526 24 498 -51.5 c 128,-1,8
 470 -127 470 -127 427 -180 c 0,9,10
 330 -299 330 -299 236 -299 c 0,11,12
 193 -299 193 -299 126 -262 c 128,-1,13
 59 -225 59 -225 21 -189 c 1,14,15
 112 -177 112 -177 184.5 -133.5 c 128,-1,16
 257 -90 257 -90 294 -28 c 1,17,18
 273 -31 273 -31 253 -31 c 0,19,0
 151 -31 151 -31 92 11 c 128,-1,1
EndSplineSet
EndChar

StartChar: hyphen
Encoding: 45 45 16
Width: 1365
GlyphClass: 2
Flags: W
LayerCount: 2
Fore
SplineSet
1099 447 m 0,0,1
 674 447 674 447 207 432 c 1,2,-1
 207 496 l 2,3,4
 207 521 207 521 229.5 552 c 128,-1,5
 252 583 252 583 265 584 c 1,6,7
 739 584 739 584 1157 599 c 1,8,-1
 1157 535 l 2,9,10
 1157 510 1157 510 1134.5 478.5 c 128,-1,11
 1112 447 1112 447 1099 447 c 0,0,1
EndSplineSet
EndChar

StartChar: period
Encoding: 46 46 17
Width: 682
GlyphClass: 2
Flags: W
LayerCount: 2
Fore
SplineSet
92 11 m 128,-1,1
 33 53 33 53 33 114 c 128,-1,2
 33 175 33 175 78 219 c 0,3,4
 162 303 162 303 302 303 c 0,5,6
 403 303 403 303 462.5 260 c 128,-1,7
 522 217 522 217 522 146.5 c 128,-1,8
 522 76 522 76 442.5 22.5 c 128,-1,9
 363 -31 363 -31 257 -31 c 128,-1,0
 151 -31 151 -31 92 11 c 128,-1,1
EndSplineSet
EndChar

StartChar: slash
Encoding: 47 47 18
Width: 736
GlyphClass: 2
Flags: W
LayerCount: 2
Fore
SplineSet
90 -161 m 1,0,1
 90 -174 90 -174 58.5 -196.5 c 128,-1,2
 27 -219 27 -219 2 -219 c 2,3,-1
 -80 -219 l 1,4,5
 336 654 336 654 669 1411 c 1,6,7
 669 1424 669 1424 700.5 1446.5 c 128,-1,8
 732 1469 732 1469 757 1469 c 2,9,-1
 839 1469 l 1,10,11
 423 596 423 596 90 -161 c 1,0,1
EndSplineSet
EndChar

StartChar: zero
Encoding: 48 48 19
Width: 1463
GlyphClass: 2
Flags: W
LayerCount: 2
Fore
SplineSet
642 -20 m 1,0,1
 733 63 733 63 790 208 c 0,2,3
 890 460 890 460 890 841 c 0,4,5
 890 1064 890 1064 859 1283 c 1,6,7
 859 1297 859 1297 891.5 1323.5 c 128,-1,8
 924 1350 924 1350 948 1350 c 1,9,10
 1079 1312 1079 1312 1172 1217 c 0,11,12
 1349 1035 1349 1035 1349 738 c 0,13,14
 1349 503 1349 503 1237 312 c 0,15,16
 1115 102 1115 102 909 22 c 0,17,18
 797 -21 797 -21 668 -21 c 0,19,20
 664 -21 664 -21 655 -20.5 c 128,-1,21
 646 -20 646 -20 642 -20 c 1,0,1
821 1373 m 1,22,23
 730 1290 730 1290 672 1144 c 1,24,25
 570 892 570 892 570 510 c 0,26,27
 570 290 570 290 603 71 c 1,28,29
 603 57 603 57 571 30.5 c 128,-1,30
 539 4 539 4 515 4 c 1,31,32
 384 42 384 42 292 137 c 0,33,34
 114 319 114 319 114 616 c 0,35,36
 114 850 114 850 226 1042 c 0,37,38
 347 1249 347 1249 554 1330 c 0,39,40
 665 1373 665 1373 795 1373 c 2,41,-1
 821 1373 l 1,22,23
EndSplineSet
EndChar

StartChar: one
Encoding: 49 49 20
Width: 1025
GlyphClass: 2
Flags: W
LayerCount: 2
Fore
SplineSet
353 1237 m 1,0,1
 345 1140 345 1140 309 1020 c 1,2,-1
 120 1020 l 1,3,4
 132 1108 132 1108 154 1158 c 1,5,6
 266 1193 266 1193 353 1237 c 1,0,1
192 4 m 1,7,8
 401 868 401 868 471 1283 c 1,9,10
 471 1296 471 1296 503.5 1322 c 128,-1,11
 536 1348 536 1348 558 1348 c 2,12,-1
 918 1348 l 1,13,14
 776 749 776 749 722 69 c 1,15,16
 722 56 722 56 690 30 c 128,-1,17
 658 4 658 4 635 4 c 2,18,-1
 192 4 l 1,7,8
EndSplineSet
EndChar

StartChar: two
Encoding: 50 50 21
Width: 1365
GlyphClass: 2
Flags: W
LayerCount: 2
Fore
SplineSet
638.5 212 m 128,-1,1
 603 147 603 147 603 111.5 c 128,-1,2
 603 76 603 76 603.5 66.5 c 128,-1,3
 604 57 604 57 572 30.5 c 128,-1,4
 540 4 540 4 517 4 c 2,5,-1
 104 4 l 1,6,7
 86 61 86 61 86 130.5 c 128,-1,8
 86 200 86 200 125.5 285.5 c 128,-1,9
 165 371 165 371 228 445.5 c 128,-1,10
 291 520 291 520 367.5 595.5 c 128,-1,11
 444 671 444 671 520 744 c 128,-1,12
 596 817 596 817 659 888 c 0,13,14
 801 1048 801 1048 801 1185 c 0,15,16
 801 1230 801 1230 783 1272 c 1,17,18
 784 1286 784 1286 815.5 1311 c 128,-1,19
 847 1336 847 1336 870 1337 c 1,20,21
 1083 1299 1083 1299 1190 1160 c 0,22,23
 1247 1086 1247 1086 1247 1011.5 c 128,-1,24
 1247 937 1247 937 1211.5 868 c 128,-1,25
 1176 799 1176 799 1119 734 c 128,-1,26
 1062 669 1062 669 993.5 601.5 c 128,-1,27
 925 534 925 534 856.5 468 c 128,-1,28
 788 402 788 402 731 339.5 c 128,-1,0
 674 277 674 277 638.5 212 c 128,-1,1
200 849 m 1,29,30
 221 1066 221 1066 283 1254 c 1,31,32
 292 1274 292 1274 317 1297.5 c 128,-1,33
 342 1321 342 1321 364 1327 c 0,34,35
 544 1368 544 1368 767 1373 c 1,36,37
 628 1303 628 1303 515 1190 c 128,-1,38
 402 1077 402 1077 287 914 c 0,39,40
 273 895 273 895 246.5 872 c 128,-1,41
 220 849 220 849 200 849 c 1,29,30
1092 396 m 1,42,43
 1103 413 1103 413 1130.5 437 c 128,-1,44
 1158 461 1158 461 1180 461 c 1,45,46
 1145 182 1145 182 1116 76 c 1,47,48
 1107 55 1107 55 1080 29.5 c 128,-1,49
 1053 4 1053 4 1035 4 c 2,50,-1
 667 4 l 1,51,52
 929 179 929 179 1092 396 c 1,42,43
EndSplineSet
EndChar

StartChar: three
Encoding: 51 51 22
Width: 1365
GlyphClass: 2
Flags: W
LayerCount: 2
Fore
SplineSet
493 -4 m 1,0,1
 600 56 600 56 666 153.5 c 128,-1,2
 732 251 732 251 732 388 c 0,3,4
 732 511 732 511 646 586 c 0,5,6
 573 650 573 650 438 656 c 1,7,8
 436 668 436 668 436 696 c 128,-1,9
 436 724 436 724 452 751 c 1,10,11
 555 751 555 751 637.5 804.5 c 128,-1,12
 720 858 720 858 762 940 c 128,-1,13
 804 1022 804 1022 804 1125.5 c 128,-1,14
 804 1229 804 1229 727 1294 c 1,15,16
 727 1309 727 1309 761 1335.5 c 128,-1,17
 795 1362 795 1362 819 1362 c 0,18,19
 970 1362 970 1362 1101 1290 c 0,20,21
 1165 1254 1165 1254 1205.5 1193.5 c 128,-1,22
 1246 1133 1246 1133 1246 1060.5 c 128,-1,23
 1246 988 1246 988 1210.5 929 c 128,-1,24
 1175 870 1175 870 1118.5 831 c 128,-1,25
 1062 792 1062 792 986 764 c 0,26,27
 851 713 851 713 679 702 c 1,28,29
 906 702 906 702 1035 642 c 1,30,31
 1160 585 1160 585 1201 496 c 0,32,33
 1226 443 1226 443 1226 368 c 128,-1,34
 1226 293 1226 293 1194 225.5 c 128,-1,35
 1162 158 1162 158 1107.5 113 c 128,-1,36
 1053 68 1053 68 979 37.5 c 128,-1,37
 905 7 905 7 824.5 -6.5 c 128,-1,38
 744 -20 744 -20 656 -20 c 128,-1,39
 568 -20 568 -20 493 -4 c 1,0,1
237 517 m 1,40,41
 276 355 276 355 329 249 c 128,-1,42
 382 143 382 143 479 85 c 1,43,44
 477 68 477 68 431 36.5 c 128,-1,45
 385 5 385 5 363 5 c 1,46,47
 292 12 292 12 210 37.5 c 128,-1,48
 128 63 128 63 92 84 c 1,49,50
 126 368 126 368 144 470 c 1,51,52
 187 505 187 505 237 517 c 1,40,41
196 848 m 1,53,54
 220 1077 220 1077 281 1254 c 1,55,56
 291 1272 291 1272 315.5 1297 c 128,-1,57
 340 1322 340 1322 361 1327 c 0,58,59
 558 1370 558 1370 696 1373 c 1,60,61
 588 1296 588 1296 495.5 1189 c 128,-1,62
 403 1082 403 1082 284 914 c 0,63,64
 271 895 271 895 244 871.5 c 128,-1,65
 217 848 217 848 196 848 c 1,53,54
EndSplineSet
EndChar

StartChar: four
Encoding: 52 52 23
Width: 1364
GlyphClass: 2
Flags: W
LayerCount: 2
Fore
SplineSet
1293 389 m 1,0,1
 1292 365 1292 365 1278 305 c 128,-1,2
 1264 245 1264 245 1255 224 c 1,3,-1
 1084 224 l 1,4,5
 1078 171 1078 171 1070 69 c 1,6,7
 1070 56 1070 56 1038 30 c 128,-1,8
 1006 4 1006 4 983 4 c 2,9,-1
 540 4 l 1,10,11
 679 595 679 595 736 1283 c 1,12,13
 736 1296 736 1296 768.5 1322 c 128,-1,14
 801 1348 801 1348 823 1348 c 2,15,-1
 1266 1348 l 1,16,17
 1166 931 1166 931 1100 389 c 1,18,-1
 1293 389 l 1,0,1
492 224 m 1,19,-1
 103 224 l 1,20,21
 77 283 77 283 57 384 c 1,22,23
 150 482 150 482 354.5 762.5 c 128,-1,24
 559 1043 559 1043 653 1202 c 1,25,26
 504 748 504 748 261 389 c 1,27,-1
 552 389 l 1,28,29
 552 364 552 364 522.5 295 c 128,-1,30
 493 226 493 226 492 224 c 1,19,-1
EndSplineSet
EndChar

StartChar: five
Encoding: 53 53 24
Width: 1365
GlyphClass: 2
Flags: W
LayerCount: 2
Fore
SplineSet
226 488 m 1,0,1
 346 177 346 177 509 69 c 1,2,3
 506 51 506 51 474.5 26.5 c 128,-1,4
 443 2 443 2 421 2 c 1,5,6
 254 21 254 21 102 86 c 1,7,8
 125 281 125 281 154 443 c 1,9,10
 179 466 179 466 226 488 c 1,0,1
548 -14 m 1,11,12
 771 189 771 189 771 381 c 0,13,14
 771 516 771 516 646 599.5 c 128,-1,15
 521 683 521 683 282 683 c 0,16,17
 239 683 239 683 194 680 c 1,18,19
 304 1098 304 1098 379 1271 c 0,20,21
 387 1290 387 1290 416.5 1319 c 128,-1,22
 446 1348 446 1348 465 1348 c 2,23,-1
 748 1348 l 1,24,25
 627 1110 627 1110 608 771 c 1,26,27
 652 775 652 775 718 775 c 128,-1,28
 784 775 784 775 856.5 765.5 c 128,-1,29
 929 756 929 756 1000 731.5 c 128,-1,30
 1071 707 1071 707 1120 668 c 1,31,32
 1232 582 1232 582 1232 423 c 0,33,34
 1232 178 1232 178 968 52 c 0,35,36
 818 -20 818 -20 640 -20 c 0,37,38
 583 -20 583 -20 548 -14 c 1,11,12
1091 896 m 1,39,40
 1052 1049 1052 1049 995.5 1127 c 128,-1,41
 939 1205 939 1205 820 1268 c 1,42,43
 827 1311 827 1311 850 1348 c 1,44,-1
 1246 1348 l 1,45,46
 1238 1159 1238 1159 1178 962 c 0,47,48
 1172 944 1172 944 1143 920 c 128,-1,49
 1114 896 1114 896 1091 896 c 1,39,40
EndSplineSet
EndChar

StartChar: six
Encoding: 54 54 25
Width: 1365
GlyphClass: 2
Flags: W
LayerCount: 2
Fore
SplineSet
1133 1362 m 1,0,1
 1000 1306 1000 1306 889.5 1203 c 128,-1,2
 779 1100 779 1100 706 972 c 0,3,4
 554 703 554 703 554 399 c 0,5,6
 554 223 554 223 608 71 c 1,7,8
 607 57 607 57 573.5 30.5 c 128,-1,9
 540 4 540 4 517 4 c 1,10,11
 329 41 329 41 221.5 187 c 128,-1,12
 114 333 114 333 114 540 c 0,13,14
 114 686 114 686 163 818 c 128,-1,15
 212 950 212 950 298 1050 c 128,-1,16
 384 1150 384 1150 497 1224 c 0,17,18
 727 1373 727 1373 1012 1373 c 0,19,20
 1078 1373 1078 1373 1133 1362 c 1,0,1
667 685 m 1,21,22
 719 752 719 752 798 787.5 c 128,-1,23
 877 823 877 823 963 823 c 0,24,25
 1099 823 1099 823 1193 740.5 c 128,-1,26
 1287 658 1287 658 1287 518 c 128,-1,27
 1287 378 1287 378 1231 275 c 128,-1,28
 1175 172 1175 172 1081 109 c 0,29,30
 889 -20 889 -20 627 -20 c 1,31,32
 695 0 695 0 759.5 83.5 c 128,-1,33
 824 167 824 167 862.5 277 c 128,-1,34
 901 387 901 387 901 484 c 0,35,36
 901 690 901 690 724 690 c 0,37,38
 700 690 700 690 667 685 c 1,21,22
EndSplineSet
EndChar

StartChar: seven
Encoding: 55 55 26
Width: 1365
GlyphClass: 2
Flags: W
LayerCount: 2
Fore
SplineSet
947 1283 m 0,0,1
 954 1298 954 1298 983.5 1323 c 128,-1,2
 1013 1348 1013 1348 1036 1348 c 2,3,-1
 1266 1348 l 1,4,5
 1266 1150 1266 1150 1176 949 c 0,6,7
 1115 815 1115 815 1028 665 c 128,-1,8
 941 515 941 515 900 438 c 1,9,10
 810 264 810 264 810 125 c 0,11,12
 810 107 810 107 814 69 c 1,13,14
 814 56 814 56 781.5 30 c 128,-1,15
 749 4 749 4 726 4 c 2,16,-1
 257 4 l 1,17,18
 249 42 249 42 249 80 c 0,19,20
 249 283 249 283 440 556 c 1,21,22
 526 677 526 677 616 794 c 0,23,24
 866 1115 866 1115 947 1283 c 0,0,1
278 868 m 1,25,26
 239 835 239 835 157 835 c 1,27,28
 195 1144 195 1144 230 1277 c 1,29,30
 239 1297 239 1297 266.5 1322.5 c 128,-1,31
 294 1348 294 1348 311 1348 c 2,32,-1
 943 1348 l 1,33,34
 665 1289 665 1289 499 1132 c 1,35,36
 396 1036 396 1036 278 868 c 1,25,26
EndSplineSet
EndChar

StartChar: eight
Encoding: 56 56 27
Width: 1365
GlyphClass: 2
Flags: W
LayerCount: 2
Fore
SplineSet
799 1368 m 1,0,1
 609 1236 609 1236 609 1098 c 0,2,3
 609 1006 609 1006 687 942 c 0,4,5
 751 890 751 890 864 834 c 1,6,7
 910 883 910 883 925.5 931 c 128,-1,8
 941 979 941 979 941 1046 c 0,9,10
 941 1211 941 1211 836 1283 c 1,11,12
 836 1297 836 1297 868 1323.5 c 128,-1,13
 900 1350 900 1350 924 1350 c 1,14,15
 1047 1342 1047 1342 1146 1272 c 1,16,17
 1254 1197 1254 1197 1254 1068 c 0,18,19
 1254 971 1254 971 1177 887.5 c 128,-1,20
 1100 804 1100 804 974 777 c 1,21,22
 1138 690 1138 690 1200 602 c 0,23,24
 1258 519 1258 519 1258 421 c 128,-1,25
 1258 323 1258 323 1222 248.5 c 128,-1,26
 1186 174 1186 174 1126.5 125 c 128,-1,27
 1067 76 1067 76 988 42 c 0,28,29
 841 -20 841 -20 658 -20 c 0,30,31
 612 -20 612 -20 576 -14 c 1,32,33
 683 31 683 31 747 100.5 c 128,-1,34
 811 170 811 170 811 254 c 0,35,36
 811 340 811 340 712 415 c 0,37,38
 669 448 669 448 629.5 470 c 128,-1,39
 590 492 590 492 553.5 513 c 128,-1,40
 517 534 517 534 496 546 c 1,41,42
 431 448 431 448 431 295.5 c 128,-1,43
 431 143 431 143 536 71 c 1,44,45
 535 51 535 51 503 27.5 c 128,-1,46
 471 4 471 4 449 4 c 1,47,48
 305 14 305 14 196 84 c 0,49,50
 75 161 75 161 75 313 c 0,51,52
 75 422 75 422 156 509 c 128,-1,53
 237 596 237 596 379 621 c 1,54,55
 294 686 294 686 245 761.5 c 128,-1,56
 196 837 196 837 196 937 c 128,-1,57
 196 1037 196 1037 240.5 1121 c 128,-1,58
 285 1205 285 1205 359 1259 c 0,59,60
 515 1373 515 1373 718 1373 c 0,61,62
 752 1373 752 1373 799 1368 c 1,0,1
EndSplineSet
EndChar

StartChar: nine
Encoding: 57 57 28
Width: 1365
GlyphClass: 2
Flags: W
LayerCount: 2
Fore
SplineSet
232 -25 m 1,0,1
 365 31 365 31 475.5 134 c 128,-1,2
 586 237 586 237 658 365 c 0,3,4
 811 634 811 634 811 938 c 0,5,6
 811 1114 811 1114 757 1266 c 1,7,8
 758 1280 758 1280 791.5 1306.5 c 128,-1,9
 825 1333 825 1333 848 1333 c 1,10,11
 1036 1296 1036 1296 1143.5 1150 c 128,-1,12
 1251 1004 1251 1004 1251 797 c 0,13,14
 1251 651 1251 651 1202 519 c 128,-1,15
 1153 387 1153 387 1067 287 c 128,-1,16
 981 187 981 187 868 114 c 0,17,18
 638 -36 638 -36 353 -36 c 0,19,20
 287 -36 287 -36 232 -25 c 1,0,1
698 652 m 1,21,22
 646 585 646 585 567 549.5 c 128,-1,23
 488 514 488 514 402 514 c 0,24,25
 266 514 266 514 172 596.5 c 128,-1,26
 78 679 78 679 78 819 c 128,-1,27
 78 959 78 959 134 1062 c 128,-1,28
 190 1165 190 1165 284 1228 c 0,29,30
 476 1357 476 1357 738 1357 c 1,31,32
 670 1337 670 1337 605.5 1253.5 c 128,-1,33
 541 1170 541 1170 502.5 1060 c 128,-1,34
 464 950 464 950 464 853 c 0,35,36
 464 647 464 647 641 647 c 0,37,38
 665 647 665 647 698 652 c 1,21,22
EndSplineSet
EndChar

StartChar: semicolon
Encoding: 59 59 30
Width: 682
GlyphClass: 2
Flags: W
LayerCount: 2
Fore
SplineSet
202 731 m 128,-1,1
 143 773 143 773 143 834 c 128,-1,2
 143 895 143 895 188 939 c 0,3,4
 272 1023 272 1023 412 1023 c 0,5,6
 513 1023 513 1023 572.5 980 c 128,-1,7
 632 937 632 937 632 866.5 c 128,-1,8
 632 796 632 796 552.5 742.5 c 128,-1,9
 473 689 473 689 367 689 c 128,-1,0
 261 689 261 689 202 731 c 128,-1,1
92 11 m 128,-1,11
 33 53 33 53 33 114 c 128,-1,12
 33 175 33 175 74 219 c 0,13,14
 151 303 151 303 280 303 c 128,-1,15
 409 303 409 303 467.5 245 c 128,-1,16
 526 187 526 187 526 105.5 c 128,-1,17
 526 24 526 24 498 -51.5 c 128,-1,18
 470 -127 470 -127 427 -180 c 0,19,20
 330 -299 330 -299 236 -299 c 0,21,22
 193 -299 193 -299 126 -262 c 128,-1,23
 59 -225 59 -225 21 -189 c 1,24,25
 112 -177 112 -177 184.5 -133.5 c 128,-1,26
 257 -90 257 -90 294 -28 c 1,27,28
 273 -31 273 -31 253 -31 c 0,29,10
 151 -31 151 -31 92 11 c 128,-1,11
EndSplineSet
EndChar

StartChar: less
Encoding: 60 60 31
Width: 1365
GlyphClass: 2
Flags: W
LayerCount: 2
Fore
SplineSet
985 86 m 1,0,1
 624 291 624 291 224 478 c 1,2,3
 224 575 224 575 238 640 c 1,4,5
 509 748 509 748 683 825 c 128,-1,6
 857 902 857 902 1141 1040 c 1,7,-1
 1141 933 l 2,8,9
 1141 911 1141 911 1115.5 881 c 128,-1,10
 1090 851 1090 851 1075 845 c 0,11,12
 713 699 713 699 400 559 c 1,13,14
 705 383 705 383 1051 229 c 1,15,-1
 1051 174 l 2,16,17
 1051 152 1051 152 1025.5 122.5 c 128,-1,18
 1000 93 1000 93 985 86 c 1,0,1
EndSplineSet
EndChar

StartChar: equal
Encoding: 61 61 32
Width: 1365
GlyphClass: 2
Flags: W
LayerCount: 2
Fore
SplineSet
1079 247 m 0,0,1
 654 247 654 247 187 232 c 1,2,-1
 187 296 l 2,3,4
 187 321 187 321 209.5 352 c 128,-1,5
 232 383 232 383 245 384 c 1,6,7
 719 384 719 384 1137 399 c 1,8,-1
 1137 335 l 2,9,10
 1137 310 1137 310 1114.5 278.5 c 128,-1,11
 1092 247 1092 247 1079 247 c 0,0,1
1120 707 m 0,12,13
 695 707 695 707 228 692 c 1,14,-1
 228 756 l 2,15,16
 228 781 228 781 250.5 812 c 128,-1,17
 273 843 273 843 286 844 c 1,18,19
 760 844 760 844 1178 859 c 1,20,-1
 1178 795 l 2,21,22
 1178 770 1178 770 1155.5 738.5 c 128,-1,23
 1133 707 1133 707 1120 707 c 0,12,13
EndSplineSet
EndChar

StartChar: greater
Encoding: 62 62 33
Width: 1365
GlyphClass: 2
Flags: W
LayerCount: 2
Fore
SplineSet
380 1040 m 1,0,1
 741 835 741 835 1141 648 c 1,2,3
 1141 551 1141 551 1127 486 c 1,4,5
 856 378 856 378 682 301 c 128,-1,6
 508 224 508 224 224 86 c 1,7,-1
 224 193 l 2,8,9
 224 215 224 215 249.5 245 c 128,-1,10
 275 275 275 275 290 281 c 0,11,12
 652 427 652 427 965 567 c 1,13,14
 660 743 660 743 314 897 c 1,15,-1
 314 952 l 2,16,17
 314 974 314 974 339.5 1003.5 c 128,-1,18
 365 1033 365 1033 380 1040 c 1,0,1
EndSplineSet
EndChar

StartChar: question
Encoding: 63 63 34
Width: 1197
GlyphClass: 2
Flags: W
LayerCount: 2
Fore
SplineSet
731 460 m 1,0,1
 716 438 716 438 688 417.5 c 128,-1,2
 660 397 660 397 643 396 c 2,3,-1
 318 384 l 1,4,5
 340 548 340 548 427 674 c 0,6,7
 483 755 483 755 561.5 843 c 128,-1,8
 640 931 640 931 675 978 c 0,9,10
 752 1083 752 1083 752 1198 c 0,11,12
 752 1245 752 1245 734 1284 c 1,13,14
 735 1298 735 1298 766.5 1323 c 128,-1,15
 798 1348 798 1348 821 1350 c 1,16,17
 1000 1327 1000 1327 1101 1245 c 128,-1,18
 1202 1163 1202 1163 1202 1038 c 0,19,20
 1202 929 1202 929 1076 816 c 0,21,22
 1020 765 1020 765 960 715 c 0,23,24
 801 584 801 584 731 460 c 1,0,1
131 838 m 1,25,26
 160 1116 160 1116 203 1242 c 1,27,28
 215 1261 215 1261 239 1285 c 128,-1,29
 263 1309 263 1309 285 1316 c 0,30,31
 469 1371 469 1371 732 1373 c 1,32,33
 474 1243 474 1243 242 914 c 0,34,35
 231 898 231 898 191.5 868 c 128,-1,36
 152 838 152 838 131 838 c 1,25,26
277 22 m 128,-1,38
 218 64 218 64 218 125 c 128,-1,39
 218 186 218 186 262 230 c 1,40,41
 348 313 348 313 488 313 c 0,42,43
 589 313 589 313 648.5 270.5 c 128,-1,44
 708 228 708 228 708 157.5 c 128,-1,45
 708 87 708 87 628 33.5 c 128,-1,46
 548 -20 548 -20 442 -20 c 128,-1,37
 336 -20 336 -20 277 22 c 128,-1,38
EndSplineSet
EndChar

StartChar: at
Encoding: 64 64 35
Width: 2211
GlyphClass: 2
Flags: W
LayerCount: 2
Fore
SplineSet
1422 0 m 0,0,1
 1150 0 1150 0 1150 139 c 0,2,3
 1150 209 1150 209 1195 523.5 c 128,-1,4
 1240 838 1240 838 1241 940 c 0,5,6
 1241 953 1241 953 1274 979 c 128,-1,7
 1307 1005 1307 1005 1329 1005 c 0,8,9
 1543 1005 1543 1005 1732 948 c 1,10,11
 1721 889 1721 889 1686 716 c 0,12,13
 1616 372 1616 372 1616 243 c 0,14,15
 1616 162 1616 162 1681 162 c 0,16,17
 1789 162 1789 162 1866 265 c 0,18,19
 1951 380 1951 380 1951 631 c 0,20,21
 1951 920 1951 920 1756 1071 c 128,-1,22
 1561 1222 1561 1222 1166 1222 c 0,23,24
 881 1222 881 1222 656 1090 c 1,25,26
 412 945 412 945 320 701 c 0,27,28
 270 568 270 568 270 414 c 0,29,30
 270 -200 270 -200 1163 -200 c 0,31,32
 1338 -200 1338 -200 1528 -155 c 128,-1,33
 1718 -110 1718 -110 1855 -49 c 1,34,35
 1843 -144 1843 -144 1803 -200 c 1,36,37
 1502 -308 1502 -308 1112 -308 c 0,38,39
 383 -308 383 -308 204 131 c 0,40,41
 153 256 153 256 153 439.5 c 128,-1,42
 153 623 153 623 234.5 798 c 128,-1,43
 316 973 316 973 455 1089.5 c 128,-1,44
 594 1206 594 1206 779.5 1270.5 c 128,-1,45
 965 1335 965 1335 1176.5 1335 c 128,-1,46
 1388 1335 1388 1335 1551.5 1294 c 128,-1,47
 1715 1253 1715 1253 1832 1167 c 0,48,49
 2070 993 2070 993 2070 613 c 0,50,51
 2070 0 2070 0 1422 0 c 0,0,1
1157 1019 m 1,52,53
 1038 931 1038 931 976.5 780 c 128,-1,54
 915 629 915 629 915 483.5 c 128,-1,55
 915 338 915 338 947.5 222.5 c 128,-1,56
 980 107 980 107 1035 68 c 1,57,58
 1035 53 1035 53 1003 26.5 c 128,-1,59
 971 0 971 0 948 0 c 0,60,61
 719 0 719 0 580.5 115 c 128,-1,62
 442 230 442 230 442 429 c 0,63,64
 442 676 442 676 630 844 c 1,65,66
 719 925 719 925 855.5 972 c 128,-1,67
 992 1019 992 1019 1157 1019 c 1,52,53
EndSplineSet
EndChar

StartChar: A
Encoding: 65 65 36
Width: 1365
GlyphClass: 2
Flags: W
LayerCount: 2
Fore
SplineSet
1163 0 m 2,0,-1
 698 0 l 1,1,2
 620 622 620 622 501 1080 c 1,3,4
 559 1198 559 1198 600 1296 c 0,5,6
 607 1311 607 1311 636.5 1336 c 128,-1,7
 666 1361 666 1361 687 1361 c 2,8,-1
 1005 1361 l 1,9,10
 1046 1059 1046 1059 1115.5 688.5 c 128,-1,11
 1185 318 1185 318 1251 66 c 1,12,13
 1251 53 1251 53 1219 26.5 c 128,-1,14
 1187 0 1187 0 1163 0 c 2,0,-1
364 177 m 1,15,-1
 367 66 l 2,16,17
 367 53 367 53 334.5 26.5 c 128,-1,18
 302 0 302 0 279 0 c 2,19,-1
 -40 0 l 1,20,21
 118 268 118 268 450 982 c 1,22,23
 459 956 459 956 459 909.5 c 128,-1,24
 459 863 459 863 445.5 775 c 128,-1,25
 432 687 432 687 411 567.5 c 128,-1,26
 390 448 390 448 380 374 c 1,27,28
 524 352 524 352 589 325 c 1,29,30
 589 265 589 265 569 236 c 1,31,32
 465 227 465 227 364 209 c 1,33,-1
 364 177 l 1,15,-1
EndSplineSet
EndChar

StartChar: B
Encoding: 66 66 37
Width: 1535
GlyphClass: 2
Flags: W
LayerCount: 2
Fore
SplineSet
103 4 m 1,0,1
 235 535 235 535 298 1285 c 1,2,3
 298 1297 298 1297 330 1322.5 c 128,-1,4
 362 1348 362 1348 385 1349 c 0,5,6
 685 1374 685 1374 842 1374 c 1,7,8
 699 758 699 758 645 59 c 1,9,10
 645 45 645 45 613 18.5 c 128,-1,11
 581 -8 581 -8 557 -8 c 0,12,13
 383 -8 383 -8 103 4 c 1,0,1
701 -2 m 1,14,15
 811 37 811 37 894 162.5 c 128,-1,16
 977 288 977 288 977 415 c 0,17,18
 977 587 977 587 819 652 c 1,19,20
 803 662 803 662 803 685 c 0,21,22
 803 739 803 739 835 748 c 0,23,24
 906 767 906 767 956 874.5 c 128,-1,25
 1006 982 1006 982 1006 1113.5 c 128,-1,26
 1006 1245 1006 1245 922 1307 c 1,27,28
 922 1322 922 1322 956 1349 c 128,-1,29
 990 1376 990 1376 1014 1376 c 1,30,31
 1332 1355 1332 1355 1424 1176 c 0,32,33
 1452 1122 1452 1122 1452 1053 c 128,-1,34
 1452 984 1452 984 1417.5 925 c 128,-1,35
 1383 866 1383 866 1329.5 826.5 c 128,-1,36
 1276 787 1276 787 1204 757 c 0,37,38
 1074 703 1074 703 928 688 c 1,39,40
 988 692 988 692 1026 692 c 0,41,42
 1216 692 1216 692 1324 612.5 c 128,-1,43
 1432 533 1432 533 1432 386 c 0,44,45
 1432 301 1432 301 1395.5 231 c 128,-1,46
 1359 161 1359 161 1300.5 115.5 c 128,-1,47
 1242 70 1242 70 1164 38 c 0,48,49
 1021 -20 1021 -20 847 -20 c 0,50,51
 771 -20 771 -20 701 -2 c 1,14,15
EndSplineSet
EndChar

StartChar: C
Encoding: 67 67 38
Width: 1535
GlyphClass: 2
Flags: W
LayerCount: 2
Fore
SplineSet
1263 755 m 1,0,1
 1225 941 1225 941 1175 1064.5 c 128,-1,2
 1125 1188 1125 1188 1031 1295 c 1,3,4
 1033 1313 1033 1313 1065 1337 c 128,-1,5
 1097 1361 1097 1361 1119 1361 c 1,6,7
 1293 1342 1293 1342 1443 1289 c 1,8,9
 1441 1231 1441 1231 1418 1073 c 128,-1,10
 1395 915 1395 915 1373 822 c 0,11,12
 1369 806 1369 806 1328 780.5 c 128,-1,13
 1287 755 1287 755 1263 755 c 1,0,1
1356 505 m 1,14,15
 1337 298 1337 298 1293 91 c 1,16,17
 1237 41 1237 41 1109 10.5 c 128,-1,18
 981 -20 981 -20 816 -20 c 1,19,20
 961 84 961 84 1048.5 188.5 c 128,-1,21
 1136 293 1136 293 1226 448 c 1,22,23
 1248 470 1248 470 1289.5 487.5 c 128,-1,24
 1331 505 1331 505 1356 505 c 1,14,15
742.5 1022.5 m 128,-1,26
 660 785 660 785 660 509.5 c 128,-1,27
 660 234 660 234 754 48 c 1,28,29
 754 33 754 33 722 6.5 c 128,-1,30
 690 -20 690 -20 666 -20 c 1,31,32
 451 19 451 19 301 176 c 0,33,34
 228 253 228 253 185.5 360.5 c 128,-1,35
 143 468 143 468 143 589.5 c 128,-1,36
 143 711 143 711 173 824.5 c 128,-1,37
 203 938 203 938 267.5 1040.5 c 128,-1,38
 332 1143 332 1143 424 1220 c 0,39,40
 622 1387 622 1387 933 1387 c 0,41,42
 957 1387 957 1387 971 1386 c 1,43,25
 825 1260 825 1260 742.5 1022.5 c 128,-1,26
EndSplineSet
EndChar

StartChar: D
Encoding: 68 68 39
Width: 1705
GlyphClass: 2
Flags: W
LayerCount: 2
Fore
SplineSet
746 -20 m 1,0,1
 834 43 834 43 909 186 c 128,-1,2
 984 329 984 329 1027.5 511 c 128,-1,3
 1071 693 1071 693 1071 868 c 0,4,5
 1071 1145 1071 1145 963 1307 c 1,6,7
 963 1322 963 1322 995 1349 c 128,-1,8
 1027 1376 1027 1376 1050 1376 c 0,9,10
 1158 1376 1158 1376 1255.5 1331.5 c 128,-1,11
 1353 1287 1353 1287 1425 1208 c 128,-1,12
 1497 1129 1497 1129 1539.5 1012.5 c 128,-1,13
 1582 896 1582 896 1582 768 c 128,-1,14
 1582 640 1582 640 1550.5 528 c 128,-1,15
 1519 416 1519 416 1451.5 316 c 128,-1,16
 1384 216 1384 216 1287.5 141.5 c 128,-1,17
 1191 67 1191 67 1051.5 23.5 c 128,-1,18
 912 -20 912 -20 746 -20 c 1,0,1
597 -8 m 0,19,20
 425 -8 425 -8 143 4 c 1,21,22
 278 547 278 547 338 1285 c 0,23,24
 338 1297 338 1297 370.5 1322 c 128,-1,25
 403 1347 403 1347 426 1349 c 0,26,27
 724 1374 724 1374 882 1374 c 1,28,29
 741 766 741 766 685 59 c 1,30,31
 685 45 685 45 653 18.5 c 128,-1,32
 621 -8 621 -8 597 -8 c 0,19,20
EndSplineSet
EndChar

StartChar: E
Encoding: 69 69 40
Width: 1364
GlyphClass: 2
Flags: W
LayerCount: 2
Fore
SplineSet
718 692 m 1,0,1
 956 666 956 666 1066 633 c 1,2,3
 1066 578 1066 578 1043 552 c 1,4,5
 879 542 879 542 691 500 c 1,6,7
 664 290 664 290 646 66 c 1,8,9
 646 53 646 53 614 26.5 c 128,-1,10
 582 0 582 0 559 0 c 2,11,-1
 93 0 l 1,12,13
 227 485 227 485 291 1296 c 1,14,15
 291 1309 291 1309 324 1335 c 128,-1,16
 357 1361 357 1361 380 1361 c 2,17,-1
 844 1361 l 1,18,19
 768 1031 768 1031 718 692 c 1,0,1
1148 755 m 1,20,21
 1124 906 1124 906 1057 1056 c 128,-1,22
 990 1206 990 1206 922 1281 c 1,23,24
 927 1329 927 1329 951 1361 c 1,25,-1
 1314 1361 l 1,26,27
 1307 1264 1307 1264 1284 1100.5 c 128,-1,28
 1261 937 1261 937 1235 822 c 0,29,30
 1231 805 1231 805 1201 780 c 128,-1,31
 1171 755 1171 755 1148 755 c 1,20,21
1102 411 m 1,32,33
 1113 425 1113 425 1152 451 c 128,-1,34
 1191 477 1191 477 1213 477 c 1,35,36
 1179 180 1179 180 1149 72 c 1,37,38
 1140 52 1140 52 1113 26 c 128,-1,39
 1086 0 1086 0 1069 0 c 2,40,-1
 702 0 l 1,41,42
 948 165 948 165 1102 411 c 1,32,33
EndSplineSet
EndChar

StartChar: F
Encoding: 70 70 41
Width: 1365
GlyphClass: 2
Flags: W
LayerCount: 2
Fore
SplineSet
559 0 m 2,0,-1
 93 0 l 1,1,2
 227 485 227 485 291 1296 c 1,3,4
 291 1309 291 1309 324 1335 c 128,-1,5
 357 1361 357 1361 380 1361 c 2,6,-1
 844 1361 l 1,7,8
 767 1036 767 1036 715 668 c 1,9,10
 793 661 793 661 912.5 642 c 128,-1,11
 1032 623 1032 623 1076 609 c 1,12,13
 1076 552 1076 552 1055 527 c 1,14,15
 863 515 863 515 687 471 c 1,16,17
 666 300 666 300 646 66 c 1,18,19
 646 53 646 53 614 26.5 c 128,-1,20
 582 0 582 0 559 0 c 2,0,-1
1148 755 m 1,21,22
 1124 906 1124 906 1057 1056 c 128,-1,23
 990 1206 990 1206 922 1281 c 1,24,25
 927 1329 927 1329 951 1361 c 1,26,-1
 1314 1361 l 1,27,28
 1307 1264 1307 1264 1284 1100.5 c 128,-1,29
 1261 937 1261 937 1235 822 c 0,30,31
 1231 805 1231 805 1201 780 c 128,-1,32
 1171 755 1171 755 1148 755 c 1,21,22
EndSplineSet
EndChar

StartChar: G
Encoding: 71 71 42
Width: 1535
GlyphClass: 2
Flags: W
LayerCount: 2
Fore
SplineSet
832 523 m 1,0,1
 835 548 835 548 850.5 580.5 c 128,-1,2
 866 613 866 613 885 614 c 0,3,4
 1105 625 1105 625 1403 625 c 1,5,6
 1374 327 1374 327 1323 114 c 1,7,8
 1311 98 1311 98 1273 68.5 c 128,-1,9
 1235 39 1235 39 1219 31 c 1,10,11
 1162 14 1162 14 1045 -3 c 128,-1,12
 928 -20 928 -20 816 -20 c 1,13,14
 892 21 892 21 974.5 147.5 c 128,-1,15
 1057 274 1057 274 1057 343.5 c 128,-1,16
 1057 413 1057 413 984 468 c 128,-1,17
 911 523 911 523 832 523 c 1,0,1
1263 755 m 1,18,19
 1225 941 1225 941 1175 1064.5 c 128,-1,20
 1125 1188 1125 1188 1031 1295 c 1,21,22
 1033 1313 1033 1313 1065 1337 c 128,-1,23
 1097 1361 1097 1361 1119 1361 c 1,24,25
 1294 1342 1294 1342 1444 1289 c 1,26,27
 1442 1232 1442 1232 1418.5 1074 c 128,-1,28
 1395 916 1395 916 1373 822 c 0,29,30
 1369 806 1369 806 1328.5 780.5 c 128,-1,31
 1288 755 1288 755 1263 755 c 1,18,19
743 1022.5 m 128,-1,33
 661 785 661 785 661 510.5 c 128,-1,34
 661 236 661 236 754 48 c 1,35,36
 754 33 754 33 722.5 6.5 c 128,-1,37
 691 -20 691 -20 666 -20 c 1,38,39
 451 19 451 19 301 176 c 0,40,41
 228 253 228 253 185.5 360.5 c 128,-1,42
 143 468 143 468 143 589.5 c 128,-1,43
 143 711 143 711 173 824.5 c 128,-1,44
 203 938 203 938 267.5 1040.5 c 128,-1,45
 332 1143 332 1143 423.5 1220 c 128,-1,46
 515 1297 515 1297 646.5 1342 c 128,-1,47
 778 1387 778 1387 934 1387 c 0,48,49
 957 1387 957 1387 971 1386 c 1,50,32
 825 1260 825 1260 743 1022.5 c 128,-1,33
EndSplineSet
EndChar

StartChar: H
Encoding: 72 72 43
Width: 1707
GlyphClass: 2
Flags: W
LayerCount: 2
Fore
SplineSet
588 0 m 2,0,-1
 133 0 l 1,1,2
 274 606 274 606 329 1296 c 1,3,4
 329 1309 329 1309 361.5 1335 c 128,-1,5
 394 1361 394 1361 417 1361 c 2,6,-1
 871 1361 l 1,7,8
 798 1053 798 1053 747 701 c 1,9,10
 885 674 885 674 924 659 c 1,11,12
 924 597 924 597 901 568 c 1,13,14
 798 560 798 560 725 545 c 1,15,16
 694 301 694 301 675 66 c 1,17,18
 675 53 675 53 643 26.5 c 128,-1,19
 611 0 611 0 588 0 c 2,0,-1
1331 0 m 2,20,-1
 877 0 l 1,21,22
 1016 595 1016 595 1073 1296 c 1,23,24
 1073 1309 1073 1309 1105 1335 c 128,-1,25
 1137 1361 1137 1361 1160 1361 c 2,26,-1
 1614 1361 l 1,27,28
 1475 769 1475 769 1418 66 c 1,29,30
 1418 53 1418 53 1385.5 26.5 c 128,-1,31
 1353 0 1353 0 1331 0 c 2,20,-1
EndSplineSet
EndChar

StartChar: I
Encoding: 73 73 44
Width: 852
GlyphClass: 2
Flags: W
LayerCount: 2
Fore
SplineSet
537 0 m 2,0,-1
 72 0 l 1,1,2
 210 597 210 597 267 1296 c 1,3,4
 267 1309 267 1309 299.5 1335 c 128,-1,5
 332 1361 332 1361 355 1361 c 2,6,-1
 820 1361 l 1,7,8
 681 769 681 769 624 66 c 1,9,10
 624 53 624 53 592 26.5 c 128,-1,11
 560 0 560 0 537 0 c 2,0,-1
EndSplineSet
EndChar

StartChar: J
Encoding: 74 74 45
Width: 1195
GlyphClass: 2
Flags: W
LayerCount: 2
Fore
SplineSet
480 -20 m 1,0,1
 504 155 504 155 509 383.5 c 128,-1,2
 514 612 514 612 522.5 848.5 c 128,-1,3
 531 1085 531 1085 564 1295 c 1,4,5
 564 1309 564 1309 596.5 1335 c 128,-1,6
 629 1361 629 1361 651 1361 c 2,7,-1
 1117 1361 l 1,8,9
 1045 1056 1045 1056 1026 870 c 128,-1,10
 1007 684 1007 684 996 576 c 128,-1,11
 985 468 985 468 975 396 c 128,-1,12
 965 324 965 324 944 255.5 c 128,-1,13
 923 187 923 187 891 144.5 c 128,-1,14
 859 102 859 102 804 66 c 0,15,16
 708 2 708 2 480 -20 c 1,0,1
74 351 m 0,17,18
 77 366 77 366 108.5 391.5 c 128,-1,19
 140 417 140 417 161 417 c 1,20,21
 204 298 204 298 261.5 215 c 128,-1,22
 319 132 319 132 409 72 c 1,23,24
 406 19 406 19 391 -20 c 1,25,26
 212 -20 212 -20 33 56 c 1,27,28
 36 186 36 186 74 351 c 0,17,18
EndSplineSet
EndChar

StartChar: K
Encoding: 75 75 46
Width: 1535
GlyphClass: 2
Flags: W
LayerCount: 2
Fore
SplineSet
566 0 m 2,0,-1
 113 0 l 1,1,2
 247 540 247 540 309 1295 c 1,3,4
 309 1309 309 1309 341.5 1335 c 128,-1,5
 374 1361 374 1361 396 1361 c 2,6,-1
 851 1361 l 1,7,8
 709 758 709 758 655 67 c 1,9,10
 655 53 655 53 622.5 26.5 c 128,-1,11
 590 0 590 0 566 0 c 2,0,-1
1381 493 m 1,12,-1
 1367 248 l 1,13,14
 1367 194 1367 194 1387 161 c 128,-1,15
 1407 128 1407 128 1461 120 c 1,16,17
 1451 57 1451 57 1428 17 c 1,18,19
 1247 -25 1247 -25 1096 -25 c 0,20,21
 860 -25 860 -25 860 143 c 0,22,23
 860 207 860 207 882.5 331.5 c 128,-1,24
 905 456 905 456 905 503 c 0,25,26
 905 628 905 628 816 638 c 1,27,28
 855 771 855 771 1127 1295 c 0,29,30
 1136 1313 1136 1313 1164 1337 c 128,-1,31
 1192 1361 1192 1361 1215 1361 c 2,32,-1
 1581 1361 l 1,33,34
 1311 977 1311 977 1011 717 c 1,35,36
 1054 720 1054 720 1093 720 c 0,37,38
 1246 720 1246 720 1313.5 663.5 c 128,-1,39
 1381 607 1381 607 1381 493 c 1,12,-1
EndSplineSet
EndChar

StartChar: L
Encoding: 76 76 47
Width: 1365
GlyphClass: 2
Flags: W
LayerCount: 2
Fore
SplineSet
599 0 m 2,0,-1
 133 0 l 1,1,2
 267 485 267 485 331 1296 c 1,3,4
 331 1309 331 1309 364 1335 c 128,-1,5
 397 1361 397 1361 420 1361 c 2,6,-1
 884 1361 l 1,7,8
 742 756 742 756 686 67 c 1,9,10
 686 54 686 54 654 27 c 128,-1,11
 622 0 622 0 599 0 c 2,0,-1
1134 501 m 0,12,13
 1149 530 1149 530 1191 553 c 128,-1,14
 1233 576 1233 576 1268 576 c 1,15,16
 1219 148 1219 148 1197 73 c 1,17,18
 1188 52 1188 52 1161 26 c 128,-1,19
 1134 0 1134 0 1117 0 c 2,20,-1
 732 0 l 1,21,22
 851 89 851 89 956 222.5 c 128,-1,23
 1061 356 1061 356 1134 501 c 0,12,13
EndSplineSet
EndChar

StartChar: M
Encoding: 77 77 48
Width: 1705
GlyphClass: 2
Flags: W
LayerCount: 2
Fore
SplineSet
1494 0 m 2,0,-1
 1053 0 l 1,1,2
 1059 246 1059 246 1059 501 c 128,-1,3
 1059 756 1059 756 1034 1080 c 1,4,5
 1068 1151 1068 1151 1129 1296 c 0,6,7
 1136 1312 1136 1312 1165 1336.5 c 128,-1,8
 1194 1361 1194 1361 1216 1361 c 2,9,-1
 1522 1361 l 1,10,11
 1515 1229 1515 1229 1515 1068 c 0,12,13
 1515 564 1515 564 1582 66 c 1,14,15
 1582 53 1582 53 1550 26.5 c 128,-1,16
 1518 0 1518 0 1494 0 c 2,0,-1
808 52 m 1,17,18
 801 37 801 37 777 18.5 c 128,-1,19
 753 0 753 0 739 0 c 2,20,-1
 580 0 l 1,21,22
 538 249 538 249 471 524 c 128,-1,23
 404 799 404 799 338 977 c 1,24,25
 342 1000 342 1000 364.5 1117.5 c 128,-1,26
 387 1235 387 1235 396 1296 c 0,27,28
 399 1310 399 1310 430 1335.5 c 128,-1,29
 461 1361 461 1361 483 1361 c 2,30,-1
 774 1361 l 1,31,32
 843 961 843 961 888.5 820.5 c 128,-1,33
 934 680 934 680 972 596 c 1,34,35
 876 309 876 309 808 52 c 1,17,18
316 723 m 1,36,37
 321 473 321 473 334.5 341 c 128,-1,38
 348 209 348 209 393 66 c 1,39,40
 393 53 393 53 360.5 26.5 c 128,-1,41
 328 0 328 0 304 0 c 2,42,-1
 -15 0 l 1,43,44
 84 236 84 236 140 382.5 c 128,-1,45
 196 529 196 529 229 658 c 1,46,47
 229 671 229 671 261 697 c 128,-1,48
 293 723 293 723 316 723 c 1,36,37
EndSplineSet
EndChar

StartChar: N
Encoding: 78 78 49
Width: 1535
GlyphClass: 2
Flags: W
LayerCount: 2
Fore
SplineSet
1263 66 m 0,0,1
 1263 53 1263 53 1231 26.5 c 128,-1,2
 1199 0 1199 0 1176 0 c 2,3,-1
 918 0 l 1,4,5
 805 205 805 205 616.5 467 c 128,-1,6
 428 729 428 729 273 906 c 1,7,8
 286 1013 286 1013 313 1296 c 1,9,10
 316 1310 316 1310 347.5 1335.5 c 128,-1,11
 379 1361 379 1361 400 1361 c 2,12,-1
 661 1361 l 1,13,14
 794 1127 794 1127 945.5 918 c 128,-1,15
 1097 709 1097 709 1299 462 c 1,16,17
 1273 222 1273 222 1263 66 c 0,0,1
1246 637 m 1,18,19
 1198 884 1198 884 1158.5 1025.5 c 128,-1,20
 1119 1167 1119 1167 1052 1296 c 1,21,22
 1052 1309 1052 1309 1084.5 1335 c 128,-1,23
 1117 1361 1117 1361 1141 1361 c 2,24,-1
 1459 1361 l 1,25,26
 1392 1072 1392 1072 1334 704 c 1,27,28
 1334 690 1334 690 1302 663.5 c 128,-1,29
 1270 637 1270 637 1246 637 c 1,18,19
327 711 m 1,30,31
 353 501 353 501 398 359.5 c 128,-1,32
 443 218 443 218 523 66 c 1,33,34
 523 53 523 53 491 26.5 c 128,-1,35
 459 0 459 0 435 0 c 2,36,-1
 117 0 l 1,37,38
 184 291 184 291 239 645 c 1,39,40
 239 658 239 658 271.5 684.5 c 128,-1,41
 304 711 304 711 327 711 c 1,30,31
EndSplineSet
EndChar

StartChar: O
Encoding: 79 79 50
Width: 1535
GlyphClass: 2
Flags: W
LayerCount: 2
Fore
SplineSet
689 -20 m 1,0,1
 835 102 835 102 906.5 336 c 128,-1,2
 978 570 978 570 978 828.5 c 128,-1,3
 978 1087 978 1087 925 1296 c 1,4,5
 925 1310 925 1310 957.5 1336.5 c 128,-1,6
 990 1363 990 1363 1013 1363 c 1,7,8
 1158 1335 1158 1335 1260 1242 c 0,9,10
 1454 1065 1454 1065 1454 751 c 0,11,12
 1454 512 1454 512 1334 320 c 1,13,14
 1201 105 1201 105 968 24 c 0,15,16
 840 -20 840 -20 689 -20 c 1,0,1
888 1387 m 1,17,18
 741 1264 741 1264 669 1031 c 128,-1,19
 597 798 597 798 597 538 c 128,-1,20
 597 278 597 278 652 72 c 1,21,22
 652 58 652 58 619.5 31 c 128,-1,23
 587 4 587 4 563 4 c 1,24,25
 343 48 343 48 230 224 c 0,26,27
 122 393 122 393 122 615 c 0,28,29
 122 854 122 854 242 1048 c 0,30,31
 374 1261 374 1261 608 1342 c 0,32,33
 736 1387 736 1387 888 1387 c 1,17,18
EndSplineSet
EndChar

StartChar: P
Encoding: 80 80 51
Width: 1535
GlyphClass: 2
Flags: W
LayerCount: 2
Fore
SplineSet
805 459 m 1,0,1
 907 569 907 569 964.5 707 c 128,-1,2
 1022 845 1022 845 1022 1001.5 c 128,-1,3
 1022 1158 1022 1158 940 1308 c 1,4,5
 940 1322 940 1322 972.5 1349 c 128,-1,6
 1005 1376 1005 1376 1028 1376 c 1,7,8
 1249 1361 1249 1361 1374 1246.5 c 128,-1,9
 1499 1132 1499 1132 1499 954 c 0,10,11
 1499 844 1499 844 1447.5 748 c 128,-1,12
 1396 652 1396 652 1312 588 c 0,13,14
 1130 452 1130 452 897 452 c 0,15,16
 840 452 840 452 805 459 c 1,0,1
675 67 m 1,17,18
 675 53 675 53 643 26.5 c 128,-1,19
 611 0 611 0 587 0 c 2,20,-1
 133 0 l 1,21,22
 270 552 270 552 328 1285 c 1,23,24
 328 1298 328 1298 360 1323.5 c 128,-1,25
 392 1349 392 1349 415 1350 c 0,26,27
 735 1374 735 1374 873 1374 c 1,28,29
 730 761 730 761 675 67 c 1,17,18
EndSplineSet
EndChar

StartChar: Q
Encoding: 81 81 52
Width: 1535
GlyphClass: 2
Flags: W
LayerCount: 2
Fore
SplineSet
619 -138 m 1,0,-1
 958 -145 l 1,1,2
 1097 -145 1097 -145 1295 -104 c 1,3,4
 1311 -140 1311 -140 1315 -175 c 1,5,6
 1239 -320 1239 -320 1158.5 -386 c 128,-1,7
 1078 -452 1078 -452 968 -452 c 0,8,9
 851 -452 851 -452 652 -370 c 0,10,11
 448 -285 448 -285 271 -270 c 1,12,13
 277 -217 277 -217 301 -184 c 1,14,15
 433 -138 433 -138 619 -138 c 1,0,-1
689 -36 m 1,16,17
 835 86 835 86 906.5 320 c 128,-1,18
 978 554 978 554 978 812.5 c 128,-1,19
 978 1071 978 1071 925 1280 c 1,20,21
 925 1294 925 1294 957.5 1320.5 c 128,-1,22
 990 1347 990 1347 1013 1347 c 1,23,24
 1158 1319 1158 1319 1260 1226 c 0,25,26
 1454 1049 1454 1049 1454 735 c 0,27,28
 1454 496 1454 496 1334 304 c 1,29,30
 1201 89 1201 89 968 8 c 0,31,32
 840 -36 840 -36 689 -36 c 1,16,17
888 1371 m 1,33,34
 741 1248 741 1248 669 1015 c 128,-1,35
 597 782 597 782 597 522 c 128,-1,36
 597 262 597 262 652 56 c 1,37,38
 652 42 652 42 619.5 15 c 128,-1,39
 587 -12 587 -12 563 -12 c 1,40,41
 343 32 343 32 230 208 c 0,42,43
 122 377 122 377 122 599 c 0,44,45
 122 838 122 838 242 1032 c 0,46,47
 374 1245 374 1245 608 1326 c 0,48,49
 736 1371 736 1371 888 1371 c 1,33,34
EndSplineSet
EndChar

StartChar: R
Encoding: 82 82 53
Width: 1535
GlyphClass: 2
Flags: W
LayerCount: 2
Fore
SplineSet
645 66 m 1,0,1
 645 53 645 53 613 26.5 c 128,-1,2
 581 0 581 0 557 0 c 2,3,-1
 103 0 l 1,4,5
 240 552 240 552 298 1285 c 0,6,7
 298 1297 298 1297 330 1322.5 c 128,-1,8
 362 1348 362 1348 385 1349 c 0,9,10
 685 1374 685 1374 843 1374 c 1,11,12
 699 752 699 752 645 66 c 1,0,1
1371 450 m 1,13,-1
 1357 249 l 1,14,15
 1357 194 1357 194 1377 161 c 128,-1,16
 1397 128 1397 128 1451 120 c 1,17,18
 1441 57 1441 57 1418 17 c 1,19,20
 1239 -25 1239 -25 1113.5 -25 c 128,-1,21
 988 -25 988 -25 919.5 9.5 c 128,-1,22
 851 44 851 44 851 117 c 128,-1,23
 851 190 851 190 873.5 316.5 c 128,-1,24
 896 443 896 443 896 496.5 c 128,-1,25
 896 550 896 550 872 586 c 128,-1,26
 848 622 848 622 807 626 c 1,27,28
 812 671 812 671 841 706 c 1,29,30
 925 750 925 750 972 843 c 128,-1,31
 1019 936 1019 936 1019 1044 c 0,32,33
 1019 1206 1019 1206 922 1307 c 1,34,35
 922 1322 922 1322 954 1349 c 128,-1,36
 986 1376 986 1376 1009 1376 c 0,37,38
 1188 1376 1188 1376 1319 1302 c 0,39,40
 1385 1264 1385 1264 1424 1198 c 128,-1,41
 1463 1132 1463 1132 1463 1046 c 0,42,43
 1463 905 1463 905 1334 806 c 128,-1,44
 1205 707 1205 707 989 692 c 1,45,-1
 1079 684 l 1,46,47
 1211 671 1211 671 1291 614.5 c 128,-1,48
 1371 558 1371 558 1371 450 c 1,13,-1
EndSplineSet
EndChar

StartChar: S
Encoding: 83 83 54
Width: 1365
GlyphClass: 2
Flags: W
LayerCount: 2
Fore
SplineSet
310 1178 m 128,-1,1
 383 1280 383 1280 507.5 1339 c 128,-1,2
 632 1398 632 1398 780 1399 c 1,3,4
 701 1332 701 1332 701 1236.5 c 128,-1,5
 701 1141 701 1141 753.5 1045.5 c 128,-1,6
 806 950 806 950 876 883 c 128,-1,7
 946 816 946 816 984.5 776.5 c 128,-1,8
 1023 737 1023 737 1071.5 681.5 c 128,-1,9
 1120 626 1120 626 1148 582 c 0,10,11
 1217 475 1217 475 1217 394.5 c 128,-1,12
 1217 314 1217 314 1183.5 245 c 128,-1,13
 1150 176 1150 176 1088.5 119.5 c 128,-1,14
 1027 63 1027 63 931.5 26 c 128,-1,15
 836 -11 836 -11 721 -16 c 1,16,17
 753 30 753 30 753 80.5 c 128,-1,18
 753 131 753 131 732 183.5 c 128,-1,19
 711 236 711 236 668 296 c 0,20,21
 599 393 599 393 513.5 486 c 128,-1,22
 428 579 428 579 394.5 619 c 128,-1,23
 361 659 361 659 319 720 c 0,24,25
 237 838 237 838 237 957 c 128,-1,0
 237 1076 237 1076 310 1178 c 128,-1,1
1113 795 m 1,26,27
 1113 892 1113 892 1078 995 c 0,28,29
 1009 1196 1009 1196 848 1319 c 1,30,31
 850 1337 850 1337 882 1362 c 128,-1,32
 914 1387 914 1387 935 1387 c 0,33,34
 1008 1387 1008 1387 1105.5 1358 c 128,-1,35
 1203 1329 1203 1329 1260 1302 c 1,36,37
 1265 1272 1265 1272 1265 1197.5 c 128,-1,38
 1265 1123 1265 1123 1251 1011.5 c 128,-1,39
 1237 900 1237 900 1217 835 c 1,40,41
 1211 820 1211 820 1174.5 807.5 c 128,-1,42
 1138 795 1138 795 1113 795 c 1,26,27
634 71 m 1,43,44
 622 3 622 3 597 -20 c 1,45,46
 492 -20 492 -20 349 7 c 128,-1,47
 206 34 206 34 141 76 c 1,48,49
 140 98 140 98 140 139 c 0,50,51
 140 334 140 334 186 509 c 0,52,53
 190 525 190 525 220 549.5 c 128,-1,54
 250 574 250 574 274 574 c 1,55,56
 297 464 297 464 356.5 353 c 128,-1,57
 416 242 416 242 491.5 165.5 c 128,-1,58
 567 89 567 89 634 71 c 1,43,44
EndSplineSet
EndChar

StartChar: T
Encoding: 84 84 55
Width: 1535
GlyphClass: 2
Flags: W
LayerCount: 2
Fore
SplineSet
866 0 m 2,0,-1
 400 0 l 1,1,2
 547 531 547 531 609 1296 c 1,3,4
 609 1309 609 1309 641.5 1335 c 128,-1,5
 674 1361 674 1361 696 1361 c 2,6,-1
 1142 1361 l 1,7,8
 1013 818 1013 818 954 66 c 1,9,10
 954 53 954 53 922 26.5 c 128,-1,11
 890 0 890 0 866 0 c 2,0,-1
1334 735 m 1,12,13
 1334 872 1334 872 1290.5 1039 c 128,-1,14
 1247 1206 1247 1206 1197 1281 c 1,15,16
 1203 1327 1203 1327 1227 1361 c 1,17,-1
 1538 1361 l 1,18,19
 1506 1060 1506 1060 1453 801 c 0,20,21
 1449 786 1449 786 1404.5 760.5 c 128,-1,22
 1360 735 1360 735 1334 735 c 1,12,13
116 736 m 1,23,24
 124 853 124 853 154 1043.5 c 128,-1,25
 184 1234 184 1234 199 1290 c 1,26,27
 206 1310 206 1310 233.5 1335.5 c 128,-1,28
 261 1361 261 1361 279 1361 c 2,29,-1
 583 1361 l 1,30,31
 481 1239 481 1239 426.5 1136 c 128,-1,32
 372 1033 372 1033 321.5 936.5 c 128,-1,33
 271 840 271 840 244 790 c 0,34,35
 238 779 238 779 188.5 757.5 c 128,-1,36
 139 736 139 736 116 736 c 1,23,24
EndSplineSet
EndChar

StartChar: U
Encoding: 85 85 56
Width: 1535
GlyphClass: 2
Flags: W
LayerCount: 2
Fore
SplineSet
1268 335 m 1,0,1
 1239 187 1239 187 1128 88 c 0,2,3
 1006 -20 1006 -20 790 -20 c 0,4,5
 405 -20 405 -20 282 177 c 0,6,7
 213 286 213 286 213 459 c 0,8,9
 213 573 213 573 259 857 c 128,-1,10
 305 1141 305 1141 305 1295 c 0,11,12
 305 1309 305 1309 337 1335 c 128,-1,13
 369 1361 369 1361 392 1361 c 2,14,-1
 869 1361 l 1,15,16
 713 635 713 635 713 383 c 0,17,18
 713 142 713 142 950 142 c 0,19,20
 1042 142 1042 142 1129 195.5 c 128,-1,21
 1216 249 1216 249 1268 335 c 1,0,1
1200 390 m 1,22,23
 1200 690 1200 690 1167.5 901.5 c 128,-1,24
 1135 1113 1135 1113 1048 1295 c 1,25,26
 1048 1309 1048 1309 1080 1335 c 128,-1,27
 1112 1361 1112 1361 1135 1361 c 2,28,-1
 1473 1361 l 1,29,30
 1356 831 1356 831 1287 457 c 0,31,32
 1284 442 1284 442 1253.5 416 c 128,-1,33
 1223 390 1223 390 1200 390 c 1,22,23
EndSplineSet
EndChar

StartChar: V
Encoding: 86 86 57
Width: 1365
GlyphClass: 2
Flags: W
LayerCount: 2
Fore
SplineSet
398 0 m 1,0,1
 288 667 288 667 129 1296 c 1,2,3
 129 1309 129 1309 161 1335 c 128,-1,4
 193 1361 193 1361 217 1361 c 2,5,-1
 693 1361 l 1,6,7
 730 1021 730 1021 764 861 c 128,-1,8
 798 701 798 701 822 611 c 0,9,10
 874 416 874 416 935 416 c 0,11,12
 952 416 952 416 969 427 c 1,13,14
 905 301 905 301 803 66 c 0,15,16
 796 51 796 51 766.5 25.5 c 128,-1,17
 737 0 737 0 715 0 c 2,18,-1
 398 0 l 1,0,1
1039 1182 m 1,19,-1
 1036 1296 l 2,20,21
 1036 1309 1036 1309 1068.5 1335 c 128,-1,22
 1101 1361 1101 1361 1124 1361 c 2,23,-1
 1444 1361 l 1,24,25
 1323 1157 1323 1157 1040 568 c 0,26,27
 1033 552 1033 552 1004 527.5 c 128,-1,28
 975 503 975 503 953 503 c 1,29,30
 1039 818 1039 818 1039 1182 c 1,19,-1
EndSplineSet
EndChar

StartChar: W
Encoding: 87 87 58
Width: 2045
GlyphClass: 2
Flags: W
LayerCount: 2
Fore
SplineSet
951 1361 m 2,0,-1
 1392 1361 l 1,1,2
 1396 1322 1396 1322 1403.5 1230 c 128,-1,3
 1411 1138 1411 1138 1418.5 1060.5 c 128,-1,4
 1426 983 1426 983 1437 882.5 c 128,-1,5
 1448 782 1448 782 1462 704.5 c 128,-1,6
 1476 627 1476 627 1493 558 c 0,7,8
 1529 412 1529 412 1584 412 c 0,9,10
 1602 412 1602 412 1622 427 c 1,11,12
 1547 280 1547 280 1456 66 c 0,13,14
 1449 51 1449 51 1419.5 25.5 c 128,-1,15
 1390 0 1390 0 1368 0 c 2,16,-1
 1075 0 l 1,17,18
 1053 292 1053 292 992.5 661 c 128,-1,19
 932 1030 932 1030 863 1296 c 1,20,21
 863 1309 863 1309 895 1335 c 128,-1,22
 927 1361 927 1361 951 1361 c 2,0,-1
1692 1182 m 1,23,-1
 1689 1296 l 2,24,25
 1689 1309 1689 1309 1721.5 1335 c 128,-1,26
 1754 1361 1754 1361 1778 1361 c 2,27,-1
 2096 1361 l 1,28,29
 1980 1166 1980 1166 1693 568 c 0,30,31
 1686 552 1686 552 1657 527.5 c 128,-1,32
 1628 503 1628 503 1605 503 c 1,33,34
 1692 817 1692 817 1692 1182 c 1,23,-1
236 1361 m 2,35,-1
 678 1361 l 1,36,37
 735 806 735 806 790.5 609 c 128,-1,38
 846 412 846 412 903 412 c 0,39,40
 923 412 923 412 942 427 c 1,41,42
 878 301 878 301 776 66 c 0,43,44
 769 51 769 51 739.5 25.5 c 128,-1,45
 710 0 710 0 689 0 c 2,46,-1
 395 0 l 1,47,48
 354 302 354 302 284.5 672.5 c 128,-1,49
 215 1043 215 1043 149 1296 c 1,50,51
 149 1309 149 1309 181 1335 c 128,-1,52
 213 1361 213 1361 236 1361 c 2,35,-1
EndSplineSet
EndChar

StartChar: X
Encoding: 88 88 59
Width: 1367
GlyphClass: 2
Flags: W
LayerCount: 2
Fore
SplineSet
655 0 m 1,0,1
 454 690 454 690 171 1296 c 1,2,3
 171 1309 171 1309 203.5 1335 c 128,-1,4
 236 1361 236 1361 259 1361 c 2,5,-1
 771 1361 l 1,6,7
 885 971 885 971 990 687.5 c 128,-1,8
 1095 404 1095 404 1254 66 c 1,9,10
 1254 53 1254 53 1222 26.5 c 128,-1,11
 1190 0 1190 0 1167 0 c 2,12,-1
 655 0 l 1,0,1
1044 721 m 1,13,14
 1101 910 1101 910 1101 1049 c 0,15,16
 1101 1115 1101 1115 1089 1165.5 c 128,-1,17
 1077 1216 1077 1216 1047 1296 c 1,18,19
 1047 1309 1047 1309 1079.5 1335 c 128,-1,20
 1112 1361 1112 1361 1135 1361 c 2,21,-1
 1454 1361 l 1,22,23
 1335 1179 1335 1179 1259 1049 c 128,-1,24
 1183 919 1183 919 1131 789 c 0,25,26
 1125 773 1125 773 1096 747 c 128,-1,27
 1067 721 1067 721 1044 721 c 1,13,14
384 644 m 1,28,29
 327 461 327 461 327 335 c 128,-1,30
 327 209 327 209 381 66 c 1,31,32
 381 53 381 53 348.5 26.5 c 128,-1,33
 316 0 316 0 293 0 c 2,34,-1
 -27 0 l 1,35,36
 208 361 208 361 296 578 c 0,37,38
 302 594 302 594 331.5 619 c 128,-1,39
 361 644 361 644 384 644 c 1,28,29
EndSplineSet
EndChar

StartChar: Y
Encoding: 89 89 60
Width: 1365
GlyphClass: 2
Flags: W
LayerCount: 2
Fore
SplineSet
771 0 m 2,0,-1
 329 0 l 1,1,2
 366 189 366 189 384 351 c 1,3,4
 301 792 301 792 153 1296 c 1,5,6
 153 1309 153 1309 184.5 1335 c 128,-1,7
 216 1361 216 1361 240 1361 c 2,8,-1
 705 1361 l 1,9,10
 755 845 755 845 909 393 c 1,11,12
 879 255 879 255 860 66 c 1,13,14
 860 53 860 53 827.5 26.5 c 128,-1,15
 795 0 795 0 771 0 c 2,0,-1
1010 608 m 0,16,17
 1002 591 1002 591 973.5 566 c 128,-1,18
 945 541 945 541 923 541 c 1,19,20
 1015 882 1015 882 1015 1215 c 0,21,22
 1015 1269 1015 1269 1013 1296 c 0,23,24
 1013 1309 1013 1309 1045.5 1335 c 128,-1,25
 1078 1361 1078 1361 1102 1361 c 2,26,-1
 1420 1361 l 1,27,28
 1270 1127 1270 1127 1010 608 c 0,16,17
EndSplineSet
EndChar

StartChar: Z
Encoding: 90 90 61
Width: 1365
GlyphClass: 2
Flags: W
LayerCount: 2
Fore
SplineSet
165 838 m 1,0,1
 195 1124 195 1124 237 1290 c 1,2,3
 245 1310 245 1310 272.5 1335.5 c 128,-1,4
 300 1361 300 1361 318 1361 c 2,5,-1
 696 1361 l 1,6,7
 447 1176 447 1176 252 905 c 1,8,9
 241 888 241 888 213.5 863 c 128,-1,10
 186 838 186 838 165 838 c 1,0,1
1246 527 m 1,11,12
 1216 249 1216 249 1175 72 c 1,13,14
 1166 52 1166 52 1138.5 26 c 128,-1,15
 1111 0 1111 0 1093 0 c 2,16,-1
 715 0 l 1,17,18
 958 180 958 180 1159 462 c 0,19,20
 1173 481 1173 481 1199.5 504 c 128,-1,21
 1226 527 1226 527 1246 527 c 1,11,12
57 66 m 1,22,23
 507 726 507 726 790 1361 c 1,24,-1
 1279 1361 l 2,25,26
 1302 1361 1302 1361 1333 1335.5 c 128,-1,27
 1364 1310 1364 1310 1367 1296 c 1,28,29
 1344 1258 1344 1258 1273 1142 c 128,-1,30
 1202 1026 1202 1026 1183 994.5 c 128,-1,31
 1164 963 1164 963 1106.5 867.5 c 128,-1,32
 1049 772 1049 772 1029.5 739 c 128,-1,33
 1010 706 1010 706 963 625 c 128,-1,34
 916 544 916 544 894 504 c 2,35,-1
 831 391 l 2,36,37
 791 319 791 319 763 264.5 c 128,-1,38
 735 210 735 210 699.5 141 c 128,-1,39
 664 72 664 72 629 0 c 1,40,-1
 145 0 l 2,41,42
 121 0 121 0 89 26.5 c 128,-1,43
 57 53 57 53 57 66 c 1,22,23
EndSplineSet
EndChar

StartChar: bracketleft
Encoding: 91 91 62
Width: 539
GlyphClass: 2
Flags: W
LayerCount: 2
Fore
SplineSet
2 -175 m 1,0,-1
 260 1493 l 1,1,-1
 685 1493 l 1,2,-1
 670 1394 l 1,3,-1
 487 1415 l 1,4,-1
 415 734 l 1,5,-1
 253 -98 l 1,6,-1
 443 -76 l 1,7,-1
 428 -175 l 1,8,-1
 2 -175 l 1,0,-1
EndSplineSet
EndChar

StartChar: backslash
Encoding: 92 92 63
Width: 736
GlyphClass: 2
Flags: W
LayerCount: 2
Fore
SplineSet
765 -219 m 2,0,-1
 735 -219 l 1,1,2
 365 622 365 622 -11 1411 c 1,3,4
 -11 1424 -11 1424 20.5 1446.5 c 128,-1,5
 52 1469 52 1469 77 1469 c 2,6,-1
 107 1469 l 1,7,8
 477 628 477 628 853 -161 c 1,9,10
 853 -174 853 -174 821.5 -196.5 c 128,-1,11
 790 -219 790 -219 765 -219 c 2,0,-1
EndSplineSet
EndChar

StartChar: bracketright
Encoding: 93 93 64
Width: 539
GlyphClass: 2
Flags: W
LayerCount: 2
Fore
SplineSet
551 1490 m 1,0,-1
 293 -178 l 1,1,-1
 -132 -178 l 1,2,-1
 -117 -79 l 1,3,-1
 66 -100 l 1,4,-1
 138 581 l 1,5,-1
 300 1413 l 1,6,-1
 110 1391 l 1,7,-1
 125 1490 l 1,8,-1
 551 1490 l 1,0,-1
EndSplineSet
EndChar

StartChar: asciicircum
Encoding: 94 94 65
Width: 1365
GlyphClass: 2
Flags: W
LayerCount: 2
Fore
SplineSet
319 344 m 2,0,-1
 212 344 l 1,1,2
 455 847 455 847 642 1257 c 1,3,4
 673 1282 673 1282 731.5 1282 c 128,-1,5
 790 1282 790 1282 809 1259 c 1,6,7
 926 832 926 832 1066 410 c 1,8,9
 1059 395 1059 395 1029.5 369.5 c 128,-1,10
 1000 344 1000 344 978 344 c 2,11,-1
 923 344 l 1,12,13
 809 774 809 774 716 1083 c 1,14,15
 555 750 555 750 407 410 c 0,16,17
 400 395 400 395 370.5 369.5 c 128,-1,18
 341 344 341 344 319 344 c 2,0,-1
EndSplineSet
EndChar

StartChar: underscore
Encoding: 95 95 66
Width: 1024
GlyphClass: 2
Flags: W
LayerCount: 2
Fore
SplineSet
-103 -308 m 1,0,-1
 -103 -215 l 1,1,-1
 1068 -215 l 1,2,-1
 1068 -308 l 1,3,-1
 -103 -308 l 1,0,-1
EndSplineSet
EndChar

StartChar: grave
Encoding: 96 96 67
Width: 1122
GlyphClass: 2
Flags: W
LayerCount: 2
Fore
SplineSet
926 1145 m 1,0,1
 585 1184 585 1184 360 1261 c 1,2,3
 372 1323 372 1323 423 1438 c 128,-1,4
 474 1553 474 1553 514 1605 c 1,5,6
 740 1458 740 1458 975 1250 c 1,7,8
 960 1188 960 1188 926 1145 c 1,0,1
EndSplineSet
EndChar

StartChar: a
Encoding: 97 97 68
Width: 1537
GlyphClass: 2
Flags: W
LayerCount: 2
Fore
SplineSet
1301 40 m 1,0,1
 1106 -2 1106 -2 882 -2 c 1,2,3
 831 67 831 67 831 143 c 128,-1,4
 831 219 831 219 876 528.5 c 128,-1,5
 921 838 921 838 922 940 c 0,6,7
 922 953 922 953 955 979 c 128,-1,8
 988 1005 988 1005 1010 1005 c 0,9,10
 1224 1005 1224 1005 1413 948 c 1,11,12
 1409 916 1409 916 1360 693.5 c 128,-1,13
 1311 471 1311 471 1311 336.5 c 128,-1,14
 1311 202 1311 202 1383 130 c 1,15,16
 1383 116 1383 116 1355 83.5 c 128,-1,17
 1327 51 1327 51 1301 40 c 1,0,1
838 1019 m 1,18,19
 719 931 719 931 657.5 780 c 128,-1,20
 596 629 596 629 596 483.5 c 128,-1,21
 596 338 596 338 628.5 222.5 c 128,-1,22
 661 107 661 107 716 68 c 1,23,24
 716 53 716 53 684 26.5 c 128,-1,25
 652 0 652 0 629 0 c 0,26,27
 400 0 400 0 261.5 115 c 128,-1,28
 123 230 123 230 123 429 c 0,29,30
 123 676 123 676 310 844 c 0,31,32
 400 925 400 925 536.5 972 c 128,-1,33
 673 1019 673 1019 838 1019 c 1,18,19
EndSplineSet
EndChar

StartChar: b
Encoding: 98 98 69
Width: 1535
GlyphClass: 2
Flags: W
LayerCount: 2
Fore
SplineSet
625 68 m 1,0,1
 625 54 625 54 593 27 c 128,-1,2
 561 0 561 0 537 0 c 2,3,-1
 125 0 l 1,4,5
 169 188 169 188 226.5 628 c 128,-1,6
 284 1068 284 1068 306 1318 c 1,7,8
 306 1331 306 1331 338 1357.5 c 128,-1,9
 370 1384 370 1384 393 1384 c 2,10,-1
 814 1384 l 1,11,12
 761 1164 761 1164 704 749.5 c 128,-1,13
 647 335 647 335 625 68 c 1,0,1
719 8 m 1,14,15
 831 79 831 79 891.5 243 c 128,-1,16
 952 407 952 407 952 600 c 128,-1,17
 952 793 952 793 844 952 c 1,18,19
 844 967 844 967 875 993 c 128,-1,20
 906 1019 906 1019 929 1019 c 0,21,22
 1062 1019 1062 1019 1171 965 c 128,-1,23
 1280 911 1280 911 1346 806.5 c 128,-1,24
 1412 702 1412 702 1412 565 c 0,25,26
 1412 312 1412 312 1232 160 c 128,-1,27
 1052 8 1052 8 719 8 c 1,14,15
EndSplineSet
EndChar

StartChar: c
Encoding: 99 99 70
Width: 1372
GlyphClass: 2
Flags: W
LayerCount: 2
Fore
SplineSet
1039 989 m 1,0,1
 1154 965 1154 965 1223.5 885 c 128,-1,2
 1293 805 1293 805 1293 724.5 c 128,-1,3
 1293 644 1293 644 1222 605.5 c 128,-1,4
 1151 567 1151 567 1080 567 c 128,-1,5
 1009 567 1009 567 938 594 c 1,6,7
 945 688 945 688 945 765.5 c 128,-1,8
 945 843 945 843 932 924 c 1,9,10
 935 946 935 946 972.5 967.5 c 128,-1,11
 1010 989 1010 989 1039 989 c 1,0,1
870 1016 m 1,12,13
 766 936 766 936 697.5 799 c 128,-1,14
 629 662 629 662 629 538 c 128,-1,15
 629 414 629 414 659 340 c 128,-1,16
 689 266 689 266 744 221 c 0,17,18
 853 132 853 132 1027 132 c 0,19,20
 1115 132 1115 132 1215 155 c 1,21,22
 1132 56 1132 56 1013 19 c 128,-1,23
 894 -18 894 -18 718 -18 c 128,-1,24
 542 -18 542 -18 414.5 35 c 128,-1,25
 287 88 287 88 210 198 c 128,-1,26
 133 308 133 308 133 466.5 c 128,-1,27
 133 625 133 625 215 756.5 c 128,-1,28
 297 888 297 888 434 959 c 128,-1,29
 571 1030 571 1030 736 1030 c 0,30,31
 789 1030 789 1030 870 1016 c 1,12,13
EndSplineSet
EndChar

StartChar: d
Encoding: 100 100 71
Width: 1537
GlyphClass: 2
Flags: W
LayerCount: 2
Fore
SplineSet
834 1019 m 1,0,1
 715 931 715 931 655.5 780.5 c 128,-1,2
 596 630 596 630 596 484 c 128,-1,3
 596 338 596 338 628.5 222.5 c 128,-1,4
 661 107 661 107 716 68 c 1,5,6
 716 53 716 53 684 26.5 c 128,-1,7
 652 0 652 0 629 0 c 0,8,9
 402 0 402 0 262.5 119 c 128,-1,10
 123 238 123 238 123 440 c 0,11,12
 123 682 123 682 310 848 c 0,13,14
 399 927 399 927 534.5 973 c 128,-1,15
 670 1019 670 1019 834 1019 c 1,0,1
1293 68 m 1,16,17
 1293 54 1293 54 1261 27 c 128,-1,18
 1229 0 1229 0 1205 0 c 2,19,-1
 803 0 l 1,20,21
 847 185 847 185 898 609 c 128,-1,22
 949 1033 949 1033 974 1318 c 1,23,24
 974 1331 974 1331 1006 1357.5 c 128,-1,25
 1038 1384 1038 1384 1061 1384 c 2,26,-1
 1482 1384 l 1,27,28
 1429 1164 1429 1164 1372 749.5 c 128,-1,29
 1315 335 1315 335 1293 68 c 1,16,17
EndSplineSet
EndChar

StartChar: e
Encoding: 101 101 72
Width: 1365
GlyphClass: 2
Flags: W
LayerCount: 2
Fore
SplineSet
1013 994 m 1,0,1
 1149 947 1149 947 1219.5 862.5 c 128,-1,2
 1290 778 1290 778 1290 682 c 0,3,4
 1290 551 1290 551 1177 460 c 128,-1,5
 1064 369 1064 369 869 369 c 0,6,7
 808 369 808 369 735 389 c 1,8,9
 841 455 841 455 878 561 c 0,10,11
 910 653 910 653 910 777 c 0,12,13
 910 801 910 801 905 924 c 0,14,15
 904 937 904 937 945.5 965 c 128,-1,16
 987 993 987 993 1013 994 c 1,0,1
851 1010 m 1,17,18
 727 926 727 926 654.5 789 c 128,-1,19
 582 652 582 652 582 496 c 128,-1,20
 582 340 582 340 702 242 c 128,-1,21
 822 144 822 144 1052 144 c 0,22,23
 1115 144 1115 144 1187 155 c 1,24,25
 1140 81 1140 81 1006 31.5 c 128,-1,26
 872 -18 872 -18 725 -18 c 128,-1,27
 578 -18 578 -18 474 11.5 c 128,-1,28
 370 41 370 41 288.5 99 c 128,-1,29
 207 157 207 157 160 250.5 c 128,-1,30
 113 344 113 344 113 456.5 c 128,-1,31
 113 569 113 569 148 660 c 128,-1,32
 183 751 183 751 244 816 c 128,-1,33
 305 881 305 881 386 928 c 1,34,35
 547 1019 547 1019 757 1019 c 0,36,37
 809 1019 809 1019 851 1010 c 1,17,18
EndSplineSet
EndChar

StartChar: f
Encoding: 102 102 73
Width: 1025
GlyphClass: 2
Flags: W
LayerCount: 2
Fore
SplineSet
785 661 m 1,0,1
 794 806 794 806 830 919 c 1,2,3
 916 880 916 880 1028 860 c 1,4,5
 1037 846 1037 846 1043.5 811.5 c 128,-1,6
 1050 777 1050 777 1050 757 c 1,7,8
 890 710 890 710 785 661 c 1,0,1
857 1188.5 m 128,-1,10
 783 1147 783 1147 745 1043 c 128,-1,11
 707 939 707 939 677 744 c 0,12,13
 638 493 638 493 602 66 c 1,14,15
 602 53 602 53 570 26.5 c 128,-1,16
 538 0 538 0 515 0 c 2,17,-1
 95 0 l 1,18,19
 137 173 137 173 181.5 528.5 c 128,-1,20
 226 884 226 884 232 926 c 0,21,22
 265 1159 265 1159 394.5 1276.5 c 128,-1,23
 524 1394 524 1394 778 1394 c 0,24,25
 980 1394 980 1394 1118 1328 c 1,26,27
 1129 1286 1129 1286 1132 1227 c 1,28,29
 1087 1230 1087 1230 1045 1230 c 0,30,9
 931 1230 931 1230 857 1188.5 c 128,-1,10
EndSplineSet
EndChar

StartChar: g
Encoding: 103 103 74
Width: 1536
GlyphClass: 2
Flags: W
LayerCount: 2
Fore
SplineSet
868 1019 m 1,0,1
 762 942 762 942 684 793.5 c 128,-1,2
 606 645 606 645 606 500 c 0,3,4
 606 313 606 313 732 211 c 1,5,6
 732 196 732 196 700 169.5 c 128,-1,7
 668 143 668 143 645 143 c 0,8,9
 276 143 276 143 179 392 c 0,10,11
 152 461 152 461 152 547.5 c 128,-1,12
 152 634 152 634 190 718 c 128,-1,13
 228 802 228 802 301 870.5 c 128,-1,14
 374 939 374 939 493 980 c 128,-1,15
 612 1021 612 1021 762 1021 c 0,16,17
 796 1021 796 1021 868 1019 c 1,0,1
930 942 m 0,18,19
 930 955 930 955 962 983 c 128,-1,20
 994 1011 994 1011 1018 1011 c 0,21,22
 1077 1011 1077 1011 1191 995.5 c 128,-1,23
 1305 980 1305 980 1411 948 c 1,24,25
 1350 652 1350 652 1272 28 c 0,26,27
 1210 -467 1210 -467 725 -467 c 0,28,29
 651 -467 651 -467 590 -459 c 1,30,31
 677 -378 677 -378 726 -262 c 0,32,33
 782 -128 782 -128 802 -36 c 0,34,35
 869 270 869 270 899.5 544.5 c 128,-1,36
 930 819 930 819 930 942 c 0,18,19
416 -435 m 1,37,38
 295 -423 295 -423 209 -360 c 128,-1,39
 123 -297 123 -297 123 -222 c 128,-1,40
 123 -147 123 -147 182 -95 c 0,41,42
 292 3 292 3 491 3 c 0,43,44
 556 3 556 3 613 -10 c 1,45,46
 560 -63 560 -63 528 -140 c 128,-1,47
 496 -217 496 -217 496 -277 c 128,-1,48
 496 -337 496 -337 504 -368 c 1,49,50
 504 -383 504 -383 471.5 -409 c 128,-1,51
 439 -435 439 -435 416 -435 c 1,37,38
EndSplineSet
EndChar

StartChar: h
Encoding: 104 104 75
Width: 1535
GlyphClass: 2
Flags: W
LayerCount: 2
Fore
SplineSet
870 -10 m 1,0,1
 812 46 812 46 812 134 c 128,-1,2
 812 222 812 222 856.5 470 c 128,-1,3
 901 718 901 718 901 775.5 c 128,-1,4
 901 833 901 833 873.5 858.5 c 128,-1,5
 846 884 846 884 802 884 c 1,6,7
 811 944 811 944 836 974 c 1,8,9
 873 992 873 992 952.5 1007 c 128,-1,10
 1032 1022 1032 1022 1100 1022 c 0,11,12
 1233 1022 1233 1022 1299.5 961 c 128,-1,13
 1366 900 1366 900 1366 768 c 0,14,15
 1366 694 1366 694 1334 508 c 128,-1,16
 1302 322 1302 322 1302 280 c 128,-1,17
 1302 238 1302 238 1305.5 217 c 128,-1,18
 1309 196 1309 196 1311.5 184 c 128,-1,19
 1314 172 1314 172 1325 156.5 c 128,-1,20
 1336 141 1336 141 1339 137.5 c 128,-1,21
 1342 134 1342 134 1359 117.5 c 128,-1,22
 1376 101 1376 101 1379 98 c 1,23,24
 1379 84 1379 84 1350 51.5 c 128,-1,25
 1321 19 1321 19 1297 9 c 1,26,27
 1169 -10 1169 -10 870 -10 c 1,0,1
601 68 m 1,28,29
 601 54 601 54 569 27 c 128,-1,30
 537 0 537 0 513 0 c 2,31,-1
 101 0 l 1,32,33
 145 188 145 188 202.5 628 c 128,-1,34
 260 1068 260 1068 282 1318 c 1,35,36
 282 1331 282 1331 314 1357.5 c 128,-1,37
 346 1384 346 1384 369 1384 c 2,38,-1
 790 1384 l 1,39,40
 737 1164 737 1164 680 749.5 c 128,-1,41
 623 335 623 335 601 68 c 1,28,29
EndSplineSet
EndChar

StartChar: i
Encoding: 105 105 76
Width: 852
GlyphClass: 2
Flags: W
LayerCount: 2
Fore
SplineSet
97 0 m 1,0,1
 184 368 184 368 230 928 c 1,2,3
 230 941 230 941 263 967 c 128,-1,4
 296 993 296 993 318 993 c 2,5,-1
 737 993 l 1,6,7
 650 619 650 619 604 66 c 1,8,9
 604 53 604 53 572 26.5 c 128,-1,10
 540 0 540 0 517 0 c 2,11,-1
 97 0 l 1,0,1
681 1128 m 2,12,-1
 263 1128 l 1,13,14
 282 1205 282 1205 288 1279 c 1,15,16
 288 1293 288 1293 320 1319.5 c 128,-1,17
 352 1346 352 1346 375 1346 c 2,18,-1
 795 1346 l 1,19,20
 782 1299 782 1299 768 1194 c 1,21,22
 768 1180 768 1180 736.5 1154 c 128,-1,23
 705 1128 705 1128 681 1128 c 2,12,-1
EndSplineSet
EndChar

StartChar: j
Encoding: 106 106 77
Width: 852
GlyphClass: 2
Flags: W
LayerCount: 2
Fore
SplineSet
317 993 m 2,0,-1
 736 993 l 1,1,2
 700 836 700 836 647 506 c 128,-1,3
 594 176 594 176 574 1 c 0,4,5
 549 -225 549 -225 420.5 -323 c 128,-1,6
 292 -421 292 -421 27 -421 c 1,7,8
 80 -241 80 -241 143 202 c 128,-1,9
 206 645 206 645 230 927 c 1,10,11
 230 940 230 940 262 966.5 c 128,-1,12
 294 993 294 993 317 993 c 2,0,-1
689 1128 m 2,13,-1
 271 1128 l 1,14,15
 290 1205 290 1205 296 1279 c 1,16,17
 296 1293 296 1293 328 1319.5 c 128,-1,18
 360 1346 360 1346 383 1346 c 2,19,-1
 803 1346 l 1,20,21
 790 1299 790 1299 776 1194 c 1,22,23
 776 1180 776 1180 744.5 1154 c 128,-1,24
 713 1128 713 1128 689 1128 c 2,13,-1
EndSplineSet
EndChar

StartChar: k
Encoding: 107 107 78
Width: 1535
GlyphClass: 2
Flags: W
LayerCount: 2
Fore
SplineSet
1338 367 m 1,0,-1
 1331 219 l 1,1,2
 1331 172 1331 172 1351.5 150.5 c 128,-1,3
 1372 129 1372 129 1421 129 c 1,4,5
 1411 67 1411 67 1388 27 c 1,6,7
 1246 -15 1246 -15 1091 -15 c 128,-1,8
 936 -15 936 -15 891.5 18.5 c 128,-1,9
 847 52 847 52 847 107.5 c 128,-1,10
 847 163 847 163 860.5 252 c 128,-1,11
 874 341 874 341 874 393 c 0,12,13
 874 485 874 485 770 504 c 1,14,15
 779 553 779 553 804 582 c 1,16,17
 900 611 900 611 946 669 c 128,-1,18
 992 727 992 727 992 779.5 c 128,-1,19
 992 832 992 832 972 860.5 c 128,-1,20
 952 889 952 889 924 889 c 128,-1,21
 896 889 896 889 869 880 c 1,22,23
 878 940 878 940 903 970 c 1,24,25
 1021 1027 1021 1027 1132.5 1027 c 128,-1,26
 1244 1027 1244 1027 1309 977 c 128,-1,27
 1374 927 1374 927 1374 849.5 c 128,-1,28
 1374 772 1374 772 1339.5 719.5 c 128,-1,29
 1305 667 1305 667 1248 634 c 0,30,31
 1136 567 1136 567 991 553 c 1,32,33
 1161 553 1161 553 1249.5 504 c 128,-1,34
 1338 455 1338 455 1338 367 c 1,0,-1
638 68 m 1,35,36
 638 54 638 54 606 27 c 128,-1,37
 574 0 574 0 550 0 c 2,38,-1
 138 0 l 1,39,40
 182 188 182 188 239.5 628 c 128,-1,41
 297 1068 297 1068 319 1318 c 1,42,43
 319 1331 319 1331 351 1357.5 c 128,-1,44
 383 1384 383 1384 406 1384 c 2,45,-1
 827 1384 l 1,46,47
 774 1164 774 1164 717 749.5 c 128,-1,48
 660 335 660 335 638 68 c 1,35,36
EndSplineSet
EndChar

StartChar: l
Encoding: 108 108 79
Width: 852
GlyphClass: 2
Flags: W
LayerCount: 2
Fore
SplineSet
602 68 m 1,0,1
 602 54 602 54 570 27 c 128,-1,2
 538 0 538 0 514 0 c 2,3,-1
 102 0 l 1,4,5
 146 188 146 188 203.5 628 c 128,-1,6
 261 1068 261 1068 283 1318 c 1,7,8
 283 1331 283 1331 315 1357.5 c 128,-1,9
 347 1384 347 1384 370 1384 c 2,10,-1
 791 1384 l 1,11,12
 738 1164 738 1164 681 749.5 c 128,-1,13
 624 335 624 335 602 68 c 1,0,1
EndSplineSet
EndChar

StartChar: m
Encoding: 109 109 80
Width: 2215
GlyphClass: 2
Flags: W
LayerCount: 2
Fore
SplineSet
535 0 m 2,0,-1
 115 0 l 1,1,2
 223 457 223 457 262 925 c 0,3,4
 262 937 262 937 294 961.5 c 128,-1,5
 326 986 326 986 361.5 992 c 128,-1,6
 397 998 397 998 535.5 1008.5 c 128,-1,7
 674 1019 674 1019 751 1019 c 1,8,9
 664 576 664 576 622 66 c 1,10,11
 622 53 622 53 590 26.5 c 128,-1,12
 558 0 558 0 535 0 c 2,0,-1
804 0 m 1,13,14
 908 601 908 601 908 740.5 c 128,-1,15
 908 880 908 880 843 880 c 1,16,17
 857 934 857 934 887 971 c 1,18,19
 989 1019 989 1019 1118.5 1019 c 128,-1,20
 1248 1019 1248 1019 1309.5 956 c 128,-1,21
 1371 893 1371 893 1371 765 c 0,22,23
 1371 698 1371 698 1334 448.5 c 128,-1,24
 1297 199 1297 199 1288 66 c 0,25,26
 1288 53 1288 53 1256 26.5 c 128,-1,27
 1224 0 1224 0 1200 0 c 2,28,-1
 804 0 l 1,13,14
1555 -2 m 1,29,30
 1496 57 1496 57 1496 128 c 128,-1,31
 1496 199 1496 199 1534 453.5 c 128,-1,32
 1572 708 1572 708 1572 768 c 128,-1,33
 1572 828 1572 828 1537 854 c 128,-1,34
 1502 880 1502 880 1456 880 c 1,35,36
 1465 938 1465 938 1489 971 c 1,37,38
 1526 989 1526 989 1610.5 1004 c 128,-1,39
 1695 1019 1695 1019 1763 1019 c 0,40,41
 1897 1019 1897 1019 1963.5 958 c 128,-1,42
 2030 897 2030 897 2030 765 c 0,43,44
 2030 690 2030 690 1994.5 510 c 128,-1,45
 1959 330 1959 330 1959 288 c 128,-1,46
 1959 246 1959 246 1962.5 225 c 128,-1,47
 1966 204 1966 204 1968.5 192.5 c 128,-1,48
 1971 181 1971 181 1982.5 165 c 128,-1,49
 1994 149 1994 149 1996.5 145.5 c 128,-1,50
 1999 142 1999 142 2017 125 c 128,-1,51
 2035 108 2035 108 2037 106 c 1,52,53
 2037 93 2037 93 2007.5 60.5 c 128,-1,54
 1978 28 1978 28 1954 17 c 1,55,56
 1825 -2 1825 -2 1555 -2 c 1,29,30
EndSplineSet
EndChar

StartChar: n
Encoding: 110 110 81
Width: 1535
GlyphClass: 2
Flags: W
LayerCount: 2
Fore
SplineSet
515 0 m 2,0,-1
 95 0 l 1,1,2
 199 438 199 438 239 925 c 0,3,4
 239 937 239 937 271 961.5 c 128,-1,5
 303 986 303 986 338.5 992 c 128,-1,6
 374 998 374 998 512.5 1008.5 c 128,-1,7
 651 1019 651 1019 727 1019 c 1,8,9
 646 600 646 600 602 66 c 1,10,11
 602 53 602 53 570 26.5 c 128,-1,12
 538 0 538 0 515 0 c 2,0,-1
876 -10 m 1,13,14
 818 46 818 46 818 134 c 128,-1,15
 818 222 818 222 862.5 470 c 128,-1,16
 907 718 907 718 907 775.5 c 128,-1,17
 907 833 907 833 879.5 858.5 c 128,-1,18
 852 884 852 884 808 884 c 1,19,20
 817 944 817 944 842 974 c 1,21,22
 879 992 879 992 958.5 1007 c 128,-1,23
 1038 1022 1038 1022 1106 1022 c 0,24,25
 1239 1022 1239 1022 1305.5 961 c 128,-1,26
 1372 900 1372 900 1372 768 c 0,27,28
 1372 694 1372 694 1340 508 c 128,-1,29
 1308 322 1308 322 1308 280 c 128,-1,30
 1308 238 1308 238 1311.5 217 c 128,-1,31
 1315 196 1315 196 1317.5 184 c 128,-1,32
 1320 172 1320 172 1331 156.5 c 128,-1,33
 1342 141 1342 141 1345 137.5 c 128,-1,34
 1348 134 1348 134 1365 117.5 c 128,-1,35
 1382 101 1382 101 1385 98 c 1,36,37
 1385 84 1385 84 1356 51.5 c 128,-1,38
 1327 19 1327 19 1303 9 c 1,39,40
 1175 -10 1175 -10 876 -10 c 1,13,14
EndSplineSet
EndChar

StartChar: o
Encoding: 111 111 82
Width: 1535
GlyphClass: 2
Flags: W
LayerCount: 2
Fore
SplineSet
835 1027 m 1,0,1
 595 797 595 797 595 406 c 0,2,3
 595 240 595 240 639 72 c 1,4,5
 638 57 638 57 606.5 31 c 128,-1,6
 575 5 575 5 553 5 c 1,7,8
 385 28 385 28 262 144 c 0,9,10
 133 266 133 266 133 448.5 c 128,-1,11
 133 631 133 631 224.5 760.5 c 128,-1,12
 316 890 316 890 475 958.5 c 128,-1,13
 634 1027 634 1027 835 1027 c 1,0,1
700 -9 m 1,14,15
 940 221 940 221 940 612 c 0,16,17
 940 778 940 778 896 946 c 1,18,19
 897 961 897 961 928.5 987 c 128,-1,20
 960 1013 960 1013 982 1013 c 1,21,22
 1150 990 1150 990 1272 874 c 1,23,24
 1402 752 1402 752 1402 569.5 c 128,-1,25
 1402 387 1402 387 1310.5 257.5 c 128,-1,26
 1219 128 1219 128 1060 59.5 c 128,-1,27
 901 -9 901 -9 700 -9 c 1,14,15
EndSplineSet
EndChar

StartChar: p
Encoding: 112 112 83
Width: 1535
GlyphClass: 2
Flags: W
LayerCount: 2
Fore
SplineSet
52 -419 m 1,0,1
 206 301 206 301 255 927 c 0,2,3
 255 939 255 939 287 964.5 c 128,-1,4
 319 990 319 990 360 994 c 128,-1,5
 401 998 401 998 545.5 1006.5 c 128,-1,6
 690 1015 690 1015 753 1015 c 1,7,8
 644 543 644 543 560 -354 c 1,9,10
 560 -367 560 -367 527.5 -393 c 128,-1,11
 495 -419 495 -419 473 -419 c 2,12,-1
 52 -419 l 1,0,1
719 0 m 1,13,14
 795 48 795 48 850 148 c 0,15,16
 952 335 952 335 952 564 c 128,-1,17
 952 793 952 793 844 952 c 1,18,19
 844 967 844 967 875 993 c 128,-1,20
 906 1019 906 1019 929 1019 c 0,21,22
 1062 1019 1062 1019 1171 965 c 128,-1,23
 1280 911 1280 911 1346 806.5 c 128,-1,24
 1412 702 1412 702 1412 565 c 0,25,26
 1412 314 1412 314 1225.5 157 c 128,-1,27
 1039 0 1039 0 719 0 c 1,13,14
EndSplineSet
EndChar

StartChar: q
Encoding: 113 113 84
Width: 1535
GlyphClass: 2
Flags: W
LayerCount: 2
Fore
SplineSet
1245 -354 m 1,0,1
 1245 -367 1245 -367 1213 -393 c 128,-1,2
 1181 -419 1181 -419 1158 -419 c 2,3,-1
 738 -419 l 1,4,5
 791 -197 791 -197 853 250.5 c 128,-1,6
 915 698 915 698 935 955 c 0,7,8
 935 967 935 967 968 993 c 128,-1,9
 1001 1019 1001 1019 1023 1019 c 0,10,11
 1238 1019 1238 1019 1424 963 c 1,12,13
 1380 774 1380 774 1323.5 337 c 128,-1,14
 1267 -100 1267 -100 1245 -354 c 1,0,1
835 1019 m 1,15,16
 714 929 714 929 655 766 c 128,-1,17
 596 603 596 603 596 469.5 c 128,-1,18
 596 336 596 336 631 229 c 128,-1,19
 666 122 666 122 717 68 c 1,20,21
 717 53 717 53 685 26.5 c 128,-1,22
 653 0 653 0 630 0 c 0,23,24
 397 0 397 0 260 120.5 c 128,-1,25
 123 241 123 241 123 456 c 0,26,27
 123 563 123 563 174 664 c 128,-1,28
 225 765 225 765 315 844 c 128,-1,29
 405 923 405 923 541 971 c 128,-1,30
 677 1019 677 1019 835 1019 c 1,15,16
EndSplineSet
EndChar

StartChar: r
Encoding: 114 114 85
Width: 1195
GlyphClass: 2
Flags: W
LayerCount: 2
Fore
SplineSet
1087 1019 m 0,0,1
 1201 1019 1201 1019 1201 876 c 0,2,3
 1201 787 1201 787 1170 698.5 c 128,-1,4
 1139 610 1139 610 1092 563 c 1,5,6
 1026 609 1026 609 929.5 639.5 c 128,-1,7
 833 670 833 670 745 673 c 1,8,9
 753 728 753 728 777 790 c 1,10,11
 938 1019 938 1019 1087 1019 c 0,0,1
488 0 m 2,12,-1
 69 0 l 1,13,14
 171 436 171 436 213 925 c 0,15,16
 213 936 213 936 245.5 961 c 128,-1,17
 278 986 278 986 312.5 992 c 128,-1,18
 347 998 347 998 491.5 1008.5 c 128,-1,19
 636 1019 636 1019 713 1019 c 1,20,21
 614 524 614 524 575 66 c 1,22,23
 575 53 575 53 543 26.5 c 128,-1,24
 511 0 511 0 488 0 c 2,12,-1
EndSplineSet
EndChar

StartChar: s
Encoding: 115 115 86
Width: 1195
GlyphClass: 2
Flags: W
LayerCount: 2
Fore
SplineSet
662 1028 m 1,0,1
 605 974 605 974 605 914 c 0,2,3
 605 774 605 774 818 624 c 0,4,5
 914 556 914 556 968 508 c 0,6,7
 1089 400 1089 400 1089 273.5 c 128,-1,8
 1089 147 1089 147 962.5 69.5 c 128,-1,9
 836 -8 836 -8 608 -8 c 1,10,11
 634 50 634 50 634 97 c 128,-1,12
 634 144 634 144 607.5 188.5 c 128,-1,13
 581 233 581 233 539 270 c 128,-1,14
 497 307 497 307 446 344.5 c 128,-1,15
 395 382 395 382 344 421 c 128,-1,16
 293 460 293 460 251 501 c 0,17,18
 156 594 156 594 156 702 c 0,19,20
 156 821 156 821 244 896 c 0,21,22
 395 1023 395 1023 662 1028 c 1,0,1
817 1025 m 1,23,24
 958 1025 958 1025 1059 969.5 c 128,-1,25
 1160 914 1160 914 1160 834 c 0,26,27
 1160 710 1160 710 928 682 c 1,28,29
 930 689 930 689 930 704 c 0,30,31
 930 780 930 780 882 844.5 c 128,-1,32
 834 909 834 909 748 948 c 1,33,34
 748 964 748 964 770 992 c 128,-1,35
 792 1020 792 1020 817 1025 c 1,23,24
433 -4 m 1,36,37
 383 -8 383 -8 359 -8 c 0,38,39
 214 -8 214 -8 118 39.5 c 128,-1,40
 22 87 22 87 22 163 c 0,41,42
 22 316 22 316 253 356 c 1,43,44
 245 313 245 313 246.5 280.5 c 128,-1,45
 248 248 248 248 268.5 216.5 c 128,-1,46
 289 185 289 185 326 160 c 0,47,48
 392 116 392 116 490 79 c 1,49,50
 490 64 490 64 471.5 34.5 c 128,-1,51
 453 5 453 5 433 -4 c 1,36,37
EndSplineSet
EndChar

StartChar: t
Encoding: 116 116 87
Width: 1025
GlyphClass: 2
Flags: W
LayerCount: 2
Fore
SplineSet
904 61 m 1,0,1
 699 -5 699 -5 495 -5 c 0,2,3
 102 -5 102 -5 102 308 c 0,4,5
 102 376 102 376 131 579.5 c 128,-1,6
 160 783 160 783 160 860.5 c 128,-1,7
 160 938 160 938 153 979 c 1,8,9
 290 1040 290 1040 394 1117 c 128,-1,10
 498 1194 498 1194 596 1306 c 1,11,12
 646 1321 646 1321 726 1321 c 1,13,14
 659 1085 659 1085 619.5 836 c 128,-1,15
 580 587 580 587 580 468.5 c 128,-1,16
 580 350 580 350 597 297.5 c 128,-1,17
 614 245 614 245 652 216 c 0,18,19
 719 165 719 165 864 165 c 0,20,21
 899 165 899 165 938 168 c 1,22,23
 929 102 929 102 904 61 c 1,0,1
729 756 m 1,24,25
 738 895 738 895 774 1014 c 1,26,27
 872 973 872 973 993 956 c 1,28,29
 1001 941 1001 941 1008 906.5 c 128,-1,30
 1015 872 1015 872 1015 852 c 1,31,32
 876 814 876 814 729 756 c 1,24,25
EndSplineSet
EndChar

StartChar: u
Encoding: 117 117 88
Width: 1532
GlyphClass: 2
Flags: W
LayerCount: 2
Fore
SplineSet
156 258 m 0,0,1
 156 361 156 361 189.5 542 c 128,-1,2
 223 723 223 723 223 796 c 128,-1,3
 223 869 223 869 176 899 c 1,4,5
 176 915 176 915 205 957.5 c 128,-1,6
 234 1000 234 1000 255 1000 c 2,7,-1
 646 1000 l 1,8,9
 665 990 665 990 683 963.5 c 128,-1,10
 701 937 701 937 701 896 c 128,-1,11
 701 855 701 855 657.5 630.5 c 128,-1,12
 614 406 614 406 614 280 c 0,13,14
 614 216 614 216 646.5 182.5 c 128,-1,15
 679 149 679 149 730 149 c 1,16,17
 728 136 728 136 728 116 c 0,18,19
 728 72 728 72 716 59 c 1,20,21
 667 28 667 28 586.5 9.5 c 128,-1,22
 506 -9 506 -9 432 -9 c 0,23,24
 156 -9 156 -9 156 258 c 0,0,1
911 2 m 1,25,26
 832 58 832 58 832 139 c 128,-1,27
 832 220 832 220 874.5 502 c 128,-1,28
 917 784 917 784 929 934 c 1,29,30
 929 947 929 947 961.5 973.5 c 128,-1,31
 994 1000 994 1000 1017 1000 c 2,32,-1
 1423 1000 l 1,33,34
 1369 768 1369 768 1336 564 c 128,-1,35
 1303 360 1303 360 1303 286 c 128,-1,36
 1303 212 1303 212 1321.5 177 c 128,-1,37
 1340 142 1340 142 1380 110 c 1,38,39
 1380 96 1380 96 1351 63.5 c 128,-1,40
 1322 31 1322 31 1298 21 c 1,41,42
 1169 2 1169 2 911 2 c 1,25,26
EndSplineSet
EndChar

StartChar: v
Encoding: 118 118 89
Width: 1195
GlyphClass: 2
Flags: W
LayerCount: 2
Fore
SplineSet
887 934 m 1,0,1
 887 947 887 947 921.5 973.5 c 128,-1,2
 956 1000 956 1000 980 1000 c 2,3,-1
 1242 1000 l 1,4,5
 1138 846 1138 846 987 598 c 0,6,7
 979 586 979 586 939.5 571 c 128,-1,8
 900 556 900 556 875 556 c 1,9,10
 906 666 906 666 906 768 c 128,-1,11
 906 870 906 870 887 934 c 1,0,1
346 0 m 1,12,13
 282 339 282 339 85 936 c 1,14,15
 85 950 85 950 118.5 976 c 128,-1,16
 152 1002 152 1002 177 1002 c 2,17,-1
 606 1002 l 1,18,19
 625 837 625 837 665 693 c 0,20,21
 739 421 739 421 820 421 c 0,22,23
 856 421 856 421 877.5 429.5 c 128,-1,24
 899 438 899 438 903 439 c 1,25,26
 872 381 872 381 805.5 224 c 128,-1,27
 739 67 739 67 735 58.5 c 128,-1,28
 731 50 731 50 702 25 c 128,-1,29
 673 0 673 0 650 0 c 2,30,-1
 346 0 l 1,12,13
EndSplineSet
EndChar

StartChar: w
Encoding: 119 119 90
Width: 1872
GlyphClass: 2
Flags: W
LayerCount: 2
Fore
SplineSet
1561 934 m 0,0,1
 1561 947 1561 947 1595 973.5 c 128,-1,2
 1629 1000 1629 1000 1653 1000 c 2,3,-1
 1916 1000 l 1,4,5
 1889 960 1889 960 1768 793 c 128,-1,6
 1647 626 1647 626 1608 556 c 0,7,8
 1601 543 1601 543 1570 528.5 c 128,-1,9
 1539 514 1539 514 1515 514 c 1,10,11
 1564 678 1564 678 1564 856 c 0,12,13
 1564 895 1564 895 1561 934 c 0,0,1
182 1002 m 2,14,-1
 630 1002 l 1,15,16
 652 826 652 826 689 691 c 0,17,18
 759 435 759 435 845 435 c 0,19,20
 866 435 866 435 886 439 c 1,21,22
 855 381 855 381 788.5 224 c 128,-1,23
 722 67 722 67 718 58.5 c 128,-1,24
 714 50 714 50 685 25 c 128,-1,25
 656 0 656 0 633 0 c 2,26,-1
 370 0 l 1,27,28
 330 220 330 220 140 783 c 0,29,30
 97 912 97 912 89 936 c 1,31,32
 89 950 89 950 123 976 c 128,-1,33
 157 1002 157 1002 182 1002 c 2,14,-1
890 1002 m 2,34,-1
 1338 1002 l 1,35,36
 1346 927 1346 927 1354 844 c 128,-1,37
 1362 761 1362 761 1370 701.5 c 128,-1,38
 1378 642 1378 642 1388.5 598.5 c 128,-1,39
 1399 555 1399 555 1414 516 c 0,40,41
 1443 435 1443 435 1493 435 c 0,42,43
 1514 435 1514 435 1535 439 c 1,44,45
 1504 382 1504 382 1439 229.5 c 128,-1,46
 1374 77 1374 77 1368 63.5 c 128,-1,47
 1362 50 1362 50 1333 25 c 128,-1,48
 1304 0 1304 0 1282 0 c 2,49,-1
 1020 0 l 1,50,51
 979 220 979 220 914 501 c 128,-1,52
 849 782 849 782 797 936 c 1,53,54
 797 950 797 950 831 976 c 128,-1,55
 865 1002 865 1002 890 1002 c 2,34,-1
EndSplineSet
EndChar

StartChar: x
Encoding: 120 120 91
Width: 1365
GlyphClass: 2
Flags: W
LayerCount: 2
Fore
SplineSet
1096 0 m 2,0,-1
 641 0 l 1,1,2
 548 274 548 274 352 659 c 0,3,4
 252 854 252 854 214 934 c 1,5,6
 214 947 214 947 246.5 973.5 c 128,-1,7
 279 1000 279 1000 301 1000 c 2,8,-1
 757 1000 l 1,9,10
 845 725 845 725 1042 346 c 0,11,12
 1142 153 1142 153 1184 66 c 1,13,14
 1184 52 1184 52 1152 26 c 128,-1,15
 1120 0 1120 0 1096 0 c 2,0,-1
975 614 m 1,16,17
 1005 698 1005 698 1005 799.5 c 128,-1,18
 1005 901 1005 901 985 934 c 1,19,20
 986 948 986 948 1019 974 c 128,-1,21
 1052 1000 1052 1000 1076 1000 c 2,22,-1
 1396 1000 l 1,23,24
 1365 971 1365 971 1307 920 c 128,-1,25
 1249 869 1249 869 1221 843 c 0,26,27
 1144 772 1144 772 1087 680 c 0,28,29
 1078 666 1078 666 1037.5 640 c 128,-1,30
 997 614 997 614 975 614 c 1,16,17
399 447 m 1,31,32
 354 340 354 340 354 234.5 c 128,-1,33
 354 129 354 129 381 66 c 1,34,35
 380 53 380 53 345.5 26.5 c 128,-1,36
 311 0 311 0 288 0 c 2,37,-1
 -30 0 l 1,38,39
 77 108 77 108 149 193 c 128,-1,40
 221 278 221 278 283 382 c 0,41,42
 291 396 291 396 333.5 421.5 c 128,-1,43
 376 447 376 447 399 447 c 1,31,32
EndSplineSet
EndChar

StartChar: y
Encoding: 121 121 92
Width: 1535
GlyphClass: 2
Flags: W
LayerCount: 2
Fore
SplineSet
178 314 m 0,0,1
 178 396 178 396 207.5 549 c 128,-1,2
 237 702 237 702 237 770 c 0,3,4
 237 876 237 876 181 899 c 1,5,6
 181 915 181 915 210 957.5 c 128,-1,7
 239 1000 239 1000 260 1000 c 2,8,-1
 649 1000 l 1,9,10
 672 992 672 992 688 968.5 c 128,-1,11
 704 945 704 945 704 903 c 128,-1,12
 704 861 704 861 684 768 c 0,13,14
 624 487 624 487 624 351 c 0,15,16
 624 288 624 288 661.5 254 c 128,-1,17
 699 220 699 220 752 220 c 1,18,19
 744 162 744 162 718 130 c 1,20,21
 610 62 610 62 466 62 c 0,22,23
 178 62 178 62 178 314 c 0,0,1
932 942 m 0,24,25
 932 954 932 954 963.5 975 c 128,-1,26
 995 996 995 996 1020 996 c 2,27,-1
 1413 996 l 1,28,29
 1333 614 1333 614 1280 89 c 0,30,31
 1240 -299 1240 -299 1038 -404 c 0,32,33
 916 -467 916 -467 716 -467 c 0,34,35
 685 -467 685 -467 617 -463 c 1,36,37
 702 -363 702 -363 747.5 -226.5 c 128,-1,38
 793 -90 793 -90 829.5 97.5 c 128,-1,39
 866 285 866 285 899 542.5 c 128,-1,40
 932 800 932 800 933 856 c 128,-1,41
 934 912 934 912 932 942 c 0,24,25
416 -438 m 1,42,43
 284 -427 284 -427 204.5 -377 c 128,-1,44
 125 -327 125 -327 125 -256.5 c 128,-1,45
 125 -186 125 -186 188 -137 c 0,46,47
 311 -41 311 -41 531 -41 c 0,48,49
 601 -41 601 -41 673 -53 c 1,50,51
 615 -109 615 -109 580 -175.5 c 128,-1,52
 545 -242 545 -242 545 -289 c 128,-1,53
 545 -336 545 -336 554 -371 c 1,54,55
 554 -386 554 -386 503.5 -412 c 128,-1,56
 453 -438 453 -438 416 -438 c 1,42,43
EndSplineSet
EndChar

StartChar: z
Encoding: 122 122 93
Width: 1365
GlyphClass: 2
Flags: W
LayerCount: 2
Fore
SplineSet
136 604 m 1,0,1
 157 793 157 793 196 928 c 1,2,3
 204 948 204 948 231 974 c 128,-1,4
 258 1000 258 1000 276 1000 c 2,5,-1
 600 1000 l 1,6,7
 590 976 590 976 567.5 943 c 128,-1,8
 545 910 545 910 522 895 c 0,9,10
 439 842 439 842 374 781 c 128,-1,11
 309 720 309 720 229 627 c 1,12,13
 223 618 223 618 193 611 c 128,-1,14
 163 604 163 604 136 604 c 1,0,1
1253 431 m 1,15,16
 1231 229 1231 229 1187 72 c 1,17,18
 1180 52 1180 52 1152.5 26 c 128,-1,19
 1125 0 1125 0 1107 0 c 2,20,-1
 763 0 l 1,21,22
 794 71 794 71 852.5 112.5 c 128,-1,23
 911 154 911 154 938 174.5 c 128,-1,24
 965 195 965 195 1008 232 c 0,25,26
 1078 293 1078 293 1146 396 c 0,27,28
 1153 406 1153 406 1191 418.5 c 128,-1,29
 1229 431 1229 431 1253 431 c 1,15,16
65 87 m 1,30,31
 416 464 416 464 734 1000 c 1,32,-1
 1221 1000 l 2,33,34
 1244 1000 1244 1000 1275.5 974 c 128,-1,35
 1307 948 1307 948 1310 934 c 1,36,37
 1184 797 1184 797 996.5 539.5 c 128,-1,38
 809 282 809 282 635 0 c 1,39,-1
 153 0 l 2,40,41
 130 0 130 0 97.5 36 c 128,-1,42
 65 72 65 72 65 87 c 1,30,31
EndSplineSet
EndChar

StartChar: braceleft
Encoding: 123 123 94
Width: 539
GlyphClass: 2
Flags: W
LayerCount: 2
Fore
SplineSet
217 976 m 2,0,-1
 243 1181 l 2,1,2
 261 1323 261 1323 293.5 1369.5 c 128,-1,3
 326 1416 326 1416 352.5 1435.5 c 128,-1,4
 379 1455 379 1455 424 1466 c 0,5,6
 492 1483 492 1483 627 1483 c 1,7,-1
 617 1400 l 1,8,9
 563 1400 563 1400 542.5 1380 c 128,-1,10
 522 1360 522 1360 513 1326 c 0,11,12
 497 1268 497 1268 483 1134 c 2,13,-1
 462 942 l 2,14,15
 437 711 437 711 208 666 c 1,16,17
 287 641 287 641 331 603 c 128,-1,18
 375 565 375 565 375 512.5 c 128,-1,19
 375 460 375 460 355 311 c 2,20,-1
 339 194 l 2,21,22
 331 136 331 136 331 44 c 0,23,24
 331 -100 331 -100 420 -105 c 1,25,-1
 409 -183 l 1,26,27
 243 -183 243 -183 166 -144 c 128,-1,28
 89 -105 89 -105 89 0 c 0,29,30
 89 75 89 75 102 196 c 2,31,-1
 118 336 l 2,32,33
 135 477 135 477 135 527.5 c 128,-1,34
 135 578 135 578 113.5 603 c 128,-1,35
 92 628 92 628 41 628 c 1,36,-1
 57 732 l 1,37,38
 140 732 140 732 169 778.5 c 128,-1,39
 198 825 198 825 217 976 c 2,0,-1
EndSplineSet
EndChar

StartChar: bar
Encoding: 124 124 95
Width: 782
GlyphClass: 2
Flags: W
LayerCount: 2
Fore
SplineSet
342 -361 m 1,0,1
 342 -374 342 -374 310.5 -396.5 c 128,-1,2
 279 -419 279 -419 254 -419 c 2,3,-1
 182 -419 l 1,4,5
 242 -41 242 -41 318.5 521 c 128,-1,6
 395 1083 395 1083 431 1411 c 1,7,8
 431 1424 431 1424 462.5 1446.5 c 128,-1,9
 494 1469 494 1469 519 1469 c 2,10,-1
 591 1469 l 1,11,12
 531 1091 531 1091 454.5 529 c 128,-1,13
 378 -33 378 -33 342 -361 c 1,0,1
EndSplineSet
EndChar

StartChar: braceright
Encoding: 125 125 96
Width: 539
GlyphClass: 2
Flags: W
LayerCount: 2
Fore
SplineSet
344 339 m 2,0,-1
 318 134 l 2,1,2
 300 -8 300 -8 267.5 -54.5 c 128,-1,3
 235 -101 235 -101 208.5 -120.5 c 128,-1,4
 182 -140 182 -140 138 -151 c 0,5,6
 69 -168 69 -168 -66 -168 c 1,7,-1
 -56 -85 l 1,8,9
 -2 -85 -2 -85 18.5 -65 c 128,-1,10
 39 -45 39 -45 48 -12 c 0,11,12
 64 47 64 47 78 181 c 2,13,-1
 99 373 l 2,14,15
 124 604 124 604 353 649 c 1,16,17
 274 674 274 674 230 712 c 128,-1,18
 186 750 186 750 186 802.5 c 128,-1,19
 186 855 186 855 206 1004 c 2,20,-1
 222 1121 l 2,21,22
 230 1179 230 1179 230 1271 c 0,23,24
 230 1415 230 1415 141 1420 c 1,25,-1
 152 1498 l 1,26,27
 318 1498 318 1498 395 1459 c 128,-1,28
 472 1420 472 1420 472 1315 c 0,29,30
 472 1240 472 1240 459 1119 c 2,31,-1
 443 979 l 2,32,33
 426 838 426 838 426 787.5 c 128,-1,34
 426 737 426 737 447.5 712 c 128,-1,35
 469 687 469 687 520 687 c 1,36,-1
 504 583 l 1,37,38
 421 583 421 583 392 536.5 c 128,-1,39
 363 490 363 490 344 339 c 2,0,-1
EndSplineSet
EndChar

StartChar: asciitilde
Encoding: 126 126 97
Width: 1365
GlyphClass: 2
Flags: W
LayerCount: 2
Fore
SplineSet
1206 451 m 1,0,1
 1042 386 1042 386 906.5 386 c 128,-1,2
 771 386 771 386 604.5 412.5 c 128,-1,3
 438 439 438 439 325.5 439 c 128,-1,4
 213 439 213 439 119 413 c 1,5,6
 119 476 119 476 127 507 c 1,7,8
 294 572 294 572 421 572 c 128,-1,9
 548 572 548 572 702 545.5 c 128,-1,10
 856 519 856 519 988 519 c 128,-1,11
 1120 519 1120 519 1214 545 c 1,12,13
 1214 482 1214 482 1206 451 c 1,0,1
EndSplineSet
EndChar

StartChar: exclamdown
Encoding: 161 161 98
Width: 856
GlyphClass: 2
Flags: W
LayerCount: 2
Fore
SplineSet
340 586 m 2,0,-1
 563 597 l 1,1,2
 530 351 530 351 530 -158 c 0,3,4
 530 -229 530 -229 525 -280 c 1,5,6
 525 -293 525 -293 492.5 -318.5 c 128,-1,7
 460 -344 460 -344 438 -345 c 2,8,-1
 29 -360 l 1,9,10
 179 177 179 177 253 520 c 1,11,12
 253 534 253 534 284.5 559.5 c 128,-1,13
 316 585 316 585 340 586 c 2,0,-1
637.5 981 m 128,-1,15
 697 939 697 939 697 878 c 128,-1,16
 697 817 697 817 652 774 c 1,17,18
 567 690 567 690 426 690 c 0,19,20
 325 690 325 690 266 732.5 c 128,-1,21
 207 775 207 775 207 846 c 128,-1,22
 207 917 207 917 286.5 970 c 128,-1,23
 366 1023 366 1023 472 1023 c 128,-1,14
 578 1023 578 1023 637.5 981 c 128,-1,15
EndSplineSet
EndChar

StartChar: cent
Encoding: 162 162 99
Width: 1365
GlyphClass: 2
Flags: W
LayerCount: 2
Fore
SplineSet
713 -212 m 1,0,1
 713 -225 713 -225 681.5 -247.5 c 128,-1,2
 650 -270 650 -270 625 -270 c 2,3,-1
 593 -270 l 1,4,5
 613 -187 613 -187 640 -15 c 1,6,7
 415 1 415 1 274 124.5 c 128,-1,8
 133 248 133 248 133 460 c 0,9,10
 133 625 133 625 215 756.5 c 128,-1,11
 297 888 297 888 434 959 c 128,-1,12
 571 1030 571 1030 736 1030 c 0,13,14
 749 1030 749 1030 777 1028 c 1,15,16
 791 1148 791 1148 798 1240 c 0,17,18
 798 1253 798 1253 829.5 1274.5 c 128,-1,19
 861 1296 861 1296 885 1296 c 2,20,-1
 926 1296 l 1,21,22
 902 1201 902 1201 870 1016 c 1,23,24
 766 936 766 936 697.5 799 c 128,-1,25
 629 662 629 662 629 538 c 128,-1,26
 629 414 629 414 659 340 c 128,-1,27
 689 266 689 266 744 221 c 0,28,29
 853 132 853 132 1027 132 c 0,30,31
 1115 132 1115 132 1215 155 c 1,32,33
 1135 60 1135 60 1022 22 c 128,-1,34
 909 -16 909 -16 732 -18 c 1,35,36
 721 -112 721 -112 713 -212 c 1,0,1
1039 989 m 1,37,38
 1154 965 1154 965 1223.5 885 c 128,-1,39
 1293 805 1293 805 1293 724.5 c 128,-1,40
 1293 644 1293 644 1222 605.5 c 128,-1,41
 1151 567 1151 567 1080 567 c 128,-1,42
 1009 567 1009 567 938 594 c 1,43,44
 945 688 945 688 945 765.5 c 128,-1,45
 945 843 945 843 932 924 c 1,46,47
 935 946 935 946 972.5 967.5 c 128,-1,48
 1010 989 1010 989 1039 989 c 1,37,38
EndSplineSet
EndChar

StartChar: sterling
Encoding: 163 163 100
Width: 1365
GlyphClass: 2
Flags: W
LayerCount: 2
Fore
SplineSet
231 278 m 1,0,1
 267 372 267 372 292 493 c 1,2,3
 128 468 128 468 41 447 c 1,4,-1
 41 479 l 2,5,6
 41 504 41 504 63.5 535.5 c 128,-1,7
 86 567 86 567 99 567 c 1,8,9
 150 571 150 571 310 588 c 1,10,11
 317 634 317 634 328.5 716.5 c 128,-1,12
 340 799 340 799 346 836 c 128,-1,13
 352 873 352 873 365 938.5 c 128,-1,14
 378 1004 378 1004 391 1038 c 128,-1,15
 404 1072 404 1072 426.5 1124.5 c 128,-1,16
 449 1177 449 1177 476 1205.5 c 128,-1,17
 503 1234 503 1234 543 1269.5 c 128,-1,18
 583 1305 583 1305 631 1324 c 0,19,20
 748 1372 748 1372 884 1381 c 1,21,22
 807 1169 807 1169 773 904 c 0,23,24
 752 741 752 741 745 640 c 1,25,26
 926 669 926 669 992 686 c 1,27,-1
 992 645 l 2,28,29
 992 621 992 621 970.5 589.5 c 128,-1,30
 949 558 949 558 936 558 c 0,31,32
 887 555 887 555 733 540 c 1,33,34
 715 431 715 431 666 384 c 0,35,36
 601 322 601 322 401 300 c 0,37,38
 337 293 337 293 231 278 c 1,0,1
968 -37 m 1,39,-1
 366 -22 l 1,40,41
 163 -22 163 -22 46 -30 c 1,42,43
 56 17 56 17 89 66 c 128,-1,44
 122 115 122 115 170 144 c 128,-1,45
 218 173 218 173 330 189.5 c 128,-1,46
 442 206 442 206 570 213.5 c 128,-1,47
 698 221 698 221 830 234.5 c 128,-1,48
 962 248 962 248 1086 288.5 c 128,-1,49
 1210 329 1210 329 1285 398 c 1,50,51
 1254 166 1254 166 1214 92 c 1,52,53
 1176 18 1176 18 1124 -8 c 1,54,55
 1063 -37 1063 -37 968 -37 c 1,39,-1
1180 755 m 1,56,57
 1142 941 1142 941 1092 1064.5 c 128,-1,58
 1042 1188 1042 1188 948 1295 c 1,59,60
 950 1313 950 1313 982 1337 c 128,-1,61
 1014 1361 1014 1361 1036 1361 c 1,62,63
 1210 1342 1210 1342 1360 1289 c 1,64,65
 1358 1231 1358 1231 1335 1073 c 128,-1,66
 1312 915 1312 915 1290 822 c 0,67,68
 1286 806 1286 806 1245 780.5 c 128,-1,69
 1204 755 1204 755 1180 755 c 1,56,57
EndSplineSet
EndChar

StartChar: currency
Encoding: 164 164 101
Width: 1365
GlyphClass: 2
Flags: W
LayerCount: 2
Fore
SplineSet
364 1205 m 1,0,-1
 469 1023 l 1,1,2
 617 1116 617 1116 768 1116 c 128,-1,3
 919 1116 919 1116 1028 1049 c 1,4,-1
 1117 1170 l 2,5,6
 1130 1188 1130 1188 1159 1210.5 c 128,-1,7
 1188 1233 1188 1233 1212 1234 c 1,8,-1
 1327 1181 l 1,9,10
 1215 1054 1215 1054 1134 956 c 1,11,12
 1234 834 1234 834 1234 667 c 0,13,14
 1234 541 1234 541 1179 425.5 c 128,-1,15
 1124 310 1124 310 1028 224 c 1,16,17
 1109 111 1109 111 1183 16 c 1,18,19
 1183 3 1183 3 1151.5 -19.5 c 128,-1,20
 1120 -42 1120 -42 1095 -42 c 2,21,-1
 1023 -42 l 1,22,23
 937 98 937 98 911 139 c 1,24,25
 771 59 771 59 621.5 59 c 128,-1,26
 472 59 472 59 359 134 c 1,27,28
 350 121 350 121 322 83.5 c 128,-1,29
 294 46 294 46 280 26 c 128,-1,30
 266 6 266 6 237 -16.5 c 128,-1,31
 208 -39 208 -39 184 -40 c 1,32,-1
 69 13 l 1,33,34
 159 115 159 115 256 230 c 1,35,36
 165 348 165 348 165 508 c 0,37,38
 165 622 165 622 215.5 733 c 128,-1,39
 266 844 266 844 355 932 c 1,40,41
 214 1132 214 1132 204 1147 c 1,42,43
 204 1160 204 1160 235.5 1182.5 c 128,-1,44
 267 1205 267 1205 292 1205 c 2,45,-1
 364 1205 l 1,0,-1
1000.5 884.5 m 128,-1,47
 905 979 905 979 774.5 979 c 128,-1,48
 644 979 644 979 538 917 c 128,-1,49
 432 855 432 855 367 750 c 128,-1,50
 302 645 302 645 302 514.5 c 128,-1,51
 302 384 302 384 397 289.5 c 128,-1,52
 492 195 492 195 639 195 c 0,53,54
 726 195 726 195 809.5 232 c 128,-1,55
 893 269 893 269 956 330 c 128,-1,56
 1019 391 1019 391 1057.5 475 c 128,-1,57
 1096 559 1096 559 1096 648 c 0,58,46
 1096 790 1096 790 1000.5 884.5 c 128,-1,47
EndSplineSet
EndChar

StartChar: yen
Encoding: 165 165 102
Width: 1365
GlyphClass: 2
Flags: W
LayerCount: 2
Fore
SplineSet
113 400 m 1,0,1
 211 408 211 408 369 426 c 1,2,-1
 348 530 l 1,3,4
 160 501 160 501 75 480 c 1,5,-1
 75 512 l 2,6,7
 75 537 75 537 97.5 568.5 c 128,-1,8
 120 600 120 600 133 600 c 1,9,10
 182 604 182 604 329 619 c 1,11,12
 266 908 266 908 153 1296 c 1,13,14
 153 1309 153 1309 184.5 1335 c 128,-1,15
 216 1361 216 1361 240 1361 c 2,16,-1
 705 1361 l 1,17,18
 753 863 753 863 894 436 c 1,19,20
 932 442 932 442 1006 453 c 0,21,22
 1170 477 1170 477 1219 489 c 1,23,-1
 1219 448 l 2,24,25
 1219 424 1219 424 1197.5 392.5 c 128,-1,26
 1176 361 1176 361 1162.5 360.5 c 128,-1,27
 1149 360 1149 360 1100 356 c 1,28,29
 1031 352 1031 352 898 340 c 1,30,31
 877 231 877 231 860 66 c 1,32,33
 860 53 860 53 827.5 26.5 c 128,-1,34
 795 0 795 0 771 0 c 2,35,-1
 329 0 l 1,36,37
 365 185 365 185 383 338 c 1,38,39
 151 303 151 303 55 280 c 1,40,-1
 55 312 l 2,41,42
 55 337 55 337 77.5 368.5 c 128,-1,43
 100 400 100 400 113 400 c 1,0,1
1420 1361 m 1,44,45
 1280 1142 1280 1142 1032 652 c 1,46,47
 1206 684 1206 684 1259 698 c 1,48,-1
 1259 657 l 2,49,50
 1259 633 1259 633 1237.5 601.5 c 128,-1,51
 1216 570 1216 570 1203 570 c 1,52,53
 1099 561 1099 561 929 541 c 1,54,-1
 923 541 l 1,55,56
 1015 882 1015 882 1015 1215 c 0,57,58
 1015 1269 1015 1269 1013 1296 c 0,59,60
 1013 1309 1013 1309 1045.5 1335 c 128,-1,61
 1078 1361 1078 1361 1102 1361 c 2,62,-1
 1420 1361 l 1,44,45
EndSplineSet
EndChar

StartChar: brokenbar
Encoding: 166 166 103
Width: 782
GlyphClass: 2
Flags: W
LayerCount: 2
Fore
SplineSet
309 435 m 1,0,-1
 445 441 l 1,1,2
 371 -102 371 -102 342 -361 c 1,3,4
 342 -374 342 -374 310.5 -396.5 c 128,-1,5
 279 -419 279 -419 254 -419 c 2,6,-1
 182 -419 l 1,7,8
 257 51 257 51 309 435 c 1,0,-1
483 720 m 1,9,-1
 347 710 l 1,10,11
 392 1050 392 1050 431 1411 c 1,12,13
 431 1424 431 1424 462.5 1446.5 c 128,-1,14
 494 1469 494 1469 519 1469 c 2,15,-1
 591 1469 l 1,16,17
 554 1237 554 1237 483 720 c 1,9,-1
EndSplineSet
EndChar

StartChar: section
Encoding: 167 167 104
Width: 1319
GlyphClass: 2
Flags: W
LayerCount: 2
Fore
SplineSet
797 1502 m 1,0,1
 740 1448 740 1448 740 1388 c 0,2,3
 740 1248 740 1248 953 1098 c 0,4,5
 1168 947 1168 947 1208 858 c 0,6,7
 1225 818 1225 818 1225 774 c 0,8,9
 1225 563 1225 563 910 563 c 0,10,11
 846 563 846 563 769 572 c 1,12,13
 769 660 769 660 674 744 c 0,14,15
 632 781 632 781 581 818.5 c 128,-1,16
 530 856 530 856 479 895 c 128,-1,17
 428 934 428 934 386 975 c 0,18,19
 291 1068 291 1068 291 1176 c 0,20,21
 291 1295 291 1295 379 1370 c 0,22,23
 530 1497 530 1497 797 1502 c 1,0,1
140.5 406 m 128,-1,25
 114 453 114 453 114 503 c 128,-1,26
 114 553 114 553 134.5 594 c 128,-1,27
 155 635 155 635 192.5 661 c 128,-1,28
 230 687 230 687 273.5 705.5 c 128,-1,29
 317 724 317 724 372 734 c 0,30,31
 466 750 466 750 567 752 c 1,32,33
 567 612 567 612 780 462 c 0,34,35
 876 394 876 394 930 346 c 0,36,37
 1051 238 1051 238 1051 111.5 c 128,-1,38
 1051 -15 1051 -15 924.5 -92.5 c 128,-1,39
 798 -170 798 -170 570 -170 c 1,40,41
 596 -112 596 -112 596 -66 c 128,-1,42
 596 -20 596 -20 569.5 23 c 128,-1,43
 543 66 543 66 500.5 102 c 128,-1,44
 458 138 458 138 406.5 173.5 c 128,-1,45
 355 209 355 209 303.5 246 c 128,-1,46
 252 283 252 283 209.5 321 c 128,-1,24
 167 359 167 359 140.5 406 c 128,-1,25
177 -136 m 128,-1,48
 143 -106 143 -106 143 -53 c 128,-1,49
 143 0 143 0 192.5 35.5 c 128,-1,50
 242 71 242 71 299 71 c 128,-1,51
 356 71 356 71 390.5 40.5 c 128,-1,52
 425 10 425 10 425 -40 c 128,-1,53
 425 -90 425 -90 379.5 -128 c 128,-1,54
 334 -166 334 -166 272.5 -166 c 128,-1,47
 211 -166 211 -166 177 -136 c 128,-1,48
938 1294 m 128,-1,56
 904 1324 904 1324 904 1377 c 128,-1,57
 904 1430 904 1430 953.5 1465.5 c 128,-1,58
 1003 1501 1003 1501 1060 1501 c 128,-1,59
 1117 1501 1117 1501 1151.5 1470.5 c 128,-1,60
 1186 1440 1186 1440 1186 1390 c 128,-1,61
 1186 1340 1186 1340 1140.5 1302 c 128,-1,62
 1095 1264 1095 1264 1033.5 1264 c 128,-1,55
 972 1264 972 1264 938 1294 c 128,-1,56
EndSplineSet
EndChar

StartChar: dieresis
Encoding: 168 168 105
Width: 1122
GlyphClass: 2
Flags: W
LayerCount: 2
Fore
SplineSet
166.5 1179.5 m 128,-1,1
 115 1224 115 1224 115 1287.5 c 128,-1,2
 115 1351 115 1351 154 1397 c 0,3,4
 227 1485 227 1485 349 1485 c 0,5,6
 437 1485 437 1485 488.5 1440.5 c 128,-1,7
 540 1396 540 1396 540 1322 c 128,-1,8
 540 1248 540 1248 471 1191.5 c 128,-1,9
 402 1135 402 1135 310 1135 c 128,-1,0
 218 1135 218 1135 166.5 1179.5 c 128,-1,1
722.5 1179.5 m 128,-1,11
 671 1224 671 1224 671 1287.5 c 128,-1,12
 671 1351 671 1351 710 1397 c 0,13,14
 785 1485 785 1485 889.5 1485 c 128,-1,15
 994 1485 994 1485 1045 1440.5 c 128,-1,16
 1096 1396 1096 1396 1096 1322 c 128,-1,17
 1096 1248 1096 1248 1027 1191.5 c 128,-1,18
 958 1135 958 1135 866 1135 c 128,-1,10
 774 1135 774 1135 722.5 1179.5 c 128,-1,11
EndSplineSet
EndChar

StartChar: copyright
Encoding: 169 169 106
Width: 1707
GlyphClass: 2
Flags: W
LayerCount: 2
Fore
SplineSet
150 680 m 128,-1,1
 150 824 150 824 205.5 954.5 c 128,-1,2
 261 1085 261 1085 355.5 1179.5 c 128,-1,3
 450 1274 450 1274 580.5 1330 c 128,-1,4
 711 1386 711 1386 855 1386 c 128,-1,5
 999 1386 999 1386 1129.5 1330 c 128,-1,6
 1260 1274 1260 1274 1354.5 1179.5 c 128,-1,7
 1449 1085 1449 1085 1505 954.5 c 128,-1,8
 1561 824 1561 824 1561 680 c 128,-1,9
 1561 536 1561 536 1505 405.5 c 128,-1,10
 1449 275 1449 275 1354.5 180.5 c 128,-1,11
 1260 86 1260 86 1129.5 30.5 c 128,-1,12
 999 -25 999 -25 855 -25 c 128,-1,13
 711 -25 711 -25 580.5 30.5 c 128,-1,14
 450 86 450 86 355.5 180.5 c 128,-1,15
 261 275 261 275 205.5 405.5 c 128,-1,0
 150 536 150 536 150 680 c 128,-1,1
230 680 m 128,-1,17
 230 510 230 510 313.5 366 c 128,-1,18
 397 222 397 222 541 138.5 c 128,-1,19
 685 55 685 55 855 55 c 128,-1,20
 1025 55 1025 55 1169 138.5 c 128,-1,21
 1313 222 1313 222 1396.5 366 c 128,-1,22
 1480 510 1480 510 1480 680 c 128,-1,23
 1480 850 1480 850 1396.5 994 c 128,-1,24
 1313 1138 1313 1138 1169 1221.5 c 128,-1,25
 1025 1305 1025 1305 855 1305 c 128,-1,26
 685 1305 685 1305 541 1221.5 c 128,-1,27
 397 1138 397 1138 313.5 994 c 128,-1,16
 230 850 230 850 230 680 c 128,-1,17
1114 723 m 1,28,29
 1091 835 1091 835 1060.5 909.5 c 128,-1,30
 1030 984 1030 984 974 1048 c 1,31,32
 976 1059 976 1059 995 1073.5 c 128,-1,33
 1014 1088 1014 1088 1027 1088 c 1,34,35
 1135 1076 1135 1076 1222 1045 c 1,36,37
 1220 1009 1220 1009 1206.5 913.5 c 128,-1,38
 1193 818 1193 818 1180 763 c 0,39,40
 1178 754 1178 754 1153.5 738.5 c 128,-1,41
 1129 723 1129 723 1114 723 c 1,28,29
1170 572 m 1,42,43
 1157 437 1157 437 1132 322 c 1,44,45
 1098 292 1098 292 1020.5 273.5 c 128,-1,46
 943 255 943 255 844 255 c 1,47,48
 932 318 932 318 984.5 380.5 c 128,-1,49
 1037 443 1037 443 1091 537 c 1,50,51
 1105 551 1105 551 1130 561.5 c 128,-1,52
 1155 572 1155 572 1170 572 c 1,42,43
938 1103 m 1,53,54
 850 1027 850 1027 800 884 c 128,-1,55
 750 741 750 741 750 575.5 c 128,-1,56
 750 410 750 410 807 296 c 1,57,58
 807 287 807 287 787.5 271 c 128,-1,59
 768 255 768 255 754 255 c 1,60,61
 621 279 621 279 529.5 378 c 128,-1,62
 438 477 438 477 438 624 c 0,63,64
 438 810 438 810 554 952 c 0,65,66
 611 1021 611 1021 704.5 1062.5 c 128,-1,67
 798 1104 798 1104 915 1104 c 0,68,69
 929 1104 929 1104 938 1103 c 1,53,54
EndSplineSet
EndChar

StartChar: ordfeminine
Encoding: 170 170 107
Width: 1025
GlyphClass: 2
Flags: W
LayerCount: 2
Fore
SplineSet
944 737 m 1,0,1
 801 707 801 707 628 707 c 1,2,3
 591 756 591 756 591 809 c 128,-1,4
 591 862 591 862 624 1080 c 128,-1,5
 657 1298 657 1298 658 1369 c 0,6,7
 658 1378 658 1378 681.5 1396.5 c 128,-1,8
 705 1415 705 1415 722 1415 c 0,9,10
 891 1415 891 1415 1027 1375 c 1,11,12
 1024 1352 1024 1352 988 1195.5 c 128,-1,13
 952 1039 952 1039 952 944 c 128,-1,14
 952 849 952 849 1005 800 c 1,15,16
 1005 790 1005 790 984 767.5 c 128,-1,17
 963 745 963 745 944 737 c 1,0,1
596 1425 m 1,18,19
 508 1363 508 1363 463.5 1257 c 128,-1,20
 419 1151 419 1151 419 1048.5 c 128,-1,21
 419 946 419 946 442.5 865 c 128,-1,22
 466 784 466 784 507 757 c 1,23,24
 507 747 507 747 483.5 727.5 c 128,-1,25
 460 708 460 708 444 708 c 0,26,27
 275 708 275 708 169 789.5 c 128,-1,28
 63 871 63 871 63 1010 c 0,29,30
 63 1186 63 1186 209 1305.5 c 128,-1,31
 355 1425 355 1425 596 1425 c 1,18,19
EndSplineSet
EndChar

StartChar: guillemotleft
Encoding: 171 171 108
Width: 1344
GlyphClass: 2
Flags: W
LayerCount: 2
Fore
SplineSet
771 970 m 1,0,-1
 771 843 l 2,1,2
 771 822 771 822 748 796 c 128,-1,3
 725 770 725 770 639 701 c 128,-1,4
 553 632 553 632 358 455 c 1,5,6
 533 259 533 259 671 114 c 1,7,8
 671 94 671 94 643.5 37.5 c 128,-1,9
 616 -19 616 -19 605 -24 c 1,10,11
 385 164 385 164 94 393 c 1,12,13
 102 483 102 483 118 545 c 1,14,15
 463 765 463 765 771 970 c 1,0,-1
1301 970 m 1,16,-1
 1301 843 l 2,17,18
 1301 822 1301 822 1278 796 c 128,-1,19
 1255 770 1255 770 1169 701 c 128,-1,20
 1083 632 1083 632 888 455 c 1,21,22
 1063 259 1063 259 1201 114 c 1,23,24
 1201 94 1201 94 1173.5 37.5 c 128,-1,25
 1146 -19 1146 -19 1135 -24 c 1,26,27
 915 164 915 164 624 393 c 1,28,29
 632 483 632 483 648 545 c 1,30,31
 993 765 993 765 1301 970 c 1,16,-1
EndSplineSet
EndChar

StartChar: logicalnot
Encoding: 172 172 109
Width: 1365
GlyphClass: 2
Flags: W
LayerCount: 2
Fore
SplineSet
1112 268 m 1,0,1
 1112 255 1112 255 1080.5 232.5 c 128,-1,2
 1049 210 1049 210 1024 210 c 2,3,-1
 952 210 l 1,4,5
 976 325 976 325 987 442 c 1,6,7
 633 441 633 441 207 427 c 1,8,-1
 207 496 l 2,9,10
 207 521 207 521 229.5 552 c 128,-1,11
 252 583 252 583 265 584 c 1,12,13
 739 584 739 584 1157 599 c 1,14,15
 1131 461 1131 461 1112 268 c 1,0,1
EndSplineSet
EndChar

StartChar: uni00AD
Encoding: 173 173 110
Width: 1707
GlyphClass: 2
Flags: W
LayerCount: 2
Fore
SplineSet
1270 447 m 0,0,1
 845 447 845 447 378 432 c 1,2,-1
 378 496 l 2,3,4
 378 521 378 521 400.5 552 c 128,-1,5
 423 583 423 583 436 584 c 1,6,7
 910 584 910 584 1328 599 c 1,8,-1
 1328 535 l 2,9,10
 1328 510 1328 510 1305.5 478.5 c 128,-1,11
 1283 447 1283 447 1270 447 c 0,0,1
EndSplineSet
EndChar

StartChar: registered
Encoding: 174 174 111
Width: 1707
GlyphClass: 2
Flags: W
LayerCount: 2
Fore
SplineSet
150 680 m 128,-1,1
 150 824 150 824 205.5 954.5 c 128,-1,2
 261 1085 261 1085 355.5 1179.5 c 128,-1,3
 450 1274 450 1274 580.5 1330 c 128,-1,4
 711 1386 711 1386 855 1386 c 128,-1,5
 999 1386 999 1386 1129.5 1330 c 128,-1,6
 1260 1274 1260 1274 1354.5 1179.5 c 128,-1,7
 1449 1085 1449 1085 1505 954.5 c 128,-1,8
 1561 824 1561 824 1561 680 c 128,-1,9
 1561 536 1561 536 1505 405.5 c 128,-1,10
 1449 275 1449 275 1354.5 180.5 c 128,-1,11
 1260 86 1260 86 1129.5 30.5 c 128,-1,12
 999 -25 999 -25 855 -25 c 128,-1,13
 711 -25 711 -25 580.5 30.5 c 128,-1,14
 450 86 450 86 355.5 180.5 c 128,-1,15
 261 275 261 275 205.5 405.5 c 128,-1,0
 150 536 150 536 150 680 c 128,-1,1
230 680 m 128,-1,17
 230 510 230 510 313.5 366 c 128,-1,18
 397 222 397 222 541 138.5 c 128,-1,19
 685 55 685 55 855 55 c 128,-1,20
 1025 55 1025 55 1169 138.5 c 128,-1,21
 1313 222 1313 222 1396.5 366 c 128,-1,22
 1480 510 1480 510 1480 680 c 128,-1,23
 1480 850 1480 850 1396.5 994 c 128,-1,24
 1313 1138 1313 1138 1169 1221.5 c 128,-1,25
 1025 1305 1025 1305 855 1305 c 128,-1,26
 685 1305 685 1305 541 1221.5 c 128,-1,27
 397 1138 397 1138 313.5 994 c 128,-1,16
 230 850 230 850 230 680 c 128,-1,17
760 320 m 0,28,29
 760 312 760 312 740.5 296 c 128,-1,30
 721 280 721 280 707 280 c 2,31,-1
 433 280 l 1,32,33
 514 605 514 605 551 1055 c 0,34,35
 551 1062 551 1062 570 1077.5 c 128,-1,36
 589 1093 589 1093 603 1094 c 0,37,38
 783 1109 783 1109 879 1109 c 1,39,40
 792 732 792 732 760 320 c 0,28,29
1198 551 m 1,41,-1
 1189 430 l 1,42,43
 1189 397 1189 397 1201 377.5 c 128,-1,44
 1213 358 1213 358 1246 352 c 1,45,46
 1239 311 1239 311 1226 290 c 1,47,48
 1124 265 1124 265 1045.5 265 c 128,-1,49
 967 265 967 265 925.5 286 c 128,-1,50
 884 307 884 307 884 351 c 128,-1,51
 884 395 884 395 897.5 471 c 128,-1,52
 911 547 911 547 911 577 c 0,53,54
 911 652 911 652 858 658 c 1,55,56
 861 686 861 686 878 706 c 1,57,58
 928 732 928 732 956.5 788 c 128,-1,59
 985 844 985 844 985 925.5 c 128,-1,60
 985 1007 985 1007 927 1068 c 1,61,62
 927 1077 927 1077 946.5 1093.5 c 128,-1,63
 966 1110 966 1110 979 1110 c 0,64,65
 1088 1110 1088 1110 1166 1065 c 0,66,67
 1253 1015 1253 1015 1253 920 c 128,-1,68
 1253 825 1253 825 1175.5 765.5 c 128,-1,69
 1098 706 1098 706 967 697 c 1,70,-1
 1022 693 l 2,71,72
 1101 687 1101 687 1149.5 652 c 128,-1,73
 1198 617 1198 617 1198 551 c 1,41,-1
EndSplineSet
EndChar

StartChar: macron
Encoding: 175 175 112
Width: 1122
GlyphClass: 2
Flags: W
LayerCount: 2
Fore
SplineSet
850 1217 m 0,0,1
 495 1217 495 1217 258 1202 c 1,2,-1
 288 1421 l 2,3,4
 292 1446 292 1446 313 1477 c 128,-1,5
 334 1508 334 1508 346 1509 c 1,6,7
 734 1509 734 1509 938 1524 c 1,8,-1
 908 1305 l 2,9,10
 904 1279 904 1279 883 1248 c 128,-1,11
 862 1217 862 1217 850 1217 c 0,0,1
EndSplineSet
EndChar

StartChar: degree
Encoding: 176 176 113
Width: 736
GlyphClass: 2
Flags: W
LayerCount: 2
Fore
SplineSet
112 1161 m 0,0,1
 112 1310 112 1310 205.5 1405.5 c 128,-1,2
 299 1501 299 1501 446 1501 c 0,3,4
 555 1501 555 1501 621.5 1430 c 128,-1,5
 688 1359 688 1359 688 1251 c 0,6,7
 688 1097 688 1097 593.5 1004.5 c 128,-1,8
 499 912 499 912 372.5 912 c 128,-1,9
 246 912 246 912 179 982.5 c 128,-1,10
 112 1053 112 1053 112 1161 c 0,0,1
295.5 1325.5 m 128,-1,12
 244 1270 244 1270 244 1191.5 c 128,-1,13
 244 1113 244 1113 279 1072.5 c 128,-1,14
 314 1032 314 1032 383 1032 c 128,-1,15
 452 1032 452 1032 504 1085.5 c 128,-1,16
 556 1139 556 1139 556 1219 c 128,-1,17
 556 1299 556 1299 521.5 1340 c 128,-1,18
 487 1381 487 1381 417 1381 c 128,-1,11
 347 1381 347 1381 295.5 1325.5 c 128,-1,12
EndSplineSet
EndChar

StartChar: plusminus
Encoding: 177 177 114
Width: 1365
GlyphClass: 2
Flags: W
LayerCount: 2
Fore
SplineSet
1129 547 m 0,0,1
 897 559 897 559 765 560 c 1,2,3
 747 428 747 428 732 284.5 c 128,-1,4
 717 141 717 141 713 133 c 1,5,6
 860 136 860 136 1127 146 c 1,7,-1
 1127 77 l 2,8,9
 1127 52 1127 52 1104.5 20.5 c 128,-1,10
 1082 -11 1082 -11 1069 -11 c 0,11,12
 644 -11 644 -11 177 -26 c 1,13,-1
 177 43 l 2,14,15
 177 68 177 68 199.5 99 c 128,-1,16
 222 130 222 130 235 131 c 1,17,-1
 564 131 l 1,18,19
 618 475 618 475 630 560 c 1,20,21
 500 556 500 556 237 532 c 1,22,-1
 237 604 l 2,23,24
 237 629 237 629 259.5 660 c 128,-1,25
 282 691 282 691 295 692 c 1,26,27
 501 681 501 681 646 678 c 1,28,29
 654 741 654 741 692 1077 c 1,30,31
 692 1090 692 1090 723.5 1112.5 c 128,-1,32
 755 1135 755 1135 780 1135 c 2,33,-1
 852 1135 l 1,34,35
 811 882 811 882 781 678 c 1,36,37
 896 681 896 681 1187 707 c 1,38,-1
 1187 635 l 2,39,40
 1187 610 1187 610 1164.5 578.5 c 128,-1,41
 1142 547 1142 547 1129 547 c 0,0,1
EndSplineSet
EndChar

StartChar: twosuperior
Encoding: 178 178 115
Width: 1025
GlyphClass: 2
Flags: W
LayerCount: 2
Fore
SplineSet
493 758 m 2,0,-1
 493 746 l 2,1,2
 493 738 493 738 471.5 723.5 c 128,-1,3
 450 709 450 709 434 709 c 2,4,-1
 124 709 l 1,5,6
 112 740 112 740 112 779.5 c 128,-1,7
 112 819 112 819 138.5 867.5 c 128,-1,8
 165 916 165 916 208 959 c 128,-1,9
 251 1002 251 1002 302.5 1045.5 c 128,-1,10
 354 1089 354 1089 406 1130.5 c 128,-1,11
 458 1172 458 1172 501 1211 c 0,12,13
 597 1298 597 1298 597 1368 c 0,14,15
 597 1393 597 1393 585 1417 c 1,16,17
 585 1424 585 1424 606.5 1438 c 128,-1,18
 628 1452 628 1452 644 1453 c 1,19,20
 929 1435 929 1435 929 1264 c 0,21,22
 929 1156 929 1156 775 1038 c 0,23,24
 711 989 711 989 647 942 c 0,25,26
 493 831 493 831 493 758 c 2,0,-1
179 1181 m 1,27,28
 194 1303 194 1303 236 1407 c 1,29,30
 242 1418 242 1418 259 1431 c 128,-1,31
 276 1444 276 1444 291 1447 c 0,32,33
 420 1471 420 1471 554 1473 c 1,34,35
 456 1433 456 1433 399 1378 c 0,36,37
 324 1305 324 1305 248 1217 c 0,38,39
 242 1210 242 1210 217.5 1195.5 c 128,-1,40
 193 1181 193 1181 179 1181 c 1,27,28
824 928 m 0,41,42
 831 936 831 936 855 950 c 128,-1,43
 879 964 879 964 894 964 c 1,44,45
 872 815 872 815 851 749 c 1,46,47
 844 737 844 737 826 723 c 128,-1,48
 808 709 808 709 796 709 c 2,49,-1
 556 709 l 1,50,51
 692 783 692 783 824 928 c 0,41,42
EndSplineSet
EndChar

StartChar: threesuperior
Encoding: 179 179 116
Width: 1025
GlyphClass: 2
Flags: W
LayerCount: 2
Fore
SplineSet
950 1286 m 0,0,1
 950 1117 950 1117 534 1095 c 1,2,3
 717 1095 717 1095 774.5 1074 c 128,-1,4
 832 1053 832 1053 866 1032 c 0,5,6
 937 989 937 989 937 908.5 c 128,-1,7
 937 828 937 828 877 780 c 0,8,9
 765 689 765 689 530 689 c 0,10,11
 458 689 458 689 400 698 c 1,12,13
 572 777 572 777 572 920 c 0,14,15
 572 969 572 969 541 1003 c 0,16,17
 483 1066 483 1066 359 1070 c 1,18,-1
 358 1083 l 1,19,20
 358 1102 358 1102 370 1124 c 1,21,22
 480 1124 480 1124 551.5 1185.5 c 128,-1,23
 623 1247 623 1247 623 1319 c 128,-1,24
 623 1391 623 1391 567 1428 c 1,25,26
 567 1437 567 1437 591.5 1452 c 128,-1,27
 616 1467 616 1467 633 1467 c 0,28,29
 801 1467 801 1467 898 1388 c 0,30,31
 950 1345 950 1345 950 1286 c 0,0,1
216 992 m 1,32,33
 272 805 272 805 370 748 c 1,34,35
 368 739 368 739 344.5 721 c 128,-1,36
 321 703 321 703 305 703 c 1,37,38
 255 707 255 707 191 722 c 128,-1,39
 127 737 127 737 102 747 c 1,40,41
 119 873 119 873 139 966 c 1,42,43
 162 981 162 981 216 992 c 1,32,33
176 1177 m 1,44,45
 197 1321 197 1321 216 1361 c 0,46,47
 252 1440 252 1440 294 1447 c 1,48,49
 424 1472 424 1472 536 1473 c 1,50,51
 456 1428 456 1428 392.5 1370 c 128,-1,52
 329 1312 329 1312 249 1215 c 0,53,54
 243 1207 243 1207 218 1192 c 128,-1,55
 193 1177 193 1177 176 1177 c 1,44,45
EndSplineSet
EndChar

StartChar: acute
Encoding: 180 180 117
Width: 1122
GlyphClass: 2
Flags: W
LayerCount: 2
Fore
SplineSet
379 1145 m 1,0,1
 345 1188 345 1188 330 1250 c 1,2,3
 565 1458 565 1458 791 1605 c 1,4,5
 831 1553 831 1553 882 1438 c 128,-1,6
 933 1323 933 1323 945 1261 c 1,7,8
 720 1184 720 1184 379 1145 c 1,0,1
EndSplineSet
EndChar

StartChar: mu
Encoding: 181 181 118
AltUni2: 0003bc.ffffffff.0
Width: 1365
GlyphClass: 2
Flags: W
LayerCount: 2
Fore
SplineSet
1079 275 m 0,0,1
 1079 146 1079 146 1144 95 c 1,2,3
 1144 81 1144 81 1115 48.5 c 128,-1,4
 1086 16 1086 16 1062 6 c 1,5,-1
 1028 2 l 1,6,7
 993 27 993 27 965.5 67.5 c 128,-1,8
 938 108 938 108 938 152 c 128,-1,9
 938 196 938 196 940 219 c 1,10,11
 870 110 870 110 778.5 51 c 128,-1,12
 687 -8 687 -8 604 -8 c 0,13,14
 452 -8 452 -8 363 116 c 1,15,16
 316 -182 316 -182 316 -361 c 0,17,18
 316 -374 316 -374 284.5 -396.5 c 128,-1,19
 253 -419 253 -419 228 -419 c 2,20,-1
 166 -419 l 1,21,22
 173 -248 173 -248 255 253 c 128,-1,23
 337 754 337 754 337 826.5 c 128,-1,24
 337 899 337 899 336.5 920 c 128,-1,25
 336 941 336 941 366.5 970.5 c 128,-1,26
 397 1000 397 1000 419 1000 c 2,27,-1
 450 1000 l 1,28,29
 468 991 468 991 481.5 964.5 c 128,-1,30
 495 938 495 938 495 904.5 c 128,-1,31
 495 871 495 871 453 616 c 128,-1,32
 411 361 411 361 411 286 c 128,-1,33
 411 211 411 211 469 167.5 c 128,-1,34
 527 124 527 124 616.5 124 c 128,-1,35
 706 124 706 124 794.5 181 c 128,-1,36
 883 238 883 238 952 342 c 1,37,38
 1007 728 1007 728 1025 934 c 1,39,40
 1025 947 1025 947 1057.5 973.5 c 128,-1,41
 1090 1000 1090 1000 1113 1000 c 2,42,-1
 1199 1000 l 1,43,44
 1145 768 1145 768 1112 564 c 128,-1,45
 1079 360 1079 360 1079 275 c 0,0,1
EndSplineSet
EndChar

StartChar: paragraph
Encoding: 182 182 119
Width: 1431
GlyphClass: 2
Flags: W
LayerCount: 2
Fore
SplineSet
810 1401 m 1,0,1
 663 1156 663 1156 663 763 c 0,2,3
 663 653 663 653 675 552 c 1,4,5
 675 538 675 538 642.5 511 c 128,-1,6
 610 484 610 484 587 484 c 1,7,8
 402 496 402 496 284 610 c 128,-1,9
 166 724 166 724 166 893.5 c 128,-1,10
 166 1063 166 1063 236 1180 c 0,11,12
 375 1413 375 1413 690 1413 c 0,13,14
 762 1413 762 1413 810 1401 c 1,0,1
1049 1380 m 1,15,16
 948 862 948 862 804 -257 c 1,17,-1
 643 -257 l 1,18,19
 696 -35 696 -35 772.5 515 c 128,-1,20
 849 1065 849 1065 869 1320 c 0,21,22
 869 1332 869 1332 902 1358 c 128,-1,23
 935 1384 935 1384 970 1384 c 128,-1,24
 1005 1384 1005 1384 1049 1380 c 1,15,16
993 -257 m 2,25,-1
 915 -257 l 1,26,27
 975 57 975 57 1042.5 531 c 128,-1,28
 1110 1005 1110 1005 1141 1368 c 1,29,30
 1205 1353 1205 1353 1379 1330 c 1,31,32
 1388 1316 1388 1316 1394.5 1281.5 c 128,-1,33
 1401 1247 1401 1247 1401 1227 c 1,34,35
 1321 1204 1321 1204 1258 1182 c 1,36,37
 1216 940 1216 940 1156 467.5 c 128,-1,38
 1096 -5 1096 -5 1080 -192 c 1,39,40
 1080 -205 1080 -205 1048 -231 c 128,-1,41
 1016 -257 1016 -257 993 -257 c 2,25,-1
EndSplineSet
EndChar

StartChar: periodcentered
Encoding: 183 183 120
Width: 682
GlyphClass: 2
Flags: W
LayerCount: 2
Fore
SplineSet
142 411 m 128,-1,1
 83 453 83 453 83 514 c 128,-1,2
 83 575 83 575 128 619 c 0,3,4
 212 703 212 703 352 703 c 0,5,6
 453 703 453 703 512.5 660 c 128,-1,7
 572 617 572 617 572 546.5 c 128,-1,8
 572 476 572 476 492.5 422.5 c 128,-1,9
 413 369 413 369 307 369 c 128,-1,0
 201 369 201 369 142 411 c 128,-1,1
EndSplineSet
EndChar

StartChar: cedilla
Encoding: 184 184 121
Width: 1122
GlyphClass: 2
Flags: W
LayerCount: 2
Fore
SplineSet
450 -299 m 1,0,1
 545 -345 545 -345 645 -345 c 128,-1,2
 745 -345 745 -345 745 -275 c 128,-1,3
 745 -205 745 -205 624 -205 c 0,4,5
 613 -205 613 -205 568 -208 c 1,6,7
 545 -179 545 -179 535 -132 c 1,8,9
 597 -101 597 -101 648 -90.5 c 128,-1,10
 699 -80 699 -80 793.5 -80 c 128,-1,11
 888 -80 888 -80 955.5 -125.5 c 128,-1,12
 1023 -171 1023 -171 1023 -264.5 c 128,-1,13
 1023 -358 1023 -358 955 -412.5 c 128,-1,14
 887 -467 887 -467 737 -467 c 128,-1,15
 587 -467 587 -467 453 -400 c 1,16,17
 449 -376 449 -376 449 -343.5 c 128,-1,18
 449 -311 449 -311 450 -299 c 1,0,1
EndSplineSet
EndChar

StartChar: onesuperior
Encoding: 185 185 122
Width: 1025
GlyphClass: 2
Flags: W
LayerCount: 2
Fore
SplineSet
343 1397 m 1,0,1
 337 1336 337 1336 310 1278 c 1,2,-1
 148 1278 l 1,3,4
 159 1331 159 1331 172 1353 c 1,5,6
 250 1368 250 1368 343 1397 c 1,0,1
701 747 m 0,7,8
 701 740 701 740 671.5 725.5 c 128,-1,9
 642 711 642 711 621 711 c 2,10,-1
 246 711 l 1,11,12
 354 977 354 977 441 1422 c 1,13,14
 441 1429 441 1429 471 1443.5 c 128,-1,15
 501 1458 501 1458 521 1458 c 2,16,-1
 819 1458 l 1,17,18
 733 1134 733 1134 701 747 c 0,7,8
EndSplineSet
EndChar

StartChar: ordmasculine
Encoding: 186 186 123
Width: 1025
GlyphClass: 2
Flags: W
LayerCount: 2
Fore
SplineSet
596 1426 m 1,0,1
 427 1280 427 1280 427 989 c 0,2,3
 427 873 427 873 462 754 c 1,4,5
 461 743 461 743 436.5 725 c 128,-1,6
 412 707 412 707 394 707 c 1,7,8
 259 724 259 724 166.5 809 c 128,-1,9
 74 894 74 894 74 1028 c 0,10,11
 74 1210 74 1210 216 1318 c 128,-1,12
 358 1426 358 1426 596 1426 c 1,0,1
529 697 m 1,13,14
 699 841 699 841 699 1133 c 0,15,16
 699 1255 699 1255 664 1369 c 1,17,18
 664 1379 664 1379 689.5 1397.5 c 128,-1,19
 715 1416 715 1416 732 1416 c 1,20,21
 867 1399 867 1399 959.5 1314 c 128,-1,22
 1052 1229 1052 1229 1052 1095 c 0,23,24
 1052 912 1052 912 909.5 804.5 c 128,-1,25
 767 697 767 697 529 697 c 1,13,14
EndSplineSet
EndChar

StartChar: guillemotright
Encoding: 187 187 124
Width: 1344
GlyphClass: 2
Flags: W
LayerCount: 2
Fore
SplineSet
54 -24 m 1,0,-1
 54 103 l 2,1,2
 54 135 54 135 120 191 c 1,3,4
 264 307 264 307 466 481 c 1,5,6
 326 643 326 643 154 832 c 1,7,8
 154 852 154 852 181.5 908.5 c 128,-1,9
 209 965 209 965 220 970 c 1,10,11
 459 761 459 761 731 543 c 1,12,13
 723 453 723 453 707 391 c 1,14,15
 356 177 356 177 54 -24 c 1,0,-1
554 -24 m 1,16,-1
 554 103 l 2,17,18
 554 135 554 135 620 191 c 1,19,20
 764 307 764 307 966 481 c 1,21,22
 826 643 826 643 654 832 c 1,23,24
 654 852 654 852 681.5 908.5 c 128,-1,25
 709 965 709 965 720 970 c 1,26,27
 959 761 959 761 1231 543 c 1,28,29
 1223 453 1223 453 1207 391 c 1,30,31
 856 177 856 177 554 -24 c 1,16,-1
EndSplineSet
EndChar

StartChar: onequarter
Encoding: 188 188 125
Width: 1948
GlyphClass: 2
Flags: W
LayerCount: 2
Fore
SplineSet
1821 224 m 1,0,1
 1820 211 1820 211 1809 172.5 c 128,-1,2
 1798 134 1798 134 1792 123 c 1,3,-1
 1661 123 l 1,4,5
 1656 91 1656 91 1650 36 c 0,6,7
 1650 29 1650 29 1625.5 14.5 c 128,-1,8
 1601 0 1601 0 1583 0 c 2,9,-1
 1234 0 l 1,10,11
 1341 330 1341 330 1384 712 c 0,12,13
 1384 719 1384 719 1409 733.5 c 128,-1,14
 1434 748 1434 748 1451 748 c 2,15,-1
 1800 748 l 1,16,17
 1719 503 1719 503 1673 224 c 1,18,-1
 1821 224 l 1,0,1
1198 123 m 1,19,-1
 900 123 l 1,20,21
 880 156 880 156 865 212 c 1,22,23
 936 266 936 266 1092.5 422 c 128,-1,24
 1249 578 1249 578 1321 667 c 1,25,26
 1209 420 1209 420 1071 224 c 1,27,-1
 1223 224 l 1,28,29
 1214 163 1214 163 1198 123 c 1,19,-1
468 5 m 0,30,31
 421 -53 421 -53 380 -53 c 2,32,-1
 258 -53 l 1,33,34
 858 650 858 650 1404 1342 c 1,35,36
 1448 1400 1448 1400 1492 1400 c 2,37,-1
 1614 1400 l 1,38,39
 1104 796 1104 796 468 5 c 0,30,31
272 1397 m 1,40,41
 266 1336 266 1336 239 1278 c 1,42,-1
 77 1278 l 1,43,44
 88 1331 88 1331 101 1353 c 1,45,46
 179 1368 179 1368 272 1397 c 1,40,41
630 747 m 0,47,48
 630 740 630 740 600.5 725.5 c 128,-1,49
 571 711 571 711 550 711 c 2,50,-1
 175 711 l 1,51,52
 283 977 283 977 370 1422 c 1,53,54
 370 1429 370 1429 400 1443.5 c 128,-1,55
 430 1458 430 1458 450 1458 c 2,56,-1
 748 1458 l 1,57,58
 662 1134 662 1134 630 747 c 0,47,48
EndSplineSet
EndChar

StartChar: onehalf
Encoding: 189 189 126
Width: 1948
GlyphClass: 2
Flags: W
LayerCount: 2
Fore
SplineSet
468 5 m 0,0,1
 421 -53 421 -53 380 -53 c 2,2,-1
 258 -53 l 1,3,4
 858 650 858 650 1404 1342 c 1,5,6
 1448 1400 1448 1400 1492 1400 c 2,7,-1
 1614 1400 l 1,8,9
 1104 796 1104 796 468 5 c 0,0,1
272 1397 m 1,10,11
 266 1336 266 1336 239 1278 c 1,12,-1
 77 1278 l 1,13,14
 88 1331 88 1331 101 1353 c 1,15,16
 179 1368 179 1368 272 1397 c 1,10,11
630 747 m 0,17,18
 630 740 630 740 600.5 725.5 c 128,-1,19
 571 711 571 711 550 711 c 2,20,-1
 175 711 l 1,21,22
 283 977 283 977 370 1422 c 1,23,24
 370 1429 370 1429 400 1443.5 c 128,-1,25
 430 1458 430 1458 450 1458 c 2,26,-1
 748 1458 l 1,27,28
 662 1134 662 1134 630 747 c 0,17,18
1421 149 m 2,29,-1
 1421 137 l 2,30,31
 1421 129 1421 129 1399.5 114.5 c 128,-1,32
 1378 100 1378 100 1362 100 c 2,33,-1
 1052 100 l 1,34,35
 1040 131 1040 131 1040 170.5 c 128,-1,36
 1040 210 1040 210 1066.5 258.5 c 128,-1,37
 1093 307 1093 307 1136 350 c 128,-1,38
 1179 393 1179 393 1230.5 436.5 c 128,-1,39
 1282 480 1282 480 1334 521.5 c 128,-1,40
 1386 563 1386 563 1429 602 c 0,41,42
 1525 689 1525 689 1525 759 c 0,43,44
 1525 784 1525 784 1513 808 c 1,45,46
 1513 815 1513 815 1534.5 829 c 128,-1,47
 1556 843 1556 843 1572 844 c 1,48,49
 1857 826 1857 826 1857 655 c 0,50,51
 1857 547 1857 547 1703 429 c 0,52,53
 1639 380 1639 380 1575 334 c 0,54,55
 1421 222 1421 222 1421 149 c 2,29,-1
1107 572 m 1,56,57
 1122 694 1122 694 1164 798 c 1,58,59
 1170 809 1170 809 1187 822 c 128,-1,60
 1204 835 1204 835 1219 838 c 0,61,62
 1348 862 1348 862 1482 864 c 1,63,64
 1384 824 1384 824 1327 769 c 0,65,66
 1252 696 1252 696 1176 608 c 0,67,68
 1170 601 1170 601 1145.5 586.5 c 128,-1,69
 1121 572 1121 572 1107 572 c 1,56,57
1752 319 m 0,70,71
 1759 327 1759 327 1783 341 c 128,-1,72
 1807 355 1807 355 1822 355 c 1,73,74
 1800 206 1800 206 1779 140 c 1,75,76
 1772 128 1772 128 1754 114 c 128,-1,77
 1736 100 1736 100 1724 100 c 2,78,-1
 1484 100 l 1,79,80
 1620 174 1620 174 1752 319 c 0,70,71
EndSplineSet
EndChar

StartChar: threequarters
Encoding: 190 190 127
Width: 1948
GlyphClass: 2
Flags: W
LayerCount: 2
Fore
SplineSet
1924 224 m 1,0,1
 1923 211 1923 211 1912 172.5 c 128,-1,2
 1901 134 1901 134 1895 123 c 1,3,-1
 1764 123 l 1,4,5
 1759 91 1759 91 1753 36 c 0,6,7
 1753 29 1753 29 1728.5 14.5 c 128,-1,8
 1704 0 1704 0 1686 0 c 2,9,-1
 1337 0 l 1,10,11
 1444 330 1444 330 1487 712 c 0,12,13
 1487 719 1487 719 1512 733.5 c 128,-1,14
 1537 748 1537 748 1554 748 c 2,15,-1
 1903 748 l 1,16,17
 1822 503 1822 503 1776 224 c 1,18,-1
 1924 224 l 1,0,1
1301 123 m 1,19,-1
 1003 123 l 1,20,21
 983 156 983 156 968 212 c 1,22,23
 1039 266 1039 266 1195.5 422 c 128,-1,24
 1352 578 1352 578 1424 667 c 1,25,26
 1312 420 1312 420 1174 224 c 1,27,-1
 1326 224 l 1,28,29
 1317 163 1317 163 1301 123 c 1,19,-1
571 5 m 0,30,31
 524 -53 524 -53 483 -53 c 2,32,-1
 361 -53 l 1,33,34
 961 650 961 650 1507 1342 c 1,35,36
 1550 1400 1550 1400 1595 1400 c 2,37,-1
 1717 1400 l 1,38,39
 1207 796 1207 796 571 5 c 0,30,31
874 1286 m 0,40,41
 874 1117 874 1117 458 1095 c 1,42,43
 641 1095 641 1095 698.5 1074 c 128,-1,44
 756 1053 756 1053 790 1032 c 0,45,46
 861 989 861 989 861 908.5 c 128,-1,47
 861 828 861 828 801 780 c 0,48,49
 689 689 689 689 454 689 c 0,50,51
 382 689 382 689 324 698 c 1,52,53
 496 777 496 777 496 920 c 0,54,55
 496 969 496 969 465 1003 c 0,56,57
 407 1066 407 1066 283 1070 c 1,58,-1
 282 1083 l 1,59,60
 282 1102 282 1102 294 1124 c 1,61,62
 404 1124 404 1124 475.5 1185.5 c 128,-1,63
 547 1247 547 1247 547 1319 c 128,-1,64
 547 1391 547 1391 491 1428 c 1,65,66
 491 1437 491 1437 515.5 1452 c 128,-1,67
 540 1467 540 1467 557 1467 c 0,68,69
 725 1467 725 1467 822 1388 c 0,70,71
 874 1345 874 1345 874 1286 c 0,40,41
140 992 m 1,72,73
 196 805 196 805 294 748 c 1,74,75
 292 739 292 739 268.5 721 c 128,-1,76
 245 703 245 703 229 703 c 1,77,78
 179 707 179 707 115 722 c 128,-1,79
 51 737 51 737 26 747 c 1,80,81
 43 873 43 873 63 966 c 1,82,83
 86 981 86 981 140 992 c 1,72,73
100 1177 m 1,84,85
 121 1321 121 1321 140 1361 c 0,86,87
 176 1440 176 1440 218 1447 c 1,88,89
 348 1472 348 1472 460 1473 c 1,90,91
 380 1428 380 1428 316.5 1370 c 128,-1,92
 253 1312 253 1312 173 1215 c 0,93,94
 167 1207 167 1207 142 1192 c 128,-1,95
 117 1177 117 1177 100 1177 c 1,84,85
EndSplineSet
EndChar

StartChar: questiondown
Encoding: 191 191 128
Width: 1197
GlyphClass: 2
Flags: W
LayerCount: 2
Fore
SplineSet
462 543 m 1,0,1
 477 565 477 565 505 585.5 c 128,-1,2
 533 606 533 606 550 607 c 2,3,-1
 875 619 l 1,4,5
 853 455 853 455 766 328 c 0,6,7
 710 248 710 248 631.5 160 c 128,-1,8
 553 72 553 72 518 24 c 0,9,10
 441 -80 441 -80 441 -195 c 0,11,12
 441 -242 441 -242 459 -281 c 1,13,14
 458 -295 458 -295 426.5 -320 c 128,-1,15
 395 -345 395 -345 372 -347 c 1,16,17
 193 -324 193 -324 92 -242 c 128,-1,18
 -9 -160 -9 -160 -9 -35 c 0,19,20
 -9 74 -9 74 116 187 c 0,21,22
 173 238 173 238 234 288 c 0,23,24
 392 419 392 419 462 543 c 1,0,1
1062 165 m 1,25,26
 1033 -113 1033 -113 990 -239 c 1,27,28
 978 -258 978 -258 954 -282 c 128,-1,29
 930 -306 930 -306 908 -313 c 0,30,31
 724 -368 724 -368 461 -370 c 1,32,33
 719 -240 719 -240 951 89 c 0,34,35
 962 105 962 105 1001.5 135 c 128,-1,36
 1041 165 1041 165 1062 165 c 1,25,26
916 981 m 128,-1,38
 975 939 975 939 975 878 c 128,-1,39
 975 817 975 817 930 774 c 1,40,41
 845 690 845 690 705 690 c 0,42,43
 604 690 604 690 544.5 732.5 c 128,-1,44
 485 775 485 775 485 845.5 c 128,-1,45
 485 916 485 916 565 969.5 c 128,-1,46
 645 1023 645 1023 751 1023 c 128,-1,37
 857 1023 857 1023 916 981 c 128,-1,38
EndSplineSet
EndChar

StartChar: Agrave
Encoding: 192 192 129
Width: 1365
GlyphClass: 2
Flags: W
LayerCount: 2
Fore
SplineSet
1163 0 m 2,0,-1
 698 0 l 1,1,2
 620 622 620 622 501 1080 c 1,3,4
 559 1198 559 1198 600 1296 c 0,5,6
 607 1311 607 1311 636.5 1336 c 128,-1,7
 666 1361 666 1361 687 1361 c 2,8,-1
 1005 1361 l 1,9,10
 1046 1059 1046 1059 1115.5 688.5 c 128,-1,11
 1185 318 1185 318 1251 66 c 1,12,13
 1251 53 1251 53 1219 26.5 c 128,-1,14
 1187 0 1187 0 1163 0 c 2,0,-1
364 177 m 1,15,-1
 367 66 l 2,16,17
 367 53 367 53 334.5 26.5 c 128,-1,18
 302 0 302 0 279 0 c 2,19,-1
 -40 0 l 1,20,21
 118 268 118 268 450 982 c 1,22,23
 459 956 459 956 459 909.5 c 128,-1,24
 459 863 459 863 445.5 775 c 128,-1,25
 432 687 432 687 411 567.5 c 128,-1,26
 390 448 390 448 380 374 c 1,27,28
 524 352 524 352 589 325 c 1,29,30
 589 265 589 265 569 236 c 1,31,32
 465 227 465 227 364 209 c 1,33,-1
 364 177 l 1,15,-1
1125 1460 m 1,34,35
 772 1485 772 1485 543 1533 c 1,36,37
 548 1593 548 1593 580.5 1682.5 c 128,-1,38
 613 1772 613 1772 649 1832 c 1,39,40
 874 1727 874 1727 1156 1550 c 1,41,42
 1144 1499 1144 1499 1125 1460 c 1,34,35
EndSplineSet
EndChar

StartChar: Aacute
Encoding: 193 193 130
Width: 1365
GlyphClass: 2
Flags: W
LayerCount: 2
Fore
SplineSet
1163 0 m 2,0,-1
 698 0 l 1,1,2
 620 622 620 622 501 1080 c 1,3,4
 559 1198 559 1198 600 1296 c 0,5,6
 607 1311 607 1311 636.5 1336 c 128,-1,7
 666 1361 666 1361 687 1361 c 2,8,-1
 1005 1361 l 1,9,10
 1046 1059 1046 1059 1115.5 688.5 c 128,-1,11
 1185 318 1185 318 1251 66 c 1,12,13
 1251 53 1251 53 1219 26.5 c 128,-1,14
 1187 0 1187 0 1163 0 c 2,0,-1
364 177 m 1,15,-1
 367 66 l 2,16,17
 367 53 367 53 334.5 26.5 c 128,-1,18
 302 0 302 0 279 0 c 2,19,-1
 -40 0 l 1,20,21
 118 268 118 268 450 982 c 1,22,23
 459 956 459 956 459 909.5 c 128,-1,24
 459 863 459 863 445.5 775 c 128,-1,25
 432 687 432 687 411 567.5 c 128,-1,26
 390 448 390 448 380 374 c 1,27,28
 524 352 524 352 589 325 c 1,29,30
 589 265 589 265 569 236 c 1,31,32
 465 227 465 227 364 209 c 1,33,-1
 364 177 l 1,15,-1
582 1460 m 1,34,35
 563 1499 563 1499 551 1550 c 1,36,37
 833 1727 833 1727 1058 1832 c 1,38,39
 1094 1772 1094 1772 1126.5 1682.5 c 128,-1,40
 1159 1593 1159 1593 1164 1533 c 1,41,42
 935 1485 935 1485 582 1460 c 1,34,35
EndSplineSet
EndChar

StartChar: Acircumflex
Encoding: 194 194 131
Width: 1365
GlyphClass: 2
Flags: W
LayerCount: 2
Fore
SplineSet
1163 0 m 2,0,-1
 698 0 l 1,1,2
 620 622 620 622 501 1080 c 1,3,4
 559 1198 559 1198 600 1296 c 0,5,6
 607 1311 607 1311 636.5 1336 c 128,-1,7
 666 1361 666 1361 687 1361 c 2,8,-1
 1005 1361 l 1,9,10
 1046 1059 1046 1059 1115.5 688.5 c 128,-1,11
 1185 318 1185 318 1251 66 c 1,12,13
 1251 53 1251 53 1219 26.5 c 128,-1,14
 1187 0 1187 0 1163 0 c 2,0,-1
364 177 m 1,15,-1
 367 66 l 2,16,17
 367 53 367 53 334.5 26.5 c 128,-1,18
 302 0 302 0 279 0 c 2,19,-1
 -40 0 l 1,20,21
 118 268 118 268 450 982 c 1,22,23
 459 956 459 956 459 909.5 c 128,-1,24
 459 863 459 863 445.5 775 c 128,-1,25
 432 687 432 687 411 567.5 c 128,-1,26
 390 448 390 448 380 374 c 1,27,28
 524 352 524 352 589 325 c 1,29,30
 589 265 589 265 569 236 c 1,31,32
 465 227 465 227 364 209 c 1,33,-1
 364 177 l 1,15,-1
438 1462 m 1,34,35
 405 1509 405 1509 390 1567 c 1,36,37
 584 1696 584 1696 829 1822 c 1,38,-1
 931 1822 l 1,39,40
 1117 1713 1117 1713 1324 1567 c 1,41,42
 1302 1505 1302 1505 1264 1462 c 1,43,44
 1023 1492 1023 1492 853 1527 c 1,45,46
 630 1488 630 1488 438 1462 c 1,34,35
EndSplineSet
EndChar

StartChar: Atilde
Encoding: 195 195 132
Width: 1365
GlyphClass: 2
Flags: W
LayerCount: 2
Fore
SplineSet
1163 0 m 2,0,-1
 698 0 l 1,1,2
 620 622 620 622 501 1080 c 1,3,4
 559 1198 559 1198 600 1296 c 0,5,6
 607 1311 607 1311 636.5 1336 c 128,-1,7
 666 1361 666 1361 687 1361 c 2,8,-1
 1005 1361 l 1,9,10
 1046 1059 1046 1059 1115.5 688.5 c 128,-1,11
 1185 318 1185 318 1251 66 c 1,12,13
 1251 53 1251 53 1219 26.5 c 128,-1,14
 1187 0 1187 0 1163 0 c 2,0,-1
364 177 m 1,15,-1
 367 66 l 2,16,17
 367 53 367 53 334.5 26.5 c 128,-1,18
 302 0 302 0 279 0 c 2,19,-1
 -40 0 l 1,20,21
 118 268 118 268 450 982 c 1,22,23
 459 956 459 956 459 909.5 c 128,-1,24
 459 863 459 863 445.5 775 c 128,-1,25
 432 687 432 687 411 567.5 c 128,-1,26
 390 448 390 448 380 374 c 1,27,28
 524 352 524 352 589 325 c 1,29,30
 589 265 589 265 569 236 c 1,31,32
 465 227 465 227 364 209 c 1,33,-1
 364 177 l 1,15,-1
1140 1465.5 m 128,-1,35
 1077 1438 1077 1438 1004.5 1438 c 128,-1,36
 932 1438 932 1438 788 1473.5 c 128,-1,37
 644 1509 644 1509 584 1509 c 128,-1,38
 524 1509 524 1509 457 1503 c 1,39,40
 451 1530 451 1530 451 1557 c 128,-1,41
 451 1584 451 1584 455 1607 c 1,42,43
 515 1701 515 1701 586 1728 c 0,44,45
 646 1751 646 1751 713 1751 c 128,-1,46
 780 1751 780 1751 923.5 1715.5 c 128,-1,47
 1067 1680 1067 1680 1128.5 1680 c 128,-1,48
 1190 1680 1190 1680 1257 1686 c 1,49,50
 1263 1656 1263 1656 1263 1631 c 128,-1,51
 1263 1606 1263 1606 1260 1582 c 1,52,34
 1203 1493 1203 1493 1140 1465.5 c 128,-1,35
EndSplineSet
EndChar

StartChar: Adieresis
Encoding: 196 196 133
Width: 1365
GlyphClass: 2
Flags: W
LayerCount: 2
Fore
SplineSet
1163 0 m 2,0,-1
 698 0 l 1,1,2
 620 622 620 622 501 1080 c 1,3,4
 559 1198 559 1198 600 1296 c 0,5,6
 607 1311 607 1311 636.5 1336 c 128,-1,7
 666 1361 666 1361 687 1361 c 2,8,-1
 1005 1361 l 1,9,10
 1046 1059 1046 1059 1115.5 688.5 c 128,-1,11
 1185 318 1185 318 1251 66 c 1,12,13
 1251 53 1251 53 1219 26.5 c 128,-1,14
 1187 0 1187 0 1163 0 c 2,0,-1
364 177 m 1,15,-1
 367 66 l 2,16,17
 367 53 367 53 334.5 26.5 c 128,-1,18
 302 0 302 0 279 0 c 2,19,-1
 -40 0 l 1,20,21
 118 268 118 268 450 982 c 1,22,23
 459 956 459 956 459 909.5 c 128,-1,24
 459 863 459 863 445.5 775 c 128,-1,25
 432 687 432 687 411 567.5 c 128,-1,26
 390 448 390 448 380 374 c 1,27,28
 524 352 524 352 589 325 c 1,29,30
 589 265 589 265 569 236 c 1,31,32
 465 227 465 227 364 209 c 1,33,-1
 364 177 l 1,15,-1
415 1479 m 128,-1,35
 364 1519 364 1519 364 1582 c 128,-1,36
 364 1645 364 1645 402 1688 c 0,37,38
 474 1769 474 1769 598 1769 c 0,39,40
 687 1769 687 1769 738 1728.5 c 128,-1,41
 789 1688 789 1688 789 1615 c 128,-1,42
 789 1542 789 1542 720.5 1490.5 c 128,-1,43
 652 1439 652 1439 559 1439 c 128,-1,34
 466 1439 466 1439 415 1479 c 128,-1,35
971 1479 m 128,-1,45
 920 1519 920 1519 920 1582 c 128,-1,46
 920 1645 920 1645 959 1688 c 0,47,48
 1031 1769 1031 1769 1137.5 1769 c 128,-1,49
 1244 1769 1244 1769 1294.5 1729 c 128,-1,50
 1345 1689 1345 1689 1345 1615.5 c 128,-1,51
 1345 1542 1345 1542 1276.5 1490.5 c 128,-1,52
 1208 1439 1208 1439 1115 1439 c 128,-1,44
 1022 1439 1022 1439 971 1479 c 128,-1,45
EndSplineSet
EndChar

StartChar: Aring
Encoding: 197 197 134
Width: 1365
GlyphClass: 2
Flags: W
LayerCount: 2
Fore
SplineSet
1163 0 m 2,0,-1
 698 0 l 1,1,2
 620 622 620 622 501 1080 c 1,3,4
 559 1198 559 1198 600 1296 c 0,5,6
 607 1311 607 1311 636.5 1336 c 128,-1,7
 666 1361 666 1361 687 1361 c 2,8,-1
 1005 1361 l 1,9,10
 1046 1059 1046 1059 1115.5 688.5 c 128,-1,11
 1185 318 1185 318 1251 66 c 1,12,13
 1251 53 1251 53 1219 26.5 c 128,-1,14
 1187 0 1187 0 1163 0 c 2,0,-1
364 177 m 1,15,-1
 367 66 l 2,16,17
 367 53 367 53 334.5 26.5 c 128,-1,18
 302 0 302 0 279 0 c 2,19,-1
 -40 0 l 1,20,21
 118 268 118 268 450 982 c 1,22,23
 459 956 459 956 459 909.5 c 128,-1,24
 459 863 459 863 445.5 775 c 128,-1,25
 432 687 432 687 411 567.5 c 128,-1,26
 390 448 390 448 380 374 c 1,27,28
 524 352 524 352 589 325 c 1,29,30
 589 265 589 265 569 236 c 1,31,32
 465 227 465 227 364 209 c 1,33,-1
 364 177 l 1,15,-1
786 1564.5 m 128,-1,35
 754 1540 754 1540 754 1504 c 128,-1,36
 754 1468 754 1468 776 1447.5 c 128,-1,37
 798 1427 798 1427 837 1427 c 128,-1,38
 876 1427 876 1427 906 1453.5 c 128,-1,39
 936 1480 936 1480 936 1513.5 c 128,-1,40
 936 1547 936 1547 913.5 1568 c 128,-1,41
 891 1589 891 1589 854.5 1589 c 128,-1,34
 818 1589 818 1589 786 1564.5 c 128,-1,35
645.5 1332.5 m 128,-1,43
 581 1392 581 1392 581 1468 c 128,-1,44
 581 1544 581 1544 609 1595 c 128,-1,45
 637 1646 637 1646 680 1678 c 1,46,47
 771 1743 771 1743 876 1743 c 128,-1,48
 981 1743 981 1743 1045 1683 c 128,-1,49
 1109 1623 1109 1623 1109 1524 c 128,-1,50
 1109 1425 1109 1425 1023 1349 c 128,-1,51
 937 1273 937 1273 823.5 1273 c 128,-1,42
 710 1273 710 1273 645.5 1332.5 c 128,-1,43
EndSplineSet
EndChar

StartChar: AE
Encoding: 198 198 135
Width: 1887
GlyphClass: 2
Flags: W
LayerCount: 2
Fore
SplineSet
1117 0 m 2,0,-1
 662 0 l 1,1,2
 704 323 704 323 704 623 c 128,-1,3
 704 923 704 923 688 1080 c 1,4,5
 761 1203 761 1203 810 1296 c 0,6,7
 818 1311 818 1311 849.5 1336 c 128,-1,8
 881 1361 881 1361 903 1361 c 2,9,-1
 1231 1361 l 1,10,11
 1204 745 1204 745 1204 729 c 1,12,13
 1463 700 1463 700 1539 677 c 1,14,15
 1539 622 1539 622 1516 596 c 1,16,17
 1375 588 1375 588 1201 553 c 1,18,19
 1200 510 1200 510 1200 363.5 c 128,-1,20
 1200 217 1200 217 1211 66 c 1,21,22
 1209 53 1209 53 1174.5 26.5 c 128,-1,23
 1140 0 1140 0 1117 0 c 2,0,-1
243 0 m 2,24,-1
 -106 0 l 1,25,26
 -18 110 -18 110 260.5 502.5 c 128,-1,27
 539 895 539 895 607 982 c 1,28,29
 610 965 610 965 610 945 c 128,-1,30
 610 925 610 925 609 916 c 0,31,32
 603 856 603 856 515 665.5 c 128,-1,33
 427 475 427 475 403 374 c 1,34,35
 510 357 510 357 587 325 c 1,36,37
 579 263 579 263 557 236 c 1,38,39
 454 227 454 227 349 209 c 1,40,-1
 345 177 l 2,41,42
 342 156 342 156 340 116 c 128,-1,43
 338 76 338 76 336.5 64.5 c 128,-1,44
 335 53 335 53 300 26.5 c 128,-1,45
 265 0 265 0 243 0 c 2,24,-1
1671 755 m 1,46,47
 1608 1021 1608 1021 1560.5 1109 c 128,-1,48
 1513 1197 1513 1197 1453.5 1234.5 c 128,-1,49
 1394 1272 1394 1272 1295 1281 c 1,50,51
 1300 1329 1300 1329 1324 1361 c 1,52,-1
 1837 1361 l 1,53,54
 1830 1264 1830 1264 1807 1100.5 c 128,-1,55
 1784 937 1784 937 1758 822 c 0,56,57
 1754 805 1754 805 1724 780 c 128,-1,58
 1694 755 1694 755 1671 755 c 1,46,47
1615 411 m 1,59,60
 1626 425 1626 425 1665 451 c 128,-1,61
 1704 477 1704 477 1726 477 c 1,62,63
 1692 180 1692 180 1662 72 c 1,64,65
 1653 52 1653 52 1626 26 c 128,-1,66
 1599 0 1599 0 1582 0 c 2,67,-1
 1255 0 l 1,68,69
 1375 80 1375 80 1458 179.5 c 128,-1,70
 1541 279 1541 279 1615 411 c 1,59,60
EndSplineSet
EndChar

StartChar: Ccedilla
Encoding: 199 199 136
Width: 1535
GlyphClass: 2
Flags: W
LayerCount: 2
Fore
SplineSet
473 -299 m 1,0,1
 568 -345 568 -345 668 -345 c 128,-1,2
 768 -345 768 -345 768 -275 c 128,-1,3
 768 -205 768 -205 647 -205 c 0,4,5
 636 -205 636 -205 591 -208 c 1,6,7
 568 -179 568 -179 558 -132 c 1,8,9
 620 -101 620 -101 671 -90.5 c 128,-1,10
 722 -80 722 -80 816.5 -80 c 128,-1,11
 911 -80 911 -80 978.5 -125.5 c 128,-1,12
 1046 -171 1046 -171 1046 -264.5 c 128,-1,13
 1046 -358 1046 -358 978 -412.5 c 128,-1,14
 910 -467 910 -467 760 -467 c 128,-1,15
 610 -467 610 -467 476 -400 c 1,16,17
 472 -376 472 -376 472 -343.5 c 128,-1,18
 472 -311 472 -311 473 -299 c 1,0,1
1263 755 m 1,19,20
 1225 941 1225 941 1175 1064.5 c 128,-1,21
 1125 1188 1125 1188 1031 1295 c 1,22,23
 1033 1313 1033 1313 1065 1337 c 128,-1,24
 1097 1361 1097 1361 1119 1361 c 1,25,26
 1293 1342 1293 1342 1443 1289 c 1,27,28
 1441 1231 1441 1231 1418 1073 c 128,-1,29
 1395 915 1395 915 1373 822 c 0,30,31
 1369 806 1369 806 1328 780.5 c 128,-1,32
 1287 755 1287 755 1263 755 c 1,19,20
1356 505 m 1,33,34
 1337 298 1337 298 1293 91 c 1,35,36
 1237 41 1237 41 1109 10.5 c 128,-1,37
 981 -20 981 -20 816 -20 c 1,38,39
 961 84 961 84 1048.5 188.5 c 128,-1,40
 1136 293 1136 293 1226 448 c 1,41,42
 1248 470 1248 470 1289.5 487.5 c 128,-1,43
 1331 505 1331 505 1356 505 c 1,33,34
742.5 1022.5 m 128,-1,45
 660 785 660 785 660 509.5 c 128,-1,46
 660 234 660 234 754 48 c 1,47,48
 754 33 754 33 722 6.5 c 128,-1,49
 690 -20 690 -20 666 -20 c 1,50,51
 451 19 451 19 301 176 c 0,52,53
 228 253 228 253 185.5 360.5 c 128,-1,54
 143 468 143 468 143 589.5 c 128,-1,55
 143 711 143 711 173 824.5 c 128,-1,56
 203 938 203 938 267.5 1040.5 c 128,-1,57
 332 1143 332 1143 424 1220 c 0,58,59
 622 1387 622 1387 933 1387 c 0,60,61
 957 1387 957 1387 971 1386 c 1,62,44
 825 1260 825 1260 742.5 1022.5 c 128,-1,45
EndSplineSet
EndChar

StartChar: Egrave
Encoding: 200 200 137
Width: 1364
GlyphClass: 2
Flags: W
LayerCount: 2
Fore
SplineSet
718 692 m 1,0,1
 956 666 956 666 1066 633 c 1,2,3
 1066 578 1066 578 1043 552 c 1,4,5
 879 542 879 542 691 500 c 1,6,7
 664 290 664 290 646 66 c 1,8,9
 646 53 646 53 614 26.5 c 128,-1,10
 582 0 582 0 559 0 c 2,11,-1
 93 0 l 1,12,13
 227 485 227 485 291 1296 c 1,14,15
 291 1309 291 1309 324 1335 c 128,-1,16
 357 1361 357 1361 380 1361 c 2,17,-1
 844 1361 l 1,18,19
 768 1031 768 1031 718 692 c 1,0,1
1148 755 m 1,20,21
 1124 906 1124 906 1057 1056 c 128,-1,22
 990 1206 990 1206 922 1281 c 1,23,24
 927 1329 927 1329 951 1361 c 1,25,-1
 1314 1361 l 1,26,27
 1307 1264 1307 1264 1284 1100.5 c 128,-1,28
 1261 937 1261 937 1235 822 c 0,29,30
 1231 805 1231 805 1201 780 c 128,-1,31
 1171 755 1171 755 1148 755 c 1,20,21
1102 411 m 1,32,33
 1113 425 1113 425 1152 451 c 128,-1,34
 1191 477 1191 477 1213 477 c 1,35,36
 1179 180 1179 180 1149 72 c 1,37,38
 1140 52 1140 52 1113 26 c 128,-1,39
 1086 0 1086 0 1069 0 c 2,40,-1
 702 0 l 1,41,42
 948 165 948 165 1102 411 c 1,32,33
1138 1460 m 1,43,44
 785 1485 785 1485 556 1533 c 1,45,46
 561 1593 561 1593 593.5 1682.5 c 128,-1,47
 626 1772 626 1772 662 1832 c 1,48,49
 887 1727 887 1727 1169 1550 c 1,50,51
 1157 1499 1157 1499 1138 1460 c 1,43,44
EndSplineSet
EndChar

StartChar: Eacute
Encoding: 201 201 138
Width: 1364
GlyphClass: 2
Flags: W
LayerCount: 2
Fore
SplineSet
718 692 m 1,0,1
 956 666 956 666 1066 633 c 1,2,3
 1066 578 1066 578 1043 552 c 1,4,5
 879 542 879 542 691 500 c 1,6,7
 664 290 664 290 646 66 c 1,8,9
 646 53 646 53 614 26.5 c 128,-1,10
 582 0 582 0 559 0 c 2,11,-1
 93 0 l 1,12,13
 227 485 227 485 291 1296 c 1,14,15
 291 1309 291 1309 324 1335 c 128,-1,16
 357 1361 357 1361 380 1361 c 2,17,-1
 844 1361 l 1,18,19
 768 1031 768 1031 718 692 c 1,0,1
1148 755 m 1,20,21
 1124 906 1124 906 1057 1056 c 128,-1,22
 990 1206 990 1206 922 1281 c 1,23,24
 927 1329 927 1329 951 1361 c 1,25,-1
 1314 1361 l 1,26,27
 1307 1264 1307 1264 1284 1100.5 c 128,-1,28
 1261 937 1261 937 1235 822 c 0,29,30
 1231 805 1231 805 1201 780 c 128,-1,31
 1171 755 1171 755 1148 755 c 1,20,21
1102 411 m 1,32,33
 1113 425 1113 425 1152 451 c 128,-1,34
 1191 477 1191 477 1213 477 c 1,35,36
 1179 180 1179 180 1149 72 c 1,37,38
 1140 52 1140 52 1113 26 c 128,-1,39
 1086 0 1086 0 1069 0 c 2,40,-1
 702 0 l 1,41,42
 948 165 948 165 1102 411 c 1,32,33
595 1460 m 1,43,44
 576 1499 576 1499 564 1550 c 1,45,46
 846 1727 846 1727 1071 1832 c 1,47,48
 1107 1772 1107 1772 1139.5 1682.5 c 128,-1,49
 1172 1593 1172 1593 1177 1533 c 1,50,51
 948 1485 948 1485 595 1460 c 1,43,44
EndSplineSet
EndChar

StartChar: Ecircumflex
Encoding: 202 202 139
Width: 1364
GlyphClass: 2
Flags: W
LayerCount: 2
Fore
SplineSet
718 692 m 1,0,1
 956 666 956 666 1066 633 c 1,2,3
 1066 578 1066 578 1043 552 c 1,4,5
 879 542 879 542 691 500 c 1,6,7
 664 290 664 290 646 66 c 1,8,9
 646 53 646 53 614 26.5 c 128,-1,10
 582 0 582 0 559 0 c 2,11,-1
 93 0 l 1,12,13
 227 485 227 485 291 1296 c 1,14,15
 291 1309 291 1309 324 1335 c 128,-1,16
 357 1361 357 1361 380 1361 c 2,17,-1
 844 1361 l 1,18,19
 768 1031 768 1031 718 692 c 1,0,1
1148 755 m 1,20,21
 1124 906 1124 906 1057 1056 c 128,-1,22
 990 1206 990 1206 922 1281 c 1,23,24
 927 1329 927 1329 951 1361 c 1,25,-1
 1314 1361 l 1,26,27
 1307 1264 1307 1264 1284 1100.5 c 128,-1,28
 1261 937 1261 937 1235 822 c 0,29,30
 1231 805 1231 805 1201 780 c 128,-1,31
 1171 755 1171 755 1148 755 c 1,20,21
1102 411 m 1,32,33
 1113 425 1113 425 1152 451 c 128,-1,34
 1191 477 1191 477 1213 477 c 1,35,36
 1179 180 1179 180 1149 72 c 1,37,38
 1140 52 1140 52 1113 26 c 128,-1,39
 1086 0 1086 0 1069 0 c 2,40,-1
 702 0 l 1,41,42
 948 165 948 165 1102 411 c 1,32,33
451 1462 m 1,43,44
 418 1509 418 1509 403 1567 c 1,45,46
 597 1696 597 1696 842 1822 c 1,47,-1
 944 1822 l 1,48,49
 1130 1713 1130 1713 1337 1567 c 1,50,51
 1315 1505 1315 1505 1277 1462 c 1,52,53
 1036 1492 1036 1492 866 1527 c 1,54,55
 643 1488 643 1488 451 1462 c 1,43,44
EndSplineSet
EndChar

StartChar: Edieresis
Encoding: 203 203 140
Width: 1364
GlyphClass: 2
Flags: W
LayerCount: 2
Fore
SplineSet
718 692 m 1,0,1
 956 666 956 666 1066 633 c 1,2,3
 1066 578 1066 578 1043 552 c 1,4,5
 879 542 879 542 691 500 c 1,6,7
 664 290 664 290 646 66 c 1,8,9
 646 53 646 53 614 26.5 c 128,-1,10
 582 0 582 0 559 0 c 2,11,-1
 93 0 l 1,12,13
 227 485 227 485 291 1296 c 1,14,15
 291 1309 291 1309 324 1335 c 128,-1,16
 357 1361 357 1361 380 1361 c 2,17,-1
 844 1361 l 1,18,19
 768 1031 768 1031 718 692 c 1,0,1
1148 755 m 1,20,21
 1124 906 1124 906 1057 1056 c 128,-1,22
 990 1206 990 1206 922 1281 c 1,23,24
 927 1329 927 1329 951 1361 c 1,25,-1
 1314 1361 l 1,26,27
 1307 1264 1307 1264 1284 1100.5 c 128,-1,28
 1261 937 1261 937 1235 822 c 0,29,30
 1231 805 1231 805 1201 780 c 128,-1,31
 1171 755 1171 755 1148 755 c 1,20,21
1102 411 m 1,32,33
 1113 425 1113 425 1152 451 c 128,-1,34
 1191 477 1191 477 1213 477 c 1,35,36
 1179 180 1179 180 1149 72 c 1,37,38
 1140 52 1140 52 1113 26 c 128,-1,39
 1086 0 1086 0 1069 0 c 2,40,-1
 702 0 l 1,41,42
 948 165 948 165 1102 411 c 1,32,33
428 1479 m 128,-1,44
 377 1519 377 1519 377 1582 c 128,-1,45
 377 1645 377 1645 416 1688 c 0,46,47
 487 1769 487 1769 611 1769 c 0,48,49
 700 1769 700 1769 751 1728.5 c 128,-1,50
 802 1688 802 1688 802 1615 c 128,-1,51
 802 1542 802 1542 733.5 1490.5 c 128,-1,52
 665 1439 665 1439 572 1439 c 128,-1,43
 479 1439 479 1439 428 1479 c 128,-1,44
984 1479 m 128,-1,54
 933 1519 933 1519 933 1582 c 128,-1,55
 933 1645 933 1645 972 1688 c 0,56,57
 1044 1769 1044 1769 1150.5 1769 c 128,-1,58
 1257 1769 1257 1769 1307.5 1729 c 128,-1,59
 1358 1689 1358 1689 1358 1615.5 c 128,-1,60
 1358 1542 1358 1542 1289.5 1490.5 c 128,-1,61
 1221 1439 1221 1439 1128 1439 c 128,-1,53
 1035 1439 1035 1439 984 1479 c 128,-1,54
EndSplineSet
EndChar

StartChar: Igrave
Encoding: 204 204 141
Width: 852
GlyphClass: 2
Flags: W
LayerCount: 2
Fore
SplineSet
537 0 m 2,0,-1
 72 0 l 1,1,2
 210 597 210 597 267 1296 c 1,3,4
 267 1309 267 1309 299.5 1335 c 128,-1,5
 332 1361 332 1361 355 1361 c 2,6,-1
 820 1361 l 1,7,8
 681 769 681 769 624 66 c 1,9,10
 624 53 624 53 592 26.5 c 128,-1,11
 560 0 560 0 537 0 c 2,0,-1
835 1460 m 1,12,13
 482 1485 482 1485 253 1533 c 1,14,15
 258 1593 258 1593 290.5 1682.5 c 128,-1,16
 323 1772 323 1772 359 1832 c 1,17,18
 584 1727 584 1727 866 1550 c 1,19,20
 854 1499 854 1499 835 1460 c 1,12,13
EndSplineSet
EndChar

StartChar: Iacute
Encoding: 205 205 142
Width: 852
GlyphClass: 2
Flags: W
LayerCount: 2
Fore
SplineSet
537 0 m 2,0,-1
 72 0 l 1,1,2
 210 597 210 597 267 1296 c 1,3,4
 267 1309 267 1309 299.5 1335 c 128,-1,5
 332 1361 332 1361 355 1361 c 2,6,-1
 820 1361 l 1,7,8
 681 769 681 769 624 66 c 1,9,10
 624 53 624 53 592 26.5 c 128,-1,11
 560 0 560 0 537 0 c 2,0,-1
292 1460 m 1,12,13
 273 1499 273 1499 261 1550 c 1,14,15
 543 1727 543 1727 768 1832 c 1,16,17
 804 1772 804 1772 836.5 1682.5 c 128,-1,18
 869 1593 869 1593 874 1533 c 1,19,20
 645 1485 645 1485 292 1460 c 1,12,13
EndSplineSet
EndChar

StartChar: Icircumflex
Encoding: 206 206 143
Width: 852
GlyphClass: 2
Flags: W
LayerCount: 2
Fore
SplineSet
537 0 m 2,0,-1
 72 0 l 1,1,2
 210 597 210 597 267 1296 c 1,3,4
 267 1309 267 1309 299.5 1335 c 128,-1,5
 332 1361 332 1361 355 1361 c 2,6,-1
 820 1361 l 1,7,8
 681 769 681 769 624 66 c 1,9,10
 624 53 624 53 592 26.5 c 128,-1,11
 560 0 560 0 537 0 c 2,0,-1
148 1462 m 1,12,13
 115 1509 115 1509 100 1567 c 1,14,15
 294 1696 294 1696 539 1822 c 1,16,-1
 641 1822 l 1,17,18
 827 1713 827 1713 1034 1567 c 1,19,20
 1012 1505 1012 1505 974 1462 c 1,21,22
 733 1492 733 1492 563 1527 c 1,23,24
 340 1488 340 1488 148 1462 c 1,12,13
EndSplineSet
EndChar

StartChar: Idieresis
Encoding: 207 207 144
Width: 852
GlyphClass: 2
Flags: W
LayerCount: 2
Fore
SplineSet
537 0 m 2,0,-1
 72 0 l 1,1,2
 210 597 210 597 267 1296 c 1,3,4
 267 1309 267 1309 299.5 1335 c 128,-1,5
 332 1361 332 1361 355 1361 c 2,6,-1
 820 1361 l 1,7,8
 681 769 681 769 624 66 c 1,9,10
 624 53 624 53 592 26.5 c 128,-1,11
 560 0 560 0 537 0 c 2,0,-1
125 1479 m 128,-1,13
 74 1519 74 1519 74 1582 c 128,-1,14
 74 1645 74 1645 112 1688 c 0,15,16
 184 1769 184 1769 308 1769 c 0,17,18
 397 1769 397 1769 448 1728.5 c 128,-1,19
 499 1688 499 1688 499 1615 c 128,-1,20
 499 1542 499 1542 430.5 1490.5 c 128,-1,21
 362 1439 362 1439 269 1439 c 128,-1,12
 176 1439 176 1439 125 1479 c 128,-1,13
681 1479 m 128,-1,23
 630 1519 630 1519 630 1582 c 128,-1,24
 630 1645 630 1645 669 1688 c 0,25,26
 741 1769 741 1769 847.5 1769 c 128,-1,27
 954 1769 954 1769 1004.5 1729 c 128,-1,28
 1055 1689 1055 1689 1055 1615.5 c 128,-1,29
 1055 1542 1055 1542 986.5 1490.5 c 128,-1,30
 918 1439 918 1439 825 1439 c 128,-1,22
 732 1439 732 1439 681 1479 c 128,-1,23
EndSplineSet
EndChar

StartChar: Eth
Encoding: 208 208 145
Width: 1705
GlyphClass: 2
Flags: W
LayerCount: 2
Fore
SplineSet
581 541 m 1,0,-1
 617 640 l 1,1,2
 811 651 811 651 917 678 c 1,3,-1
 917 637 l 2,4,5
 917 613 917 613 895.5 581.5 c 128,-1,6
 874 550 874 550 861 550 c 0,7,8
 705 550 705 550 581 541 c 1,0,-1
493 638 m 1,9,-1
 495 552 l 1,10,11
 219 525 219 525 75 500 c 1,12,-1
 75 532 l 2,13,14
 75 557 75 557 97.5 588.5 c 128,-1,15
 120 620 120 620 133 620 c 0,16,17
 287 620 287 620 493 638 c 1,9,-1
746 -20 m 1,18,19
 834 43 834 43 909 186 c 128,-1,20
 984 329 984 329 1027.5 511 c 128,-1,21
 1071 693 1071 693 1071 868 c 0,22,23
 1071 1145 1071 1145 963 1307 c 1,24,25
 963 1322 963 1322 995 1349 c 128,-1,26
 1027 1376 1027 1376 1050 1376 c 0,27,28
 1158 1376 1158 1376 1255.5 1331.5 c 128,-1,29
 1353 1287 1353 1287 1425 1208 c 128,-1,30
 1497 1129 1497 1129 1539.5 1012.5 c 128,-1,31
 1582 896 1582 896 1582 768 c 128,-1,32
 1582 640 1582 640 1550.5 528 c 128,-1,33
 1519 416 1519 416 1451.5 316 c 128,-1,34
 1384 216 1384 216 1287.5 141.5 c 128,-1,35
 1191 67 1191 67 1051.5 23.5 c 128,-1,36
 912 -20 912 -20 746 -20 c 1,18,19
597 -8 m 0,37,38
 425 -8 425 -8 143 4 c 1,39,40
 278 547 278 547 338 1285 c 0,41,42
 338 1297 338 1297 370.5 1322 c 128,-1,43
 403 1347 403 1347 426 1349 c 0,44,45
 724 1374 724 1374 882 1374 c 1,46,47
 741 766 741 766 685 59 c 1,48,49
 685 45 685 45 653 18.5 c 128,-1,50
 621 -8 621 -8 597 -8 c 0,37,38
EndSplineSet
EndChar

StartChar: Ntilde
Encoding: 209 209 146
Width: 1535
GlyphClass: 2
Flags: W
LayerCount: 2
Fore
SplineSet
1263 66 m 0,0,1
 1263 53 1263 53 1231 26.5 c 128,-1,2
 1199 0 1199 0 1176 0 c 2,3,-1
 918 0 l 1,4,5
 805 205 805 205 616.5 467 c 128,-1,6
 428 729 428 729 273 906 c 1,7,8
 286 1013 286 1013 313 1296 c 1,9,10
 316 1310 316 1310 347.5 1335.5 c 128,-1,11
 379 1361 379 1361 400 1361 c 2,12,-1
 661 1361 l 1,13,14
 794 1127 794 1127 945.5 918 c 128,-1,15
 1097 709 1097 709 1299 462 c 1,16,17
 1273 222 1273 222 1263 66 c 0,0,1
1246 637 m 1,18,19
 1198 884 1198 884 1158.5 1025.5 c 128,-1,20
 1119 1167 1119 1167 1052 1296 c 1,21,22
 1052 1309 1052 1309 1084.5 1335 c 128,-1,23
 1117 1361 1117 1361 1141 1361 c 2,24,-1
 1459 1361 l 1,25,26
 1392 1072 1392 1072 1334 704 c 1,27,28
 1334 690 1334 690 1302 663.5 c 128,-1,29
 1270 637 1270 637 1246 637 c 1,18,19
327 711 m 1,30,31
 353 501 353 501 398 359.5 c 128,-1,32
 443 218 443 218 523 66 c 1,33,34
 523 53 523 53 491 26.5 c 128,-1,35
 459 0 459 0 435 0 c 2,36,-1
 117 0 l 1,37,38
 184 291 184 291 239 645 c 1,39,40
 239 658 239 658 271.5 684.5 c 128,-1,41
 304 711 304 711 327 711 c 1,30,31
1206 1465.5 m 128,-1,43
 1143 1438 1143 1438 1070.5 1438 c 128,-1,44
 998 1438 998 1438 854 1473.5 c 128,-1,45
 710 1509 710 1509 650 1509 c 128,-1,46
 590 1509 590 1509 523 1503 c 1,47,48
 517 1530 517 1530 517 1557 c 128,-1,49
 517 1584 517 1584 521 1607 c 1,50,51
 581 1701 581 1701 652 1728 c 0,52,53
 712 1751 712 1751 779 1751 c 128,-1,54
 846 1751 846 1751 989.5 1715.5 c 128,-1,55
 1133 1680 1133 1680 1194.5 1680 c 128,-1,56
 1256 1680 1256 1680 1323 1686 c 1,57,58
 1329 1656 1329 1656 1329 1631 c 128,-1,59
 1329 1606 1329 1606 1326 1582 c 1,60,42
 1269 1493 1269 1493 1206 1465.5 c 128,-1,43
EndSplineSet
EndChar

StartChar: Ograve
Encoding: 210 210 147
Width: 1535
GlyphClass: 2
Flags: W
LayerCount: 2
Fore
SplineSet
689 -20 m 1,0,1
 835 102 835 102 906.5 336 c 128,-1,2
 978 570 978 570 978 828.5 c 128,-1,3
 978 1087 978 1087 925 1296 c 1,4,5
 925 1310 925 1310 957.5 1336.5 c 128,-1,6
 990 1363 990 1363 1013 1363 c 1,7,8
 1158 1335 1158 1335 1260 1242 c 0,9,10
 1454 1065 1454 1065 1454 751 c 0,11,12
 1454 512 1454 512 1334 320 c 1,13,14
 1201 105 1201 105 968 24 c 0,15,16
 840 -20 840 -20 689 -20 c 1,0,1
888 1387 m 1,17,18
 741 1264 741 1264 669 1031 c 128,-1,19
 597 798 597 798 597 538 c 128,-1,20
 597 278 597 278 652 72 c 1,21,22
 652 58 652 58 619.5 31 c 128,-1,23
 587 4 587 4 563 4 c 1,24,25
 343 48 343 48 230 224 c 0,26,27
 122 393 122 393 122 615 c 0,28,29
 122 854 122 854 242 1048 c 0,30,31
 374 1261 374 1261 608 1342 c 0,32,33
 736 1387 736 1387 888 1387 c 1,17,18
1166 1460 m 1,34,35
 813 1485 813 1485 584 1533 c 1,36,37
 589 1593 589 1593 621.5 1682.5 c 128,-1,38
 654 1772 654 1772 690 1832 c 1,39,40
 915 1727 915 1727 1197 1550 c 1,41,42
 1185 1499 1185 1499 1166 1460 c 1,34,35
EndSplineSet
EndChar

StartChar: Oacute
Encoding: 211 211 148
Width: 1535
GlyphClass: 2
Flags: W
LayerCount: 2
Fore
SplineSet
689 -20 m 1,0,1
 835 102 835 102 906.5 336 c 128,-1,2
 978 570 978 570 978 828.5 c 128,-1,3
 978 1087 978 1087 925 1296 c 1,4,5
 925 1310 925 1310 957.5 1336.5 c 128,-1,6
 990 1363 990 1363 1013 1363 c 1,7,8
 1158 1335 1158 1335 1260 1242 c 0,9,10
 1454 1065 1454 1065 1454 751 c 0,11,12
 1454 512 1454 512 1334 320 c 1,13,14
 1201 105 1201 105 968 24 c 0,15,16
 840 -20 840 -20 689 -20 c 1,0,1
888 1387 m 1,17,18
 741 1264 741 1264 669 1031 c 128,-1,19
 597 798 597 798 597 538 c 128,-1,20
 597 278 597 278 652 72 c 1,21,22
 652 58 652 58 619.5 31 c 128,-1,23
 587 4 587 4 563 4 c 1,24,25
 343 48 343 48 230 224 c 0,26,27
 122 393 122 393 122 615 c 0,28,29
 122 854 122 854 242 1048 c 0,30,31
 374 1261 374 1261 608 1342 c 0,32,33
 736 1387 736 1387 888 1387 c 1,17,18
623 1460 m 1,34,35
 604 1499 604 1499 592 1550 c 1,36,37
 874 1727 874 1727 1099 1832 c 1,38,39
 1135 1772 1135 1772 1167.5 1682.5 c 128,-1,40
 1200 1593 1200 1593 1205 1533 c 1,41,42
 976 1485 976 1485 623 1460 c 1,34,35
EndSplineSet
EndChar

StartChar: Ocircumflex
Encoding: 212 212 149
Width: 1535
GlyphClass: 2
Flags: W
LayerCount: 2
Fore
SplineSet
689 -20 m 1,0,1
 835 102 835 102 906.5 336 c 128,-1,2
 978 570 978 570 978 828.5 c 128,-1,3
 978 1087 978 1087 925 1296 c 1,4,5
 925 1310 925 1310 957.5 1336.5 c 128,-1,6
 990 1363 990 1363 1013 1363 c 1,7,8
 1158 1335 1158 1335 1260 1242 c 0,9,10
 1454 1065 1454 1065 1454 751 c 0,11,12
 1454 512 1454 512 1334 320 c 1,13,14
 1201 105 1201 105 968 24 c 0,15,16
 840 -20 840 -20 689 -20 c 1,0,1
888 1387 m 1,17,18
 741 1264 741 1264 669 1031 c 128,-1,19
 597 798 597 798 597 538 c 128,-1,20
 597 278 597 278 652 72 c 1,21,22
 652 58 652 58 619.5 31 c 128,-1,23
 587 4 587 4 563 4 c 1,24,25
 343 48 343 48 230 224 c 0,26,27
 122 393 122 393 122 615 c 0,28,29
 122 854 122 854 242 1048 c 0,30,31
 374 1261 374 1261 608 1342 c 0,32,33
 736 1387 736 1387 888 1387 c 1,17,18
479 1462 m 1,34,35
 446 1509 446 1509 431 1567 c 1,36,37
 625 1696 625 1696 870 1822 c 1,38,-1
 972 1822 l 1,39,40
 1158 1713 1158 1713 1365 1567 c 1,41,42
 1343 1505 1343 1505 1305 1462 c 1,43,44
 1064 1492 1064 1492 894 1527 c 1,45,46
 671 1488 671 1488 479 1462 c 1,34,35
EndSplineSet
EndChar

StartChar: Otilde
Encoding: 213 213 150
Width: 1535
GlyphClass: 2
Flags: W
LayerCount: 2
Fore
SplineSet
689 -20 m 1,0,1
 835 102 835 102 906.5 336 c 128,-1,2
 978 570 978 570 978 828.5 c 128,-1,3
 978 1087 978 1087 925 1296 c 1,4,5
 925 1310 925 1310 957.5 1336.5 c 128,-1,6
 990 1363 990 1363 1013 1363 c 1,7,8
 1158 1335 1158 1335 1260 1242 c 0,9,10
 1454 1065 1454 1065 1454 751 c 0,11,12
 1454 512 1454 512 1334 320 c 1,13,14
 1201 105 1201 105 968 24 c 0,15,16
 840 -20 840 -20 689 -20 c 1,0,1
888 1387 m 1,17,18
 741 1264 741 1264 669 1031 c 128,-1,19
 597 798 597 798 597 538 c 128,-1,20
 597 278 597 278 652 72 c 1,21,22
 652 58 652 58 619.5 31 c 128,-1,23
 587 4 587 4 563 4 c 1,24,25
 343 48 343 48 230 224 c 0,26,27
 122 393 122 393 122 615 c 0,28,29
 122 854 122 854 242 1048 c 0,30,31
 374 1261 374 1261 608 1342 c 0,32,33
 736 1387 736 1387 888 1387 c 1,17,18
1181 1465.5 m 128,-1,35
 1118 1438 1118 1438 1045 1438 c 128,-1,36
 972 1438 972 1438 828 1473.5 c 128,-1,37
 684 1509 684 1509 624.5 1509 c 128,-1,38
 565 1509 565 1509 498 1503 c 1,39,40
 492 1530 492 1530 492 1557 c 128,-1,41
 492 1584 492 1584 496 1607 c 1,42,43
 556 1701 556 1701 628 1728 c 0,44,45
 687 1751 687 1751 754 1751 c 128,-1,46
 821 1751 821 1751 964.5 1715.5 c 128,-1,47
 1108 1680 1108 1680 1169.5 1680 c 128,-1,48
 1231 1680 1231 1680 1298 1686 c 1,49,50
 1304 1656 1304 1656 1304 1631 c 128,-1,51
 1304 1606 1304 1606 1301 1582 c 1,52,34
 1244 1493 1244 1493 1181 1465.5 c 128,-1,35
EndSplineSet
EndChar

StartChar: Odieresis
Encoding: 214 214 151
Width: 1535
GlyphClass: 2
Flags: W
LayerCount: 2
Fore
SplineSet
689 -20 m 1,0,1
 835 102 835 102 906.5 336 c 128,-1,2
 978 570 978 570 978 828.5 c 128,-1,3
 978 1087 978 1087 925 1296 c 1,4,5
 925 1310 925 1310 957.5 1336.5 c 128,-1,6
 990 1363 990 1363 1013 1363 c 1,7,8
 1158 1335 1158 1335 1260 1242 c 0,9,10
 1454 1065 1454 1065 1454 751 c 0,11,12
 1454 512 1454 512 1334 320 c 1,13,14
 1201 105 1201 105 968 24 c 0,15,16
 840 -20 840 -20 689 -20 c 1,0,1
888 1387 m 1,17,18
 741 1264 741 1264 669 1031 c 128,-1,19
 597 798 597 798 597 538 c 128,-1,20
 597 278 597 278 652 72 c 1,21,22
 652 58 652 58 619.5 31 c 128,-1,23
 587 4 587 4 563 4 c 1,24,25
 343 48 343 48 230 224 c 0,26,27
 122 393 122 393 122 615 c 0,28,29
 122 854 122 854 242 1048 c 0,30,31
 374 1261 374 1261 608 1342 c 0,32,33
 736 1387 736 1387 888 1387 c 1,17,18
456 1479 m 128,-1,35
 405 1519 405 1519 405 1582 c 128,-1,36
 405 1645 405 1645 444 1688 c 0,37,38
 515 1769 515 1769 639 1769 c 0,39,40
 728 1769 728 1769 779 1728.5 c 128,-1,41
 830 1688 830 1688 830 1615 c 128,-1,42
 830 1542 830 1542 761.5 1490.5 c 128,-1,43
 693 1439 693 1439 600 1439 c 128,-1,34
 507 1439 507 1439 456 1479 c 128,-1,35
1012 1479 m 128,-1,45
 961 1519 961 1519 961 1582 c 128,-1,46
 961 1645 961 1645 1000 1688 c 0,47,48
 1072 1769 1072 1769 1178.5 1769 c 128,-1,49
 1285 1769 1285 1769 1335.5 1729 c 128,-1,50
 1386 1689 1386 1689 1386 1615.5 c 128,-1,51
 1386 1542 1386 1542 1317.5 1490.5 c 128,-1,52
 1249 1439 1249 1439 1156 1439 c 128,-1,44
 1063 1439 1063 1439 1012 1479 c 128,-1,45
EndSplineSet
EndChar

StartChar: multiply
Encoding: 215 215 152
Width: 1365
GlyphClass: 2
Flags: W
LayerCount: 2
Fore
SplineSet
1024 -18 m 2,0,-1
 974 -18 l 1,1,2
 800 250 800 250 689 417 c 1,3,4
 590 305 590 305 380 58 c 1,5,6
 327 0 327 0 292 0 c 2,7,-1
 150 0 l 1,8,9
 474 353 474 353 619 520 c 1,10,11
 584 572 584 572 308 972 c 1,12,13
 308 985 308 985 339.5 1007.5 c 128,-1,14
 371 1030 371 1030 396 1030 c 2,15,-1
 446 1030 l 1,16,17
 614 767 614 767 709 624 c 1,18,19
 829 762 829 762 984 952 c 1,20,21
 1030 1010 1030 1010 1072 1010 c 2,22,-1
 1214 1010 l 1,23,24
 928 690 928 690 779 520 c 1,25,26
 908 328 908 328 1112 40 c 1,27,28
 1112 27 1112 27 1080.5 4.5 c 128,-1,29
 1049 -18 1049 -18 1024 -18 c 2,0,-1
EndSplineSet
EndChar

StartChar: Oslash
Encoding: 216 216 153
Width: 1535
GlyphClass: 2
Flags: W
LayerCount: 2
Fore
SplineSet
1511 1256 m 0,0,1
 1403 1175 1403 1175 1267 1056 c 1,2,-1
 1177 1138 l 1,3,4
 1343 1279 1343 1279 1462 1409 c 1,5,-1
 1510 1353 l 2,6,7
 1534 1325 1534 1325 1534 1299 c 128,-1,8
 1534 1273 1534 1273 1511 1256 c 0,0,1
61 132 m 0,9,10
 169 213 169 213 305 332 c 1,11,-1
 395 250 l 1,12,13
 229 109 229 109 110 -21 c 1,14,-1
 62 35 l 2,15,16
 38 63 38 63 38 89 c 128,-1,17
 38 115 38 115 61 132 c 0,9,10
689 -20 m 1,18,19
 835 102 835 102 906.5 336 c 128,-1,20
 978 570 978 570 978 828.5 c 128,-1,21
 978 1087 978 1087 925 1296 c 1,22,23
 925 1310 925 1310 957.5 1336.5 c 128,-1,24
 990 1363 990 1363 1013 1363 c 1,25,26
 1158 1335 1158 1335 1260 1242 c 0,27,28
 1454 1065 1454 1065 1454 751 c 0,29,30
 1454 512 1454 512 1334 320 c 1,31,32
 1201 105 1201 105 968 24 c 0,33,34
 840 -20 840 -20 689 -20 c 1,18,19
888 1387 m 1,35,36
 741 1264 741 1264 669 1031 c 128,-1,37
 597 798 597 798 597 538 c 128,-1,38
 597 278 597 278 652 72 c 1,39,40
 652 58 652 58 619.5 31 c 128,-1,41
 587 4 587 4 563 4 c 1,42,43
 343 48 343 48 230 224 c 0,44,45
 122 393 122 393 122 615 c 0,46,47
 122 854 122 854 242 1048 c 0,48,49
 374 1261 374 1261 608 1342 c 0,50,51
 736 1387 736 1387 888 1387 c 1,35,36
EndSplineSet
EndChar

StartChar: Ugrave
Encoding: 217 217 154
Width: 1535
GlyphClass: 2
Flags: W
LayerCount: 2
Fore
SplineSet
1268 335 m 1,0,1
 1239 187 1239 187 1128 88 c 0,2,3
 1006 -20 1006 -20 790 -20 c 0,4,5
 405 -20 405 -20 282 177 c 0,6,7
 213 286 213 286 213 459 c 0,8,9
 213 573 213 573 259 857 c 128,-1,10
 305 1141 305 1141 305 1295 c 0,11,12
 305 1309 305 1309 337 1335 c 128,-1,13
 369 1361 369 1361 392 1361 c 2,14,-1
 869 1361 l 1,15,16
 713 635 713 635 713 383 c 0,17,18
 713 142 713 142 950 142 c 0,19,20
 1042 142 1042 142 1129 195.5 c 128,-1,21
 1216 249 1216 249 1268 335 c 1,0,1
1200 390 m 1,22,23
 1200 690 1200 690 1167.5 901.5 c 128,-1,24
 1135 1113 1135 1113 1048 1295 c 1,25,26
 1048 1309 1048 1309 1080 1335 c 128,-1,27
 1112 1361 1112 1361 1135 1361 c 2,28,-1
 1473 1361 l 1,29,30
 1356 831 1356 831 1287 457 c 0,31,32
 1284 442 1284 442 1253.5 416 c 128,-1,33
 1223 390 1223 390 1200 390 c 1,22,23
1287 1460 m 1,34,35
 934 1485 934 1485 705 1533 c 1,36,37
 710 1593 710 1593 742.5 1682.5 c 128,-1,38
 775 1772 775 1772 811 1832 c 1,39,40
 1036 1727 1036 1727 1318 1550 c 1,41,42
 1306 1499 1306 1499 1287 1460 c 1,34,35
EndSplineSet
EndChar

StartChar: Uacute
Encoding: 218 218 155
Width: 1535
GlyphClass: 2
Flags: W
LayerCount: 2
Fore
SplineSet
1268 335 m 1,0,1
 1239 187 1239 187 1128 88 c 0,2,3
 1006 -20 1006 -20 790 -20 c 0,4,5
 405 -20 405 -20 282 177 c 0,6,7
 213 286 213 286 213 459 c 0,8,9
 213 573 213 573 259 857 c 128,-1,10
 305 1141 305 1141 305 1295 c 0,11,12
 305 1309 305 1309 337 1335 c 128,-1,13
 369 1361 369 1361 392 1361 c 2,14,-1
 869 1361 l 1,15,16
 713 635 713 635 713 383 c 0,17,18
 713 142 713 142 950 142 c 0,19,20
 1042 142 1042 142 1129 195.5 c 128,-1,21
 1216 249 1216 249 1268 335 c 1,0,1
1200 390 m 1,22,23
 1200 690 1200 690 1167.5 901.5 c 128,-1,24
 1135 1113 1135 1113 1048 1295 c 1,25,26
 1048 1309 1048 1309 1080 1335 c 128,-1,27
 1112 1361 1112 1361 1135 1361 c 2,28,-1
 1473 1361 l 1,29,30
 1356 831 1356 831 1287 457 c 0,31,32
 1284 442 1284 442 1253.5 416 c 128,-1,33
 1223 390 1223 390 1200 390 c 1,22,23
744 1460 m 1,34,35
 725 1499 725 1499 713 1550 c 1,36,37
 995 1727 995 1727 1220 1832 c 1,38,39
 1256 1772 1256 1772 1288.5 1682.5 c 128,-1,40
 1321 1593 1321 1593 1326 1533 c 1,41,42
 1097 1485 1097 1485 744 1460 c 1,34,35
EndSplineSet
EndChar

StartChar: Ucircumflex
Encoding: 219 219 156
Width: 1535
GlyphClass: 2
Flags: W
LayerCount: 2
Fore
SplineSet
1268 335 m 1,0,1
 1239 187 1239 187 1128 88 c 0,2,3
 1006 -20 1006 -20 790 -20 c 0,4,5
 405 -20 405 -20 282 177 c 0,6,7
 213 286 213 286 213 459 c 0,8,9
 213 573 213 573 259 857 c 128,-1,10
 305 1141 305 1141 305 1295 c 0,11,12
 305 1309 305 1309 337 1335 c 128,-1,13
 369 1361 369 1361 392 1361 c 2,14,-1
 869 1361 l 1,15,16
 713 635 713 635 713 383 c 0,17,18
 713 142 713 142 950 142 c 0,19,20
 1042 142 1042 142 1129 195.5 c 128,-1,21
 1216 249 1216 249 1268 335 c 1,0,1
1200 390 m 1,22,23
 1200 690 1200 690 1167.5 901.5 c 128,-1,24
 1135 1113 1135 1113 1048 1295 c 1,25,26
 1048 1309 1048 1309 1080 1335 c 128,-1,27
 1112 1361 1112 1361 1135 1361 c 2,28,-1
 1473 1361 l 1,29,30
 1356 831 1356 831 1287 457 c 0,31,32
 1284 442 1284 442 1253.5 416 c 128,-1,33
 1223 390 1223 390 1200 390 c 1,22,23
600 1462 m 1,34,35
 567 1509 567 1509 552 1567 c 1,36,37
 746 1696 746 1696 991 1822 c 1,38,-1
 1093 1822 l 1,39,40
 1279 1713 1279 1713 1486 1567 c 1,41,42
 1464 1505 1464 1505 1426 1462 c 1,43,44
 1185 1492 1185 1492 1015 1527 c 1,45,46
 792 1488 792 1488 600 1462 c 1,34,35
EndSplineSet
EndChar

StartChar: Udieresis
Encoding: 220 220 157
Width: 1535
GlyphClass: 2
Flags: W
LayerCount: 2
Fore
SplineSet
1268 335 m 1,0,1
 1239 187 1239 187 1128 88 c 0,2,3
 1006 -20 1006 -20 790 -20 c 0,4,5
 405 -20 405 -20 282 177 c 0,6,7
 213 286 213 286 213 459 c 0,8,9
 213 573 213 573 259 857 c 128,-1,10
 305 1141 305 1141 305 1295 c 0,11,12
 305 1309 305 1309 337 1335 c 128,-1,13
 369 1361 369 1361 392 1361 c 2,14,-1
 869 1361 l 1,15,16
 713 635 713 635 713 383 c 0,17,18
 713 142 713 142 950 142 c 0,19,20
 1042 142 1042 142 1129 195.5 c 128,-1,21
 1216 249 1216 249 1268 335 c 1,0,1
1200 390 m 1,22,23
 1200 690 1200 690 1167.5 901.5 c 128,-1,24
 1135 1113 1135 1113 1048 1295 c 1,25,26
 1048 1309 1048 1309 1080 1335 c 128,-1,27
 1112 1361 1112 1361 1135 1361 c 2,28,-1
 1473 1361 l 1,29,30
 1356 831 1356 831 1287 457 c 0,31,32
 1284 442 1284 442 1253.5 416 c 128,-1,33
 1223 390 1223 390 1200 390 c 1,22,23
577 1479 m 128,-1,35
 526 1519 526 1519 526 1582 c 128,-1,36
 526 1645 526 1645 564 1688 c 0,37,38
 636 1769 636 1769 760 1769 c 0,39,40
 849 1769 849 1769 900 1728.5 c 128,-1,41
 951 1688 951 1688 951 1615 c 128,-1,42
 951 1542 951 1542 882.5 1490.5 c 128,-1,43
 814 1439 814 1439 721 1439 c 128,-1,34
 628 1439 628 1439 577 1479 c 128,-1,35
1133 1479 m 128,-1,45
 1082 1519 1082 1519 1082 1582 c 128,-1,46
 1082 1645 1082 1645 1121 1688 c 0,47,48
 1193 1769 1193 1769 1299.5 1769 c 128,-1,49
 1406 1769 1406 1769 1456.5 1729 c 128,-1,50
 1507 1689 1507 1689 1507 1615.5 c 128,-1,51
 1507 1542 1507 1542 1438.5 1490.5 c 128,-1,52
 1370 1439 1370 1439 1277 1439 c 128,-1,44
 1184 1439 1184 1439 1133 1479 c 128,-1,45
EndSplineSet
EndChar

StartChar: Yacute
Encoding: 221 221 158
Width: 1365
GlyphClass: 2
Flags: W
LayerCount: 2
Fore
SplineSet
771 0 m 2,0,-1
 329 0 l 1,1,2
 366 189 366 189 384 351 c 1,3,4
 301 792 301 792 153 1296 c 1,5,6
 153 1309 153 1309 184.5 1335 c 128,-1,7
 216 1361 216 1361 240 1361 c 2,8,-1
 705 1361 l 1,9,10
 755 845 755 845 909 393 c 1,11,12
 879 255 879 255 860 66 c 1,13,14
 860 53 860 53 827.5 26.5 c 128,-1,15
 795 0 795 0 771 0 c 2,0,-1
1010 608 m 0,16,17
 1002 591 1002 591 973.5 566 c 128,-1,18
 945 541 945 541 923 541 c 1,19,20
 1015 882 1015 882 1015 1215 c 0,21,22
 1015 1269 1015 1269 1013 1296 c 0,23,24
 1013 1309 1013 1309 1045.5 1335 c 128,-1,25
 1078 1361 1078 1361 1102 1361 c 2,26,-1
 1420 1361 l 1,27,28
 1270 1127 1270 1127 1010 608 c 0,16,17
611 1460 m 1,29,30
 592 1499 592 1499 580 1550 c 1,31,32
 862 1727 862 1727 1087 1832 c 1,33,34
 1123 1772 1123 1772 1155.5 1682.5 c 128,-1,35
 1188 1593 1188 1593 1193 1533 c 1,36,37
 964 1485 964 1485 611 1460 c 1,29,30
EndSplineSet
EndChar

StartChar: Thorn
Encoding: 222 222 159
Width: 1438
GlyphClass: 2
Flags: W
LayerCount: 2
Fore
SplineSet
708 247 m 1,0,1
 810 357 810 357 867.5 495 c 128,-1,2
 925 633 925 633 925 789.5 c 128,-1,3
 925 946 925 946 843 1096 c 1,4,5
 843 1110 843 1110 875.5 1137 c 128,-1,6
 908 1164 908 1164 931 1164 c 1,7,8
 1152 1149 1152 1149 1277 1034.5 c 128,-1,9
 1402 920 1402 920 1402 742 c 0,10,11
 1402 632 1402 632 1350.5 536 c 128,-1,12
 1299 440 1299 440 1214 376 c 0,13,14
 1033 240 1033 240 800 240 c 0,15,16
 743 240 743 240 708 247 c 1,0,1
537 0 m 2,17,-1
 72 0 l 1,18,19
 210 597 210 597 267 1296 c 1,20,21
 267 1309 267 1309 299.5 1335 c 128,-1,22
 332 1361 332 1361 355 1361 c 2,23,-1
 820 1361 l 1,24,25
 681 769 681 769 624 66 c 1,26,27
 624 53 624 53 592 26.5 c 128,-1,28
 560 0 560 0 537 0 c 2,17,-1
EndSplineSet
EndChar

StartChar: germandbls
Encoding: 223 223 160
Width: 1717
GlyphClass: 2
Flags: W
LayerCount: 2
Fore
SplineSet
653.5 569.5 m 128,-1,1
 651 487 651 487 651 357.5 c 128,-1,2
 651 228 651 228 635 66 c 1,3,4
 635 53 635 53 603 26.5 c 128,-1,5
 571 0 571 0 548 0 c 2,6,-1
 128 0 l 1,7,8
 163 151 163 151 226 628 c 1,9,10
 157 654 157 654 67 671 c 1,11,12
 58 685 58 685 51.5 719.5 c 128,-1,13
 45 754 45 754 45 774 c 1,14,15
 168 809 168 809 254 845 c 1,16,17
 264 920 264 920 265 926 c 0,18,19
 298 1159 298 1159 427.5 1276.5 c 128,-1,20
 557 1394 557 1394 800 1394 c 128,-1,21
 1043 1394 1043 1394 1301 1270 c 1,22,23
 1312 1228 1312 1228 1315 1169 c 1,24,25
 1271 1172 1271 1172 1183 1172 c 128,-1,26
 1095 1172 1095 1172 1015.5 1157 c 128,-1,27
 936 1142 936 1142 880 1115.5 c 128,-1,28
 824 1089 824 1089 783.5 1046.5 c 128,-1,29
 743 1004 743 1004 719.5 956.5 c 128,-1,30
 696 909 696 909 681 844 c 128,-1,31
 666 779 666 779 661 715.5 c 128,-1,0
 656 652 656 652 653.5 569.5 c 128,-1,1
1315 1054 m 1,32,33
 1258 1000 1258 1000 1258 937.5 c 128,-1,34
 1258 875 1258 875 1287.5 811 c 128,-1,35
 1317 747 1317 747 1360.5 697.5 c 128,-1,36
 1404 648 1404 648 1455.5 594 c 128,-1,37
 1507 540 1507 540 1550 494 c 0,38,39
 1653 386 1653 386 1653 279 c 0,40,41
 1653 147 1653 147 1526.5 69.5 c 128,-1,42
 1400 -8 1400 -8 1172 -8 c 1,43,44
 1198 50 1198 50 1198 97 c 128,-1,45
 1198 144 1198 144 1176.5 190.5 c 128,-1,46
 1155 237 1155 237 1120.5 276.5 c 128,-1,47
 1086 316 1086 316 1045 356.5 c 128,-1,48
 1004 397 1004 397 962.5 439 c 128,-1,49
 921 481 921 481 886 524 c 0,50,51
 809 622 809 622 809 728 c 0,52,53
 809 887 809 887 939 968.5 c 128,-1,54
 1069 1050 1069 1050 1315 1054 c 1,32,33
821 24 m 128,-1,56
 787 54 787 54 787 107 c 128,-1,57
 787 160 787 160 836.5 195.5 c 128,-1,58
 886 231 886 231 943 231 c 128,-1,59
 1000 231 1000 231 1034.5 200.5 c 128,-1,60
 1069 170 1069 170 1069 120 c 128,-1,61
 1069 70 1069 70 1023.5 32 c 128,-1,62
 978 -6 978 -6 916.5 -6 c 128,-1,55
 855 -6 855 -6 821 24 c 128,-1,56
EndSplineSet
EndChar

StartChar: aacute
Encoding: 225 225 162
Width: 1537
GlyphClass: 2
Flags: W
LayerCount: 2
Fore
SplineSet
1301 40 m 1,0,1
 1106 -2 1106 -2 882 -2 c 1,2,3
 831 67 831 67 831 143 c 128,-1,4
 831 219 831 219 876 528.5 c 128,-1,5
 921 838 921 838 922 940 c 0,6,7
 922 953 922 953 955 979 c 128,-1,8
 988 1005 988 1005 1010 1005 c 0,9,10
 1224 1005 1224 1005 1413 948 c 1,11,12
 1409 916 1409 916 1360 693.5 c 128,-1,13
 1311 471 1311 471 1311 336.5 c 128,-1,14
 1311 202 1311 202 1383 130 c 1,15,16
 1383 116 1383 116 1355 83.5 c 128,-1,17
 1327 51 1327 51 1301 40 c 1,0,1
838 1019 m 1,18,19
 719 931 719 931 657.5 780 c 128,-1,20
 596 629 596 629 596 483.5 c 128,-1,21
 596 338 596 338 628.5 222.5 c 128,-1,22
 661 107 661 107 716 68 c 1,23,24
 716 53 716 53 684 26.5 c 128,-1,25
 652 0 652 0 629 0 c 0,26,27
 400 0 400 0 261.5 115 c 128,-1,28
 123 230 123 230 123 429 c 0,29,30
 123 676 123 676 310 844 c 0,31,32
 400 925 400 925 536.5 972 c 128,-1,33
 673 1019 673 1019 838 1019 c 1,18,19
612 1145 m 1,34,35
 578 1188 578 1188 563 1250 c 1,36,37
 798 1458 798 1458 1024 1605 c 1,38,39
 1064 1553 1064 1553 1115 1438 c 128,-1,40
 1166 1323 1166 1323 1178 1261 c 1,41,42
 953 1184 953 1184 612 1145 c 1,34,35
EndSplineSet
EndChar

StartChar: adieresis
Encoding: 228 228 165
Width: 1537
GlyphClass: 2
Flags: W
LayerCount: 2
Fore
SplineSet
1301 40 m 1,0,1
 1106 -2 1106 -2 882 -2 c 1,2,3
 831 67 831 67 831 143 c 128,-1,4
 831 219 831 219 876 528.5 c 128,-1,5
 921 838 921 838 922 940 c 0,6,7
 922 953 922 953 955 979 c 128,-1,8
 988 1005 988 1005 1010 1005 c 0,9,10
 1224 1005 1224 1005 1413 948 c 1,11,12
 1409 916 1409 916 1360 693.5 c 128,-1,13
 1311 471 1311 471 1311 336.5 c 128,-1,14
 1311 202 1311 202 1383 130 c 1,15,16
 1383 116 1383 116 1355 83.5 c 128,-1,17
 1327 51 1327 51 1301 40 c 1,0,1
838 1019 m 1,18,19
 719 931 719 931 657.5 780 c 128,-1,20
 596 629 596 629 596 483.5 c 128,-1,21
 596 338 596 338 628.5 222.5 c 128,-1,22
 661 107 661 107 716 68 c 1,23,24
 716 53 716 53 684 26.5 c 128,-1,25
 652 0 652 0 629 0 c 0,26,27
 400 0 400 0 261.5 115 c 128,-1,28
 123 230 123 230 123 429 c 0,29,30
 123 676 123 676 310 844 c 0,31,32
 400 925 400 925 536.5 972 c 128,-1,33
 673 1019 673 1019 838 1019 c 1,18,19
444.5 1179.5 m 128,-1,35
 393 1224 393 1224 393 1287.5 c 128,-1,36
 393 1351 393 1351 432 1397 c 0,37,38
 505 1485 505 1485 627 1485 c 0,39,40
 715 1485 715 1485 766.5 1440.5 c 128,-1,41
 818 1396 818 1396 818 1322 c 128,-1,42
 818 1248 818 1248 749 1191.5 c 128,-1,43
 680 1135 680 1135 588 1135 c 128,-1,34
 496 1135 496 1135 444.5 1179.5 c 128,-1,35
1000.5 1179.5 m 128,-1,45
 949 1224 949 1224 949 1287.5 c 128,-1,46
 949 1351 949 1351 988 1397 c 0,47,48
 1063 1485 1063 1485 1167.5 1485 c 128,-1,49
 1272 1485 1272 1485 1323 1440.5 c 128,-1,50
 1374 1396 1374 1396 1374 1322 c 128,-1,51
 1374 1248 1374 1248 1305 1191.5 c 128,-1,52
 1236 1135 1236 1135 1144 1135 c 128,-1,44
 1052 1135 1052 1135 1000.5 1179.5 c 128,-1,45
EndSplineSet
EndChar

StartChar: aring
Encoding: 229 229 166
Width: 1537
GlyphClass: 2
Flags: W
LayerCount: 2
Fore
SplineSet
1301 40 m 1,0,1
 1106 -2 1106 -2 882 -2 c 1,2,3
 831 67 831 67 831 143 c 128,-1,4
 831 219 831 219 876 528.5 c 128,-1,5
 921 838 921 838 922 940 c 0,6,7
 922 953 922 953 955 979 c 128,-1,8
 988 1005 988 1005 1010 1005 c 0,9,10
 1224 1005 1224 1005 1413 948 c 1,11,12
 1409 916 1409 916 1360 693.5 c 128,-1,13
 1311 471 1311 471 1311 336.5 c 128,-1,14
 1311 202 1311 202 1383 130 c 1,15,16
 1383 116 1383 116 1355 83.5 c 128,-1,17
 1327 51 1327 51 1301 40 c 1,0,1
838 1019 m 1,18,19
 719 931 719 931 657.5 780 c 128,-1,20
 596 629 596 629 596 483.5 c 128,-1,21
 596 338 596 338 628.5 222.5 c 128,-1,22
 661 107 661 107 716 68 c 1,23,24
 716 53 716 53 684 26.5 c 128,-1,25
 652 0 652 0 629 0 c 0,26,27
 400 0 400 0 261.5 115 c 128,-1,28
 123 230 123 230 123 429 c 0,29,30
 123 676 123 676 310 844 c 0,31,32
 400 925 400 925 536.5 972 c 128,-1,33
 673 1019 673 1019 838 1019 c 1,18,19
812 1391.5 m 128,-1,35
 780 1367 780 1367 780 1331 c 128,-1,36
 780 1295 780 1295 802 1274.5 c 128,-1,37
 824 1254 824 1254 863 1254 c 128,-1,38
 902 1254 902 1254 932 1280.5 c 128,-1,39
 962 1307 962 1307 962 1340.5 c 128,-1,40
 962 1374 962 1374 939.5 1395 c 128,-1,41
 917 1416 917 1416 880.5 1416 c 128,-1,34
 844 1416 844 1416 812 1391.5 c 128,-1,35
671.5 1159.5 m 128,-1,43
 607 1219 607 1219 607 1295 c 128,-1,44
 607 1371 607 1371 635 1422 c 128,-1,45
 663 1473 663 1473 706 1504 c 0,46,47
 797 1570 797 1570 902 1570 c 128,-1,48
 1007 1570 1007 1570 1071 1510 c 128,-1,49
 1135 1450 1135 1450 1135 1351 c 128,-1,50
 1135 1252 1135 1252 1049 1176 c 128,-1,51
 963 1100 963 1100 849.5 1100 c 128,-1,42
 736 1100 736 1100 671.5 1159.5 c 128,-1,43
EndSplineSet
EndChar

StartChar: ae
Encoding: 230 230 167
Width: 2103
GlyphClass: 2
Flags: W
LayerCount: 2
Fore
SplineSet
1568 1010 m 1,0,1
 1444 926 1444 926 1371.5 789 c 128,-1,2
 1299 652 1299 652 1299 496 c 128,-1,3
 1299 340 1299 340 1419 242 c 128,-1,4
 1539 144 1539 144 1769 144 c 0,5,6
 1832 144 1832 144 1904 155 c 1,7,8
 1857 81 1857 81 1723 31.5 c 128,-1,9
 1589 -18 1589 -18 1431 -18 c 128,-1,10
 1273 -18 1273 -18 1165 22 c 1,11,12
 1028 -2 1028 -2 882 -2 c 1,13,14
 831 67 831 67 831 143 c 128,-1,15
 831 219 831 219 876 528.5 c 128,-1,16
 921 838 921 838 922 940 c 0,17,18
 922 953 922 953 955 979 c 128,-1,19
 988 1005 988 1005 1010 1005 c 0,20,21
 1107 1005 1107 1005 1233 980 c 1,22,23
 1342 1019 1342 1019 1474 1019 c 0,24,25
 1526 1019 1526 1019 1568 1010 c 1,0,1
838 1019 m 1,26,27
 719 931 719 931 657.5 780 c 128,-1,28
 596 629 596 629 596 483.5 c 128,-1,29
 596 338 596 338 628.5 222.5 c 128,-1,30
 661 107 661 107 716 68 c 1,31,32
 716 53 716 53 684 26.5 c 128,-1,33
 652 0 652 0 629 0 c 0,34,35
 400 0 400 0 261.5 115 c 128,-1,36
 123 230 123 230 123 429 c 0,37,38
 123 676 123 676 310 844 c 0,39,40
 400 925 400 925 536.5 972 c 128,-1,41
 673 1019 673 1019 838 1019 c 1,26,27
1730 994 m 1,42,43
 1873 968 1873 968 1950.5 875.5 c 128,-1,44
 2028 783 2028 783 2028 668 c 0,45,46
 2028 527 2028 527 1904.5 448 c 128,-1,47
 1781 369 1781 369 1586 369 c 0,48,49
 1525 369 1525 369 1452 389 c 1,50,51
 1549 451 1549 451 1595 554 c 128,-1,52
 1641 657 1641 657 1641 754 c 128,-1,53
 1641 851 1641 851 1622 924 c 1,54,55
 1622 937 1622 937 1663.5 965 c 128,-1,56
 1705 993 1705 993 1730 994 c 1,42,43
EndSplineSet
EndChar

StartChar: eacute
Encoding: 233 233 170
Width: 1365
GlyphClass: 2
Flags: W
LayerCount: 2
Fore
SplineSet
1013 994 m 1,0,1
 1149 947 1149 947 1219.5 862.5 c 128,-1,2
 1290 778 1290 778 1290 682 c 0,3,4
 1290 551 1290 551 1177 460 c 128,-1,5
 1064 369 1064 369 869 369 c 0,6,7
 808 369 808 369 735 389 c 1,8,9
 841 455 841 455 878 561 c 0,10,11
 910 653 910 653 910 777 c 0,12,13
 910 801 910 801 905 924 c 0,14,15
 904 937 904 937 945.5 965 c 128,-1,16
 987 993 987 993 1013 994 c 1,0,1
851 1010 m 1,17,18
 727 926 727 926 654.5 789 c 128,-1,19
 582 652 582 652 582 496 c 128,-1,20
 582 340 582 340 702 242 c 128,-1,21
 822 144 822 144 1052 144 c 0,22,23
 1115 144 1115 144 1187 155 c 1,24,25
 1140 81 1140 81 1006 31.5 c 128,-1,26
 872 -18 872 -18 725 -18 c 128,-1,27
 578 -18 578 -18 474 11.5 c 128,-1,28
 370 41 370 41 288.5 99 c 128,-1,29
 207 157 207 157 160 250.5 c 128,-1,30
 113 344 113 344 113 456.5 c 128,-1,31
 113 569 113 569 148 660 c 128,-1,32
 183 751 183 751 244 816 c 128,-1,33
 305 881 305 881 386 928 c 1,34,35
 547 1019 547 1019 757 1019 c 0,36,37
 809 1019 809 1019 851 1010 c 1,17,18
519 1145 m 1,38,39
 485 1188 485 1188 470 1250 c 1,40,41
 705 1458 705 1458 931 1605 c 1,42,43
 971 1553 971 1553 1022 1438 c 128,-1,44
 1073 1323 1073 1323 1085 1261 c 1,45,46
 860 1184 860 1184 519 1145 c 1,38,39
EndSplineSet
EndChar

StartChar: edieresis
Encoding: 235 235 172
Width: 1365
GlyphClass: 2
Flags: W
LayerCount: 2
Fore
SplineSet
1013 994 m 1,0,1
 1149 947 1149 947 1219.5 862.5 c 128,-1,2
 1290 778 1290 778 1290 682 c 0,3,4
 1290 551 1290 551 1177 460 c 128,-1,5
 1064 369 1064 369 869 369 c 0,6,7
 808 369 808 369 735 389 c 1,8,9
 841 455 841 455 878 561 c 0,10,11
 910 653 910 653 910 777 c 0,12,13
 910 801 910 801 905 924 c 0,14,15
 904 937 904 937 945.5 965 c 128,-1,16
 987 993 987 993 1013 994 c 1,0,1
851 1010 m 1,17,18
 727 926 727 926 654.5 789 c 128,-1,19
 582 652 582 652 582 496 c 128,-1,20
 582 340 582 340 702 242 c 128,-1,21
 822 144 822 144 1052 144 c 0,22,23
 1115 144 1115 144 1187 155 c 1,24,25
 1140 81 1140 81 1006 31.5 c 128,-1,26
 872 -18 872 -18 725 -18 c 128,-1,27
 578 -18 578 -18 474 11.5 c 128,-1,28
 370 41 370 41 288.5 99 c 128,-1,29
 207 157 207 157 160 250.5 c 128,-1,30
 113 344 113 344 113 456.5 c 128,-1,31
 113 569 113 569 148 660 c 128,-1,32
 183 751 183 751 244 816 c 128,-1,33
 305 881 305 881 386 928 c 1,34,35
 547 1019 547 1019 757 1019 c 0,36,37
 809 1019 809 1019 851 1010 c 1,17,18
351.5 1179.5 m 128,-1,39
 300 1224 300 1224 300 1287.5 c 128,-1,40
 300 1351 300 1351 338 1397 c 0,41,42
 412 1485 412 1485 534 1485 c 0,43,44
 622 1485 622 1485 673.5 1440.5 c 128,-1,45
 725 1396 725 1396 725 1322 c 128,-1,46
 725 1248 725 1248 656 1191.5 c 128,-1,47
 587 1135 587 1135 495 1135 c 128,-1,38
 403 1135 403 1135 351.5 1179.5 c 128,-1,39
907.5 1179.5 m 128,-1,49
 856 1224 856 1224 856 1287.5 c 128,-1,50
 856 1351 856 1351 895 1397 c 0,51,52
 970 1485 970 1485 1074.5 1485 c 128,-1,53
 1179 1485 1179 1485 1230 1440.5 c 128,-1,54
 1281 1396 1281 1396 1281 1322 c 128,-1,55
 1281 1248 1281 1248 1212 1191.5 c 128,-1,56
 1143 1135 1143 1135 1051 1135 c 128,-1,48
 959 1135 959 1135 907.5 1179.5 c 128,-1,49
EndSplineSet
EndChar

StartChar: igrave
Encoding: 236 236 173
Width: 852
GlyphClass: 2
Flags: W
LayerCount: 2
Fore
SplineSet
97 0 m 1,0,1
 184 368 184 368 230 928 c 1,2,3
 230 941 230 941 263 967 c 128,-1,4
 296 993 296 993 318 993 c 2,5,-1
 737 993 l 1,6,7
 650 619 650 619 604 66 c 1,8,9
 604 53 604 53 572 26.5 c 128,-1,10
 540 0 540 0 517 0 c 2,11,-1
 97 0 l 1,0,1
790 1145 m 1,12,13
 449 1184 449 1184 224 1261 c 1,14,15
 236 1323 236 1323 287 1438 c 128,-1,16
 338 1553 338 1553 378 1605 c 1,17,18
 604 1458 604 1458 839 1250 c 1,19,20
 824 1188 824 1188 790 1145 c 1,12,13
EndSplineSet
EndChar

StartChar: icircumflex
Encoding: 238 238 175
Width: 852
GlyphClass: 2
Flags: W
LayerCount: 2
Fore
SplineSet
97 0 m 1,0,1
 184 368 184 368 230 928 c 1,2,3
 230 941 230 941 263 967 c 128,-1,4
 296 993 296 993 318 993 c 2,5,-1
 737 993 l 1,6,7
 650 619 650 619 604 66 c 1,8,9
 604 53 604 53 572 26.5 c 128,-1,10
 540 0 540 0 517 0 c 2,11,-1
 97 0 l 1,0,1
121 1239 m 1,12,13
 299 1443 299 1443 490 1594 c 1,14,-1
 592 1594 l 1,15,16
 684 1500 684 1500 731.5 1440.5 c 128,-1,17
 779 1381 779 1381 875 1239 c 1,18,19
 851 1185 851 1185 795 1134 c 1,20,21
 619 1216 619 1216 514 1272 c 1,22,23
 368 1208 368 1208 179 1134 c 1,24,25
 137 1179 137 1179 121 1239 c 1,12,13
EndSplineSet
EndChar

StartChar: eth
Encoding: 240 240 177
Width: 1412
GlyphClass: 2
Flags: W
LayerCount: 2
Fore
SplineSet
620 -25 m 1,0,1
 734 101 734 101 789.5 279 c 128,-1,2
 845 457 845 457 845 656 c 0,3,4
 845 968 845 968 740 1187 c 1,5,6
 637 1133 637 1133 521 1067 c 1,7,-1
 501 1129 l 1,8,9
 501 1154 501 1154 523.5 1185.5 c 128,-1,10
 546 1217 546 1217 559 1217 c 1,11,12
 660 1250 660 1250 697 1265 c 1,13,14
 632 1366 632 1366 548 1433 c 1,15,16
 549 1450 549 1450 568 1475 c 128,-1,17
 587 1500 587 1500 609 1500 c 1,18,19
 763 1471 763 1471 911 1354 c 1,20,21
 1043 1423 1043 1423 1147 1483 c 1,22,-1
 1167 1421 l 1,23,24
 1167 1396 1167 1396 1144.5 1364.5 c 128,-1,25
 1122 1333 1122 1333 1109 1333 c 1,26,27
 1046 1313 1046 1313 984 1290 c 1,28,29
 1123 1157 1123 1157 1208 976 c 128,-1,30
 1293 795 1293 795 1293 629 c 128,-1,31
 1293 463 1293 463 1252 350 c 128,-1,32
 1211 237 1211 237 1130 152 c 0,33,34
 960 -25 960 -25 620 -25 c 1,0,1
733 923 m 1,35,36
 484 782 484 782 484 404 c 0,37,38
 484 213 484 213 603 68 c 1,39,40
 603 53 603 53 571 26.5 c 128,-1,41
 539 0 539 0 516 0 c 1,42,43
 255 23 255 23 144 208 c 0,44,45
 82 311 82 311 82 430.5 c 128,-1,46
 82 550 82 550 125.5 646.5 c 128,-1,47
 169 743 169 743 242 805 c 0,48,49
 394 935 394 935 598 935 c 0,50,51
 690 935 690 935 733 923 c 1,35,36
EndSplineSet
EndChar

StartChar: ntilde
Encoding: 241 241 178
Width: 1535
GlyphClass: 2
Flags: W
LayerCount: 2
Fore
SplineSet
515 0 m 2,0,-1
 95 0 l 1,1,2
 199 438 199 438 239 925 c 0,3,4
 239 937 239 937 271 961.5 c 128,-1,5
 303 986 303 986 338.5 992 c 128,-1,6
 374 998 374 998 512.5 1008.5 c 128,-1,7
 651 1019 651 1019 727 1019 c 1,8,9
 646 600 646 600 602 66 c 1,10,11
 602 53 602 53 570 26.5 c 128,-1,12
 538 0 538 0 515 0 c 2,0,-1
876 -10 m 1,13,14
 818 46 818 46 818 134 c 128,-1,15
 818 222 818 222 862.5 470 c 128,-1,16
 907 718 907 718 907 775.5 c 128,-1,17
 907 833 907 833 879.5 858.5 c 128,-1,18
 852 884 852 884 808 884 c 1,19,20
 817 944 817 944 842 974 c 1,21,22
 879 992 879 992 958.5 1007 c 128,-1,23
 1038 1022 1038 1022 1106 1022 c 0,24,25
 1239 1022 1239 1022 1305.5 961 c 128,-1,26
 1372 900 1372 900 1372 768 c 0,27,28
 1372 694 1372 694 1340 508 c 128,-1,29
 1308 322 1308 322 1308 280 c 128,-1,30
 1308 238 1308 238 1311.5 217 c 128,-1,31
 1315 196 1315 196 1317.5 184 c 128,-1,32
 1320 172 1320 172 1331 156.5 c 128,-1,33
 1342 141 1342 141 1345 137.5 c 128,-1,34
 1348 134 1348 134 1365 117.5 c 128,-1,35
 1382 101 1382 101 1385 98 c 1,36,37
 1385 84 1385 84 1356 51.5 c 128,-1,38
 1327 19 1327 19 1303 9 c 1,39,40
 1175 -10 1175 -10 876 -10 c 1,13,14
981 1154 m 0,41,42
 902 1154 902 1154 800.5 1214.5 c 128,-1,43
 699 1275 699 1275 633.5 1275 c 128,-1,44
 568 1275 568 1275 501 1269 c 1,45,46
 495 1296 495 1296 495 1323 c 128,-1,47
 495 1350 495 1350 499 1373 c 1,48,49
 615 1557 615 1557 761 1557 c 0,50,51
 818 1557 818 1557 860 1536.5 c 128,-1,52
 902 1516 902 1516 939 1495 c 0,53,54
 1044 1436 1044 1436 1109 1436 c 128,-1,55
 1174 1436 1174 1436 1241 1442 c 1,56,57
 1247 1412 1247 1412 1247 1387 c 128,-1,58
 1247 1362 1247 1362 1244 1338 c 1,59,60
 1127 1154 1127 1154 981 1154 c 0,41,42
EndSplineSet
EndChar

StartChar: oacute
Encoding: 243 243 180
Width: 1535
GlyphClass: 2
Flags: W
LayerCount: 2
Fore
SplineSet
835 1027 m 1,0,1
 595 797 595 797 595 406 c 0,2,3
 595 240 595 240 639 72 c 1,4,5
 638 57 638 57 606.5 31 c 128,-1,6
 575 5 575 5 553 5 c 1,7,8
 385 28 385 28 262 144 c 0,9,10
 133 266 133 266 133 448.5 c 128,-1,11
 133 631 133 631 224.5 760.5 c 128,-1,12
 316 890 316 890 475 958.5 c 128,-1,13
 634 1027 634 1027 835 1027 c 1,0,1
700 -9 m 1,14,15
 940 221 940 221 940 612 c 0,16,17
 940 778 940 778 896 946 c 1,18,19
 897 961 897 961 928.5 987 c 128,-1,20
 960 1013 960 1013 982 1013 c 1,21,22
 1150 990 1150 990 1272 874 c 1,23,24
 1402 752 1402 752 1402 569.5 c 128,-1,25
 1402 387 1402 387 1310.5 257.5 c 128,-1,26
 1219 128 1219 128 1060 59.5 c 128,-1,27
 901 -9 901 -9 700 -9 c 1,14,15
579 1145 m 1,28,29
 545 1188 545 1188 530 1250 c 1,30,31
 765 1458 765 1458 991 1605 c 1,32,33
 1031 1553 1031 1553 1082 1438 c 128,-1,34
 1133 1323 1133 1323 1145 1261 c 1,35,36
 920 1184 920 1184 579 1145 c 1,28,29
EndSplineSet
EndChar

StartChar: otilde
Encoding: 245 245 182
Width: 1535
GlyphClass: 2
Flags: W
LayerCount: 2
Fore
SplineSet
835 1027 m 1,0,1
 595 797 595 797 595 406 c 0,2,3
 595 240 595 240 639 72 c 1,4,5
 638 57 638 57 606.5 31 c 128,-1,6
 575 5 575 5 553 5 c 1,7,8
 385 28 385 28 262 144 c 0,9,10
 133 266 133 266 133 448.5 c 128,-1,11
 133 631 133 631 224.5 760.5 c 128,-1,12
 316 890 316 890 475 958.5 c 128,-1,13
 634 1027 634 1027 835 1027 c 1,0,1
700 -9 m 1,14,15
 940 221 940 221 940 612 c 0,16,17
 940 778 940 778 896 946 c 1,18,19
 897 961 897 961 928.5 987 c 128,-1,20
 960 1013 960 1013 982 1013 c 1,21,22
 1150 990 1150 990 1272 874 c 1,23,24
 1402 752 1402 752 1402 569.5 c 128,-1,25
 1402 387 1402 387 1310.5 257.5 c 128,-1,26
 1219 128 1219 128 1060 59.5 c 128,-1,27
 901 -9 901 -9 700 -9 c 1,14,15
973 1154 m 0,28,29
 895 1154 895 1154 793 1214.5 c 128,-1,30
 691 1275 691 1275 625.5 1275 c 128,-1,31
 560 1275 560 1275 493 1269 c 1,32,33
 487 1296 487 1296 487 1323 c 128,-1,34
 487 1350 487 1350 491 1373 c 1,35,36
 607 1557 607 1557 753 1557 c 0,37,38
 810 1557 810 1557 852 1536.5 c 128,-1,39
 894 1516 894 1516 931 1495 c 0,40,41
 1036 1436 1036 1436 1101 1436 c 128,-1,42
 1166 1436 1166 1436 1233 1442 c 1,43,44
 1239 1412 1239 1412 1239 1387 c 128,-1,45
 1239 1362 1239 1362 1236 1338 c 1,46,47
 1119 1154 1119 1154 973 1154 c 0,28,29
EndSplineSet
EndChar

StartChar: divide
Encoding: 247 247 184
Width: 1365
GlyphClass: 2
Flags: W
LayerCount: 2
Fore
SplineSet
615.5 759.5 m 128,-1,1
 575 788 575 788 575 839 c 128,-1,2
 575 890 575 890 634 924.5 c 128,-1,3
 693 959 693 959 760.5 959 c 128,-1,4
 828 959 828 959 868 929.5 c 128,-1,5
 908 900 908 900 908 852 c 128,-1,6
 908 804 908 804 854 767.5 c 128,-1,7
 800 731 800 731 728 731 c 128,-1,0
 656 731 656 731 615.5 759.5 c 128,-1,1
1099 440 m 0,8,9
 674 440 674 440 207 425 c 1,10,-1
 207 489 l 2,11,12
 207 514 207 514 229.5 545 c 128,-1,13
 252 576 252 576 265 577 c 1,14,15
 739 577 739 577 1157 592 c 1,16,-1
 1157 528 l 2,17,18
 1157 503 1157 503 1134.5 471.5 c 128,-1,19
 1112 440 1112 440 1099 440 c 0,8,9
505.5 53.5 m 128,-1,21
 465 82 465 82 465 133 c 128,-1,22
 465 184 465 184 524 218.5 c 128,-1,23
 583 253 583 253 650.5 253 c 128,-1,24
 718 253 718 253 758 223.5 c 128,-1,25
 798 194 798 194 798 146 c 128,-1,26
 798 98 798 98 744 61.5 c 128,-1,27
 690 25 690 25 618 25 c 128,-1,20
 546 25 546 25 505.5 53.5 c 128,-1,21
EndSplineSet
EndChar

StartChar: oslash
Encoding: 248 248 185
Width: 1535
GlyphClass: 2
Flags: W
LayerCount: 2
Fore
SplineSet
1398 929 m 0,0,1
 1267 846 1267 846 1124 729 c 1,2,-1
 1034 811 l 1,3,4
 1244 967 1244 967 1349 1082 c 1,5,-1
 1397 1026 l 2,6,7
 1421 998 1421 998 1421 970.5 c 128,-1,8
 1421 943 1421 943 1398 929 c 0,0,1
64 139 m 0,9,10
 195 222 195 222 338 339 c 1,11,-1
 428 257 l 1,12,13
 218 101 218 101 113 -14 c 1,14,-1
 65 42 l 2,15,16
 41 70 41 70 41 97.5 c 128,-1,17
 41 125 41 125 64 139 c 0,9,10
835 1027 m 1,18,19
 595 797 595 797 595 406 c 0,20,21
 595 240 595 240 639 72 c 1,22,23
 638 57 638 57 606.5 31 c 128,-1,24
 575 5 575 5 553 5 c 1,25,26
 385 28 385 28 262 144 c 0,27,28
 133 266 133 266 133 448.5 c 128,-1,29
 133 631 133 631 224.5 760.5 c 128,-1,30
 316 890 316 890 475 958.5 c 128,-1,31
 634 1027 634 1027 835 1027 c 1,18,19
700 -9 m 1,32,33
 940 221 940 221 940 612 c 0,34,35
 940 778 940 778 896 946 c 1,36,37
 897 961 897 961 928.5 987 c 128,-1,38
 960 1013 960 1013 982 1013 c 1,39,40
 1150 990 1150 990 1272 874 c 1,41,42
 1402 752 1402 752 1402 569.5 c 128,-1,43
 1402 387 1402 387 1310.5 257.5 c 128,-1,44
 1219 128 1219 128 1060 59.5 c 128,-1,45
 901 -9 901 -9 700 -9 c 1,32,33
EndSplineSet
EndChar

StartChar: uacute
Encoding: 250 250 187
Width: 1532
GlyphClass: 2
Flags: W
LayerCount: 2
Fore
SplineSet
156 258 m 0,0,1
 156 361 156 361 189.5 542 c 128,-1,2
 223 723 223 723 223 796 c 128,-1,3
 223 869 223 869 176 899 c 1,4,5
 176 915 176 915 205 957.5 c 128,-1,6
 234 1000 234 1000 255 1000 c 2,7,-1
 646 1000 l 1,8,9
 665 990 665 990 683 963.5 c 128,-1,10
 701 937 701 937 701 896 c 128,-1,11
 701 855 701 855 657.5 630.5 c 128,-1,12
 614 406 614 406 614 280 c 0,13,14
 614 216 614 216 646.5 182.5 c 128,-1,15
 679 149 679 149 730 149 c 1,16,17
 728 136 728 136 728 116 c 0,18,19
 728 72 728 72 716 59 c 1,20,21
 667 28 667 28 586.5 9.5 c 128,-1,22
 506 -9 506 -9 432 -9 c 0,23,24
 156 -9 156 -9 156 258 c 0,0,1
911 2 m 1,25,26
 832 58 832 58 832 139 c 128,-1,27
 832 220 832 220 874.5 502 c 128,-1,28
 917 784 917 784 929 934 c 1,29,30
 929 947 929 947 961.5 973.5 c 128,-1,31
 994 1000 994 1000 1017 1000 c 2,32,-1
 1423 1000 l 1,33,34
 1369 768 1369 768 1336 564 c 128,-1,35
 1303 360 1303 360 1303 286 c 128,-1,36
 1303 212 1303 212 1321.5 177 c 128,-1,37
 1340 142 1340 142 1380 110 c 1,38,39
 1380 96 1380 96 1351 63.5 c 128,-1,40
 1322 31 1322 31 1298 21 c 1,41,42
 1169 2 1169 2 911 2 c 1,25,26
596 1145 m 1,43,44
 562 1188 562 1188 547 1250 c 1,45,46
 782 1458 782 1458 1008 1605 c 1,47,48
 1048 1553 1048 1553 1099 1438 c 128,-1,49
 1150 1323 1150 1323 1162 1261 c 1,50,51
 937 1184 937 1184 596 1145 c 1,43,44
EndSplineSet
EndChar

StartChar: udieresis
Encoding: 252 252 189
Width: 1532
GlyphClass: 2
Flags: W
LayerCount: 2
Fore
SplineSet
156 258 m 0,0,1
 156 361 156 361 189.5 542 c 128,-1,2
 223 723 223 723 223 796 c 128,-1,3
 223 869 223 869 176 899 c 1,4,5
 176 915 176 915 205 957.5 c 128,-1,6
 234 1000 234 1000 255 1000 c 2,7,-1
 646 1000 l 1,8,9
 665 990 665 990 683 963.5 c 128,-1,10
 701 937 701 937 701 896 c 128,-1,11
 701 855 701 855 657.5 630.5 c 128,-1,12
 614 406 614 406 614 280 c 0,13,14
 614 216 614 216 646.5 182.5 c 128,-1,15
 679 149 679 149 730 149 c 1,16,17
 728 136 728 136 728 116 c 0,18,19
 728 72 728 72 716 59 c 1,20,21
 667 28 667 28 586.5 9.5 c 128,-1,22
 506 -9 506 -9 432 -9 c 0,23,24
 156 -9 156 -9 156 258 c 0,0,1
911 2 m 1,25,26
 832 58 832 58 832 139 c 128,-1,27
 832 220 832 220 874.5 502 c 128,-1,28
 917 784 917 784 929 934 c 1,29,30
 929 947 929 947 961.5 973.5 c 128,-1,31
 994 1000 994 1000 1017 1000 c 2,32,-1
 1423 1000 l 1,33,34
 1369 768 1369 768 1336 564 c 128,-1,35
 1303 360 1303 360 1303 286 c 128,-1,36
 1303 212 1303 212 1321.5 177 c 128,-1,37
 1340 142 1340 142 1380 110 c 1,38,39
 1380 96 1380 96 1351 63.5 c 128,-1,40
 1322 31 1322 31 1298 21 c 1,41,42
 1169 2 1169 2 911 2 c 1,25,26
428.5 1179.5 m 128,-1,44
 377 1224 377 1224 377 1287.5 c 128,-1,45
 377 1351 377 1351 416 1397 c 0,46,47
 489 1485 489 1485 611 1485 c 0,48,49
 699 1485 699 1485 750.5 1440.5 c 128,-1,50
 802 1396 802 1396 802 1322 c 128,-1,51
 802 1248 802 1248 733 1191.5 c 128,-1,52
 664 1135 664 1135 572 1135 c 128,-1,43
 480 1135 480 1135 428.5 1179.5 c 128,-1,44
984.5 1179.5 m 128,-1,54
 933 1224 933 1224 933 1287.5 c 128,-1,55
 933 1351 933 1351 972 1397 c 0,56,57
 1047 1485 1047 1485 1151.5 1485 c 128,-1,58
 1256 1485 1256 1485 1307 1440.5 c 128,-1,59
 1358 1396 1358 1396 1358 1322 c 128,-1,60
 1358 1248 1358 1248 1289 1191.5 c 128,-1,61
 1220 1135 1220 1135 1128 1135 c 128,-1,53
 1036 1135 1036 1135 984.5 1179.5 c 128,-1,54
EndSplineSet
EndChar

StartChar: thorn
Encoding: 254 254 191
Width: 1535
GlyphClass: 2
Flags: W
LayerCount: 2
Fore
SplineSet
719 0 m 1,0,1
 795 48 795 48 850 148 c 0,2,3
 952 335 952 335 952 564 c 128,-1,4
 952 793 952 793 844 952 c 1,5,6
 844 967 844 967 875 993 c 128,-1,7
 906 1019 906 1019 929 1019 c 0,8,9
 1062 1019 1062 1019 1171 965 c 128,-1,10
 1280 911 1280 911 1346 806.5 c 128,-1,11
 1412 702 1412 702 1412 565 c 0,12,13
 1412 314 1412 314 1225.5 157 c 128,-1,14
 1039 0 1039 0 719 0 c 1,0,1
560 -354 m 1,15,16
 560 -367 560 -367 527.5 -393 c 128,-1,17
 495 -419 495 -419 473 -419 c 2,18,-1
 52 -419 l 1,19,20
 165 193 165 193 213.5 517 c 128,-1,21
 262 841 262 841 306 1318 c 1,22,23
 306 1331 306 1331 338 1357.5 c 128,-1,24
 370 1384 370 1384 393 1384 c 2,25,-1
 814 1384 l 1,26,27
 706 850 706 850 657 508.5 c 128,-1,28
 608 167 608 167 560 -354 c 1,15,16
EndSplineSet
EndChar

StartChar: ydieresis
Encoding: 255 255 192
Width: 1535
GlyphClass: 2
Flags: W
LayerCount: 2
Fore
SplineSet
178 314 m 0,0,1
 178 396 178 396 207.5 549 c 128,-1,2
 237 702 237 702 237 770 c 0,3,4
 237 876 237 876 181 899 c 1,5,6
 181 915 181 915 210 957.5 c 128,-1,7
 239 1000 239 1000 260 1000 c 2,8,-1
 649 1000 l 1,9,10
 672 992 672 992 688 968.5 c 128,-1,11
 704 945 704 945 704 903 c 128,-1,12
 704 861 704 861 684 768 c 0,13,14
 624 487 624 487 624 351 c 0,15,16
 624 288 624 288 661.5 254 c 128,-1,17
 699 220 699 220 752 220 c 1,18,19
 744 162 744 162 718 130 c 1,20,21
 610 62 610 62 466 62 c 0,22,23
 178 62 178 62 178 314 c 0,0,1
932 942 m 0,24,25
 932 954 932 954 963.5 975 c 128,-1,26
 995 996 995 996 1020 996 c 2,27,-1
 1413 996 l 1,28,29
 1333 614 1333 614 1280 89 c 0,30,31
 1240 -299 1240 -299 1038 -404 c 0,32,33
 916 -467 916 -467 716 -467 c 0,34,35
 685 -467 685 -467 617 -463 c 1,36,37
 702 -363 702 -363 747.5 -226.5 c 128,-1,38
 793 -90 793 -90 829.5 97.5 c 128,-1,39
 866 285 866 285 899 542.5 c 128,-1,40
 932 800 932 800 933 856 c 128,-1,41
 934 912 934 912 932 942 c 0,24,25
416 -438 m 1,42,43
 284 -427 284 -427 204.5 -377 c 128,-1,44
 125 -327 125 -327 125 -256.5 c 128,-1,45
 125 -186 125 -186 188 -137 c 0,46,47
 311 -41 311 -41 531 -41 c 0,48,49
 601 -41 601 -41 673 -53 c 1,50,51
 615 -109 615 -109 580 -175.5 c 128,-1,52
 545 -242 545 -242 545 -289 c 128,-1,53
 545 -336 545 -336 554 -371 c 1,54,55
 554 -386 554 -386 503.5 -412 c 128,-1,56
 453 -438 453 -438 416 -438 c 1,42,43
420.5 1179.5 m 128,-1,58
 369 1224 369 1224 369 1287.5 c 128,-1,59
 369 1351 369 1351 408 1397 c 0,60,61
 481 1485 481 1485 603 1485 c 0,62,63
 691 1485 691 1485 742.5 1440.5 c 128,-1,64
 794 1396 794 1396 794 1322 c 128,-1,65
 794 1248 794 1248 725 1191.5 c 128,-1,66
 656 1135 656 1135 564 1135 c 128,-1,57
 472 1135 472 1135 420.5 1179.5 c 128,-1,58
976.5 1179.5 m 128,-1,68
 925 1224 925 1224 925 1287.5 c 128,-1,69
 925 1351 925 1351 964 1397 c 0,70,71
 1039 1485 1039 1485 1143.5 1485 c 128,-1,72
 1248 1485 1248 1485 1299 1440.5 c 128,-1,73
 1350 1396 1350 1396 1350 1322 c 128,-1,74
 1350 1248 1350 1248 1281 1191.5 c 128,-1,75
 1212 1135 1212 1135 1120 1135 c 128,-1,67
 1028 1135 1028 1135 976.5 1179.5 c 128,-1,68
EndSplineSet
EndChar

StartChar: Amacron
Encoding: 256 256 193
Width: 1365
GlyphClass: 2
Flags: W
LayerCount: 2
Fore
SplineSet
1163 0 m 2,0,-1
 698 0 l 1,1,2
 620 622 620 622 501 1080 c 1,3,4
 559 1198 559 1198 600 1296 c 0,5,6
 607 1311 607 1311 636.5 1336 c 128,-1,7
 666 1361 666 1361 687 1361 c 2,8,-1
 1005 1361 l 1,9,10
 1046 1059 1046 1059 1115.5 688.5 c 128,-1,11
 1185 318 1185 318 1251 66 c 1,12,13
 1251 53 1251 53 1219 26.5 c 128,-1,14
 1187 0 1187 0 1163 0 c 2,0,-1
364 177 m 1,15,-1
 367 66 l 2,16,17
 367 53 367 53 334.5 26.5 c 128,-1,18
 302 0 302 0 279 0 c 2,19,-1
 -40 0 l 1,20,21
 118 268 118 268 450 982 c 1,22,23
 459 956 459 956 459 909.5 c 128,-1,24
 459 863 459 863 445.5 775 c 128,-1,25
 432 687 432 687 411 567.5 c 128,-1,26
 390 448 390 448 380 374 c 1,27,28
 524 352 524 352 589 325 c 1,29,30
 589 265 589 265 569 236 c 1,31,32
 465 227 465 227 364 209 c 1,33,-1
 364 177 l 1,15,-1
1112 1511 m 0,34,35
 757 1511 757 1511 520 1496 c 1,36,-1
 550 1715 l 2,37,38
 554 1740 554 1740 575 1771 c 128,-1,39
 596 1802 596 1802 608 1803 c 1,40,41
 996 1803 996 1803 1200 1818 c 1,42,-1
 1170 1599 l 2,43,44
 1166 1573 1166 1573 1145 1542 c 128,-1,45
 1124 1511 1124 1511 1112 1511 c 0,34,35
EndSplineSet
EndChar

StartChar: Abreve
Encoding: 258 258 195
Width: 1365
GlyphClass: 2
Flags: W
LayerCount: 2
Fore
SplineSet
1163 0 m 2,0,-1
 698 0 l 1,1,2
 620 622 620 622 501 1080 c 1,3,4
 559 1198 559 1198 600 1296 c 0,5,6
 607 1311 607 1311 636.5 1336 c 128,-1,7
 666 1361 666 1361 687 1361 c 2,8,-1
 1005 1361 l 1,9,10
 1046 1059 1046 1059 1115.5 688.5 c 128,-1,11
 1185 318 1185 318 1251 66 c 1,12,13
 1251 53 1251 53 1219 26.5 c 128,-1,14
 1187 0 1187 0 1163 0 c 2,0,-1
364 177 m 1,15,-1
 367 66 l 2,16,17
 367 53 367 53 334.5 26.5 c 128,-1,18
 302 0 302 0 279 0 c 2,19,-1
 -40 0 l 1,20,21
 118 268 118 268 450 982 c 1,22,23
 459 956 459 956 459 909.5 c 128,-1,24
 459 863 459 863 445.5 775 c 128,-1,25
 432 687 432 687 411 567.5 c 128,-1,26
 390 448 390 448 380 374 c 1,27,28
 524 352 524 352 589 325 c 1,29,30
 589 265 589 265 569 236 c 1,31,32
 465 227 465 227 364 209 c 1,33,-1
 364 177 l 1,15,-1
1236 1854 m 1,34,35
 1265 1814 1265 1814 1276 1770 c 1,36,37
 1235 1617 1235 1617 1110.5 1533.5 c 128,-1,38
 986 1450 986 1450 838 1450 c 0,39,40
 688 1450 688 1450 581 1536 c 1,41,42
 467 1626 467 1626 467 1794 c 1,43,44
 486 1830 486 1830 530 1879 c 1,45,46
 626 1731 626 1731 851 1731 c 0,47,48
 952 1731 952 1731 1055.5 1764 c 128,-1,49
 1159 1797 1159 1797 1236 1854 c 1,34,35
EndSplineSet
EndChar

